<?xml version="1.0" encoding="utf-8"?>
<!-- Generator: Adobe Illustrator 23.0.0, SVG Export Plug-In . SVG Version: 6.00 Build 0)  -->
<svg version="1.1" id="Capa_1" xmlns="http://www.w3.org/2000/svg" xmlns:xlink="http://www.w3.org/1999/xlink" x="0px" y="0px"
	 viewBox="0 0 1080 1080" style="enable-background:new 0 0 1080 1080;" xml:space="preserve">
<style type="text/css">
	.st0{fill:#FFFFFF;}
	.st1{fill:#C02E39;}
	.st2{fill:#808080;}
	.st3{fill:#606060;}
</style>
<g>
	<path d="M247.26,500.07h19.22c3.54,0,6.51,2.66,6.9,6.17l0.51,4.63c0.05,7.03-2.78,12.59-8.45,16.6c-1.55,1.1-2,2.21-1.98,3.97
		c0.07,8.55,0.09,17.1,0.02,25.65c-0.07,8.74-4.24,14.99-11.98,18.87c-1.87,0.94-4.01,1.17-3.68,4.28c0.33,3.07,1.52,5.05,4.39,6.12
		c6.98,2.59,13.87,5.42,20.93,7.79c11.4,3.82,17.09,7.05,16.43,23.52c-0.48,11.88-0.09,23.8-0.09,35.71c0,0.74,0,1.47,0,2.41
		c0.99,0.06,1.72,0.14,2.44,0.14c11.9,0.01,23.81-0.04,35.71,0.05c2.02,0.01,3-0.54,3.75-2.53c4.15-11,8.5-21.93,12.77-32.89
		c3.12-7.99,8.01-11.37,16.54-11.37c28.68,0,57.36,0.26,86.03-0.17c7.88-0.12,14.95,6.57,10.93,16.19
		c-6.53,15.63-12.44,31.52-18.61,47.3c-0.5,1.29-0.94,2.6-1.52,4.21c10.01,0,19.72,0,29.43,0c3.14,0,6.28-0.06,9.41,0.02
		c3.3,0.09,5.25,1.98,5.29,5.27c0.08,6.82,0.07,13.64,0,20.45c-0.04,3.45-2,5.28-5.51,5.39c-1.49,0.04-2.99,0.01-4.85,0.01
		c0,1.4,0,2.55,0,3.71c0,20.67,0,58.66,0,79.33c0,5.44-1.53,7.01-6.84,7.01c-99.35,0-198.69,0-298.04,0c-5.19,0-6.79-1.59-6.79-6.73
		c-0.01-16.67-0.02-50.65,0.01-67.31c0.01-3.52,2.15-5.66,5.32-5.58c3.01,0.08,4.91,2.19,5.01,5.58c0.02,0.76,0,1.51,0,2.27
		c0,13.42,0,44.16,0,57.58c0,1.17,0,2.33,0,3.66h290.69v-79.51c-1.25,0-2.61,0-3.97,0c-100.1,0-200.21-0.01-300.31,0.05
		c-3.06,0-5.48-0.67-7.18-3.28v-24.68c1.69-2.63,4.11-3.38,7.18-3.29c6.37,0.18,12.75,0.06,18.81,0.06c0-3.05-0.36-21.74-0.36-21.74
		l-2.78-0.15c-2.87-0.16-4.84-2.96-3.99-5.71c2.59-8.38,7.12-24.82,7.13-37.01c0-7.82,3.64-13.12,10.93-15.89
		c8.47-3.22,16.97-6.38,25.45-9.58c4.33-1.63,5.16-2.84,5.17-7.44c0.01-4,0-8,0-11.19c-3.89-2.54-7.59-4.42-10.61-7.07
		c-3.85-3.36-6.02-7.94-6.27-13.13c-0.35-7.31-1.47-14.77-0.44-21.91c2.1-14.65,15.82-25.65,30.63-25.8
		c5.63-0.06,11.26,0.02,16.88-0.03 M448.24,619.46c-1.19,0-2.04,0-2.89,0c-28.03,0.03-56.06,0.05-84.09,0.08
		c-4.61,0-5.77,0.81-7.46,5.16c-6.08,15.58-12.17,31.17-18.25,46.76c-0.65,1.66-1.27,3.33-1.92,5.05c0.58,0.11,0.8,0.18,1.01,0.18
		c29.76,0.01,59.53-0.01,89.29,0.08c2.2,0.01,2.65-1.16,3.27-2.74c6.65-17.1,13.34-34.18,20.01-51.27
		C447.57,621.78,447.83,620.77,448.24,619.46z M279.08,655.8c0-15.02,0.03-29.71-0.02-44.41c-0.01-2.84-1.77-4.49-4.33-5.44
		c-6.37-2.36-12.85-4.48-19.05-7.24c-3.88-1.72-6.62-1.4-9.69,1.57c-4.29,4.15-9.75,6.05-15.52,4.13c-4.66-1.55-8.87-4.38-13.4-6.38
		c-1.38-0.61-3.34-0.86-4.72-0.38c-7.43,2.59-14.73,5.54-22.14,8.2c-3.34,1.2-4.73,3.34-4.69,6.84c0.09,8.54,0.03,17.09,0.03,25.64
		c0,2.34,0,4.68,0,6.97c5.44,0,10.46,0,15.62,0c0-5.21-0.05-10.18,0.02-15.14c0.05-3.32,2.14-5.4,5.18-5.39
		c3.03,0.01,5.07,2.11,5.14,5.44c0.07,3.03,0.02,6.06,0.02,9.09c0,5.48,0,10.95,0,16.41c15.81,0,31.21,0,46.68,0
		c0.04-0.76,0.1-1.29,0.1-1.82c0.01-7.9-0.03-15.79,0.03-23.69c0.02-3.33,2.11-5.42,5.14-5.43c3.04-0.01,5.07,2.08,5.19,5.4
		c0.06,1.73,0.01,3.46,0.01,5.19c0,6.78,0,13.55,0,20.45C272.26,655.8,275.47,655.8,279.08,655.8z M471.16,687.3
		c-103.97,0-207.69,0-311.33,0c0,3.52,0,6.8,0,10.02c103.9,0,207.54,0,311.33,0C471.16,693.95,471.16,690.74,471.16,687.3z
		 M225.46,590.41c8.59,5.28,10.67,5.38,14.59,1.05c-1.17-4.68-2.22-8.89-3.36-13.45c-3.26-1.14-4.85-3.22-4.3-6.22
		c0.52-2.85,2.63-4.16,6.69-4.17c0.97,0,1.95,0.02,2.92,0c6.6-0.14,10.97-4.44,11.1-10.99c0.07-3.79,0.01-7.57,0.02-11.36
		c0-4.61,0-9.22,0-13.93c-5.37,0-10.32,0-15.39,0c-0.8,6.17-4.29,9.68-10.61,10.52c0,12.27,0.12,24.48-0.07,36.69
		C226.98,582.32,226.06,586.1,225.46,590.41z M185.9,655.98c-0.17,0.5-0.3,0.7-0.3,0.89c-0.03,4.11-0.05,8.22-0.05,12.34
		c0,5.84,1.66,7.5,7.54,7.5c20.56,0,41.13,0,61.69,0c1.13,0,2.27,0,3.35,0c0-3.72,0-6.93,0-10.42c-5.01,0-9.86,0-14.7,0
		c-13.85,0-27.71-0.02-41.56,0.02c-2.52,0.01-4.49-0.78-5.49-3.17c-0.98-2.36-0.4-4.43,1.51-6.14c0.25-0.23,0.42-0.55,0.78-1.02
		C194.23,655.98,190.13,655.98,185.9,655.98z M263.5,506.1c-0.27-0.1-0.39-0.19-0.47-0.16c-0.39,0.14-0.79,0.27-1.14,0.49
		c-4.64,2.85-9.64,4.18-15.11,4.04c-5.08-0.14-10.17-0.07-15.26-0.02c-11.69,0.13-20.93,7.47-22.13,19.05
		c-0.67,6.52,0.64,13.31,1.61,19.91c0.41,2.79,2.47,5.13,5.75,6.16c0-4.27,0-8.27,0-12.27c0-7.37,2.91-10.91,10.09-12.29
		c1.58-7.41,4.97-10.15,12.59-10.15c4.76,0,9.53,0.09,14.29-0.03c5.66-0.13,9.53-4,9.77-9.62
		C263.57,509.49,263.5,507.76,263.5,506.1z M326.16,666.47c-9.44,0-18.44,0-27.3,0c0.45,3.43,0.89,6.69,1.36,10.23
		c6.85,0,13.74,0.03,20.63-0.05c0.59-0.01,1.5-0.51,1.71-1.02C323.82,672.7,324.92,669.7,326.16,666.47z M268.92,666.32
		c0,3.71,0,6.98,0,10.17c6.98,0,13.72,0,20.43,0c0.35-6.29-2.05-9.84-7.08-10.12C277.89,666.13,273.48,666.32,268.92,666.32z"/>
	<path class="st0" d="M448.24,619.46c-0.41,1.31-0.67,2.33-1.05,3.3c-6.67,17.09-13.36,34.17-20.01,51.27
		c-0.62,1.58-1.06,2.75-3.27,2.74c-29.76-0.09-59.53-0.07-89.29-0.08c-0.21,0-0.42-0.07-1.01-0.18c0.65-1.72,1.27-3.39,1.92-5.05
		c6.08-15.59,12.16-31.17,18.25-46.76c1.7-4.35,2.85-5.15,7.46-5.16c28.03-0.03,56.06-0.05,84.09-0.08
		C446.2,619.45,447.05,619.46,448.24,619.46z M408.94,650.74c0.01-8.71-7.34-16.04-15.61-15.59c-2.93,0.16-4.94,2.04-5.12,4.8
		c-0.18,2.78,1.55,4.95,4.37,5.53c1.05,0.22,2.54,0.13,3.03,0.78c1.19,1.59,2.62,3.51,2.66,5.33c0.05,2.44-2.05,3.95-4.55,4.25
		c-2.81,0.34-4.93-1.83-5.56-5.49c-0.57-3.31-2.74-5.11-5.77-4.8c-2.82,0.29-4.56,2.43-4.59,5.65c-0.06,8.12,7.06,15.05,15.47,15.08
		C402.02,666.31,408.93,659.44,408.94,650.74z"/>
	<path class="st0" d="M279.08,655.8c-3.61,0-6.82,0-10.41,0c0-6.9,0-13.67,0-20.45c0-1.73,0.05-3.46-0.01-5.19
		c-0.11-3.32-2.15-5.4-5.19-5.4c-3.04,0.01-5.12,2.1-5.14,5.43c-0.06,7.9-0.02,15.79-0.03,23.69c0,0.53-0.06,1.06-0.1,1.82
		c-15.47,0-30.87,0-46.68,0c0-5.46,0-10.94,0-16.41c0-3.03,0.05-6.06-0.02-9.09c-0.07-3.32-2.11-5.42-5.14-5.44
		c-3.04-0.01-5.13,2.07-5.18,5.39c-0.07,4.97-0.02,9.93-0.02,15.14c-5.16,0-13.64,0-19.08,0c0-2.29,2.44-19.56,3.43-32.61
		c-0.04-3.49,1.35-5.64,4.69-6.84c7.41-2.66,14.71-5.61,22.14-8.2c1.38-0.48,3.34-0.23,4.72,0.38c4.53,2,8.74,4.83,13.4,6.38
		c5.77,1.92,11.22,0.03,15.52-4.13c3.06-2.96,5.81-3.29,9.69-1.57c6.2,2.76,12.68,4.88,19.05,7.24c2.56,0.95,4.32,2.59,4.33,5.44
		C279.11,626.09,279.08,640.78,279.08,655.8z"/>
	<path class="st1" d="M471.16,687.3c0,3.44,0,6.65,0,10.02c-103.79,0-207.43,0-311.33,0c0-3.22,0-6.51,0-10.02
		C263.48,687.3,367.19,687.3,471.16,687.3z"/>
	<path class="st0" d="M225.46,590.41c0.6-4.31,1.52-8.08,1.58-11.87c0.19-12.21,0.07-24.42,0.07-36.69
		c6.32-0.84,9.82-4.35,10.61-10.52c5.08,0,10.02,0,15.39,0c0,4.71,0,9.32,0,13.93c0,3.79,0.06,7.57-0.02,11.36
		c-0.13,6.56-4.5,10.85-11.1,10.99c-0.97,0.02-1.95,0-2.92,0c-4.06,0.01-6.17,1.33-6.69,4.17c-0.55,3,1.04,5.08,4.3,6.22
		c1.14,4.56,2.19,8.76,3.36,13.45C236.13,595.79,234.05,595.69,225.46,590.41z"/>
	<path class="st0" d="M185.9,655.98c4.23,0,8.33,0,12.78,0c-0.35,0.47-0.52,0.8-0.78,1.02c-1.91,1.71-2.49,3.78-1.51,6.14
		c1,2.39,2.97,3.18,5.49,3.17c13.85-0.04,27.71-0.02,41.56-0.02c4.84,0,9.69,0,14.7,0c0,3.49,0,6.7,0,10.42c-1.08,0-2.22,0-3.35,0
		c-20.56,0-41.13,0-61.69,0c-5.88,0-7.54-1.65-7.54-7.5c0-4.11,0.02-8.22,0.05-12.34C185.6,656.68,185.73,656.48,185.9,655.98z"/>
	<path class="st2" d="M263.5,506.1c0,1.66,0.06,3.39-0.01,5.11c-0.25,5.62-4.11,9.48-9.77,9.62c-4.76,0.11-9.52,0.02-14.29,0.03
		c-7.62,0-11.01,2.74-12.59,10.15c-7.17,1.38-10.08,4.92-10.09,12.29c0,4,0,8,0,12.27c-3.28-1.04-5.35-3.37-5.75-6.16
		c-0.96-6.59-2.28-13.39-1.61-19.91c1.2-11.58,10.44-18.93,22.13-19.05c5.09-0.05,10.18-0.12,15.26,0.02
		c5.47,0.15,10.47-1.19,15.11-4.04c0.35-0.21,0.75-0.34,1.14-0.49C263.11,505.91,263.23,506.01,263.5,506.1z"/>
	<path class="st0" d="M326.16,666.47c-1.24,3.22-2.34,6.23-3.6,9.17c-0.22,0.51-1.12,1.01-1.71,1.02
		c-6.89,0.07-13.78,0.05-20.63,0.05c-0.47-3.54-0.9-6.8-1.36-10.23C307.72,666.47,316.72,666.47,326.16,666.47z"/>
	<path class="st0" d="M268.92,666.32c4.56,0,8.97-0.19,13.35,0.05c5.03,0.28,7.43,3.83,7.08,10.12c-6.72,0-13.45,0-20.43,0
		C268.92,673.3,268.92,670.02,268.92,666.32z"/>
	<path d="M408.94,650.74c-0.01,8.7-6.92,15.57-15.66,15.55c-8.42-0.02-15.54-6.96-15.47-15.08c0.02-3.22,1.76-5.36,4.59-5.65
		c3.03-0.31,5.2,1.49,5.77,4.8c0.63,3.66,2.75,5.83,5.56,5.49c2.5-0.3,4.61-1.81,4.55-4.25c-0.04-1.82-1.47-3.74-2.66-5.33
		c-0.49-0.65-1.99-0.57-3.03-0.78c-2.82-0.58-4.55-2.75-4.37-5.53c0.18-2.75,2.19-4.64,5.12-4.8
		C401.6,634.7,408.95,642.03,408.94,650.74z"/>
</g>
<path d="M442.54,549.82c-1.23,0-2.47-0.33-3.58-0.99c-2.59-1.54-3.9-4.57-3.25-7.52l13.54-61.49H421.2
	c-18.77,0-34.04-15.27-34.04-34.04V275.54c0-18.77,15.27-34.04,34.04-34.04h176.37c18.77,0,34.04,15.27,34.04,34.04v170.24
	c0,18.77-15.27,34.04-34.04,34.04h-71.42l-79.04,68.3C445.81,549.24,444.18,549.82,442.54,549.82z M421.2,255.49
	c-11.05,0-20.04,8.99-20.04,20.04v170.24c0,11.05,8.99,20.04,20.04,20.04h36.76c2.12,0,4.13,0.96,5.46,2.61s1.84,3.82,1.38,5.89
	l-10.88,49.42l65.06-56.22c1.27-1.1,2.9-1.7,4.58-1.7h74.02c11.05,0,20.04-8.99,20.04-20.04V275.54c0-11.05-8.99-20.04-20.04-20.04
	H421.2z"/>
<path d="M224.41,639.09c-3.32,0-6.03-2.68-6.06-6.01c-0.16-18.15-13.88-29.57-14.02-29.68c-2.58-2.11-2.99-5.92-0.88-8.52
	c2.1-2.59,5.89-3.01,8.49-0.92c0.75,0.6,18.31,14.98,18.53,39c0.03,3.35-2.66,6.09-6.01,6.12
	C224.45,639.09,224.43,639.09,224.41,639.09z"/>
<path d="M265.97,635.62c-3.32,0-6.03-2.68-6.06-6.01c-0.17-18.84-6.25-27.1-6.31-27.18c-2.07-2.63-1.61-6.44,1.03-8.51
	c2.63-2.07,6.44-1.61,8.51,1.03c0.89,1.13,8.69,11.73,8.9,34.56c0.03,3.35-2.66,6.09-6.01,6.12
	C266.01,635.62,265.99,635.62,265.97,635.62z"/>
<path class="st1" d="M206.94,626.6c0,0,5.39,6.5,17.91,6.43c12.52-0.07,42.65-6.43,42.65-6.43v33.79h-60.96L206.94,626.6z"/>
<path d="M267.5,666.45h-60.96c-1.62,0-3.17-0.65-4.31-1.8c-1.14-1.15-1.77-2.71-1.75-4.33l0.4-33.79c0.03-2.59,1.62-4.98,4.08-5.79
	c2.44-0.8,5.04-0.09,6.61,1.94c0.49,0.51,4.44,4.29,13.09,4.29c0.05,0,0.11,0,0.16,0c11.76-0.06,41.14-6.23,41.43-6.3
	c1.79-0.38,3.65,0.07,5.07,1.22c1.42,1.15,2.24,2.88,2.24,4.71v33.79C273.56,663.74,270.84,666.45,267.5,666.45z M212.67,654.33
	h48.77V634c-9.92,1.92-27.39,5.04-36.56,5.09c-4.79,0-8.8-0.77-12.01-1.88L212.67,654.33z"/>
<g>
	<g>
		<path class="st2" d="M199.55,426.33c3.22,0,3.22-5,0-5C196.33,421.33,196.32,426.33,199.55,426.33L199.55,426.33z"/>
	</g>
</g>
<path d="M565.95,425.23c-1.79,0-3.58-0.68-4.95-2.05c-19.97-19.97-43.84-26.94-70.94-20.73c-20.65,4.73-35.31,15.48-35.46,15.59
	c-3.1,2.3-7.49,1.65-9.79-1.45c-2.3-3.11-1.65-7.49,1.45-9.79c0.69-0.51,17.2-12.61,40.67-17.99c22.08-5.06,54.57-4.92,83.97,24.48
	c2.73,2.73,2.73,7.17,0,9.9C569.54,424.54,567.74,425.23,565.95,425.23z"/>
<path d="M476.33,344.33c-1.79,0-3.58-0.68-4.95-2.05l-37.83-37.83c-2.73-2.73-2.73-7.17,0-9.9s7.17-2.73,9.9,0l37.83,37.83
	c2.73,2.73,2.73,7.17,0,9.9C479.91,343.65,478.12,344.33,476.33,344.33z"/>
<path d="M438.5,344.33c-1.79,0-3.58-0.68-4.95-2.05c-2.73-2.73-2.73-7.17,0-9.9l37.83-37.83c2.73-2.73,7.17-2.73,9.9,0
	c2.73,2.73,2.73,7.17,0,9.9l-37.83,37.83C442.09,343.65,440.29,344.33,438.5,344.33z"/>
<path d="M576.33,344.33c-1.79,0-3.58-0.68-4.95-2.05l-37.83-37.83c-2.73-2.73-2.73-7.17,0-9.9c2.73-2.73,7.17-2.73,9.9,0
	l37.83,37.83c2.73,2.73,2.73,7.17,0,9.9C579.91,343.65,578.12,344.33,576.33,344.33z"/>
<path d="M538.5,344.33c-1.79,0-3.58-0.68-4.95-2.05c-2.73-2.73-2.73-7.17,0-9.9l37.83-37.83c2.73-2.73,7.17-2.73,9.9,0
	c2.73,2.73,2.73,7.17,0,9.9l-37.83,37.83C542.09,343.65,540.29,344.33,538.5,344.33z"/>
<g>
	<path d="M818.8,739.12c29.51,0,58.81,0,88.08,0c0.66-5.54-0.85-7.35-6.11-7.36c-14.24-0.03-28.48,0.02-42.73-0.03
		c-4.48-0.01-7.08-2.49-6.55-6.22c0.47-3.34,2.59-5.03,5.93-5.03c15.37-0.02,30.73-0.13,46.1,0.05c8.19,0.1,14.83,7.08,14.88,15.31
		c0.09,11.99,0.03,23.99,0.02,35.98c-0.01,10.95-6.42,17.39-17.48,17.41c-21.61,0.04-43.22,0.01-64.84,0.01
		c-4.12,0-8.25,0.08-12.37-0.02c-9.9-0.23-16.33-6.67-16.41-16.58c-0.1-11.87-0.1-23.74,0-35.6c0.08-10.2,6.54-16.52,16.71-16.56
		c2.25-0.01,4.5-0.09,6.74,0.03c3.34,0.18,5.79,2.72,5.72,5.75c-0.07,2.94-2.35,5.24-5.58,5.45c-1.87,0.12-3.75,0.05-5.62,0.06
		C819.81,731.78,818.52,733.16,818.8,739.12z M818.83,758.47c29.64,0,58.91,0,88.19,0c0-2.6,0-4.92,0-7.4c-29.47,0-58.74,0-88.19,0
		C818.83,753.62,818.83,755.94,818.83,758.47z M906.93,770.41c-29.52,0-58.78,0-88,0c-0.61,5.89,0.55,7.24,6.17,7.25
		c25.21,0.02,50.41,0.02,75.62,0C906.18,777.65,907.52,776.1,906.93,770.41z"/>
	<path class="st1" d="M835.6,601.4c-4.78-12.85-19.06-20.12-32.38-16.84c-19.11,4.7-38.07,9.99-57.08,15.08
		c-54.03,14.46-108.07,28.92-162.08,43.45c-15.09,4.06-23.79,16.6-21.87,32.1c0.99,8.01,3.08,15.89,4.75,23.82
		c1.66,7.9,3.41,15.78,5.15,23.85c2.03-0.54,172.45-46.15,241.65-64.69c12.37-3.31,24.73-6.66,37.38-10.07
		C845.93,632.32,841.29,616.67,835.6,601.4z M648.24,689.6c-14.65,3.99-29.33,7.86-44.01,11.73c-1.07,0.28-2.23,0.24-2.66,0.28
		c-9.45-0.05-17.7-5.71-20.43-14.06c-2.01-6.14-3.56-12.44-5.13-18.72c-0.86-3.42,0.97-5.88,5.03-6.99
		c13.69-3.74,27.4-7.4,41.1-11.1c4.45-1.2,8.88-2.45,13.33-3.6c5.08-1.32,7.67,0.1,9,5.03c2.69,9.97,5.33,19.96,7.93,29.96
		C653.38,685.9,651.98,688.58,648.24,689.6z M727.42,671.55c-12.2,3.87-24.62,7.24-37.15,9.86c-15.04,3.15-30.51-6.17-35.71-20.72
		c-1.55-4.33-2.68-8.82-3.74-13.29c-1-4.22,0.58-6.69,4.82-7.83c26.93-7.25,53.86-14.47,80.8-21.66c5.09-1.36,7.51,0.03,8.85,5.14
		c1.54,5.87,2.9,11.79,3.62,14.76C748.93,654.85,740.62,667.36,727.42,671.55z M811.63,645.71c-14.19,4.19-28.53,7.87-42.85,11.6
		c-4.25,1.11-6.63-0.47-7.81-4.75c-2.71-9.83-5.38-19.68-7.99-29.54c-1.27-4.83,0.17-7.33,5.01-8.64
		c18.13-4.91,36.27-9.79,54.42-14.62c4.83-1.28,7.25,0.17,8.55,5.05c1.7,6.37,3.27,12.77,4.88,19.16c0.15,0.6,0.12,1.24,0.14,1.51
		C825.99,634.71,820.35,643.14,811.63,645.71z"/>
	<path class="st3" d="M570.45,735.12c-2.12,0.48-2.58,1.47-2,3.47c1.39,4.79,2.86,9.56,3.87,14.44c0.65,3.14,2.08,3.34,4.72,2.61
		c11.89-3.29,23.81-6.45,35.72-9.66c18.53-4.98,37.07-9.93,55.57-15.02c1.04-0.28,2.64-1.92,2.48-2.59
		c-1.42-6.16-3.18-12.24-4.95-18.77c-11.52,3.07-22.46,5.98-33.4,8.91L570.45,735.12z"/>
	<path class="st0" d="M651.5,551.56c26.96-7.23,53.91-14.47,80.88-21.68c9.41-2.51,15.1-0.14,20.15,8.3
		c7.56,12.64,15.09,25.3,22.64,37.95c0.68,1.14,1.38,2.26,2.07,3.39c3.98-1.11,7.55-2.1,11.49-3.2c-9.6-15.96-18.69-31.76-28.5-47.1
		c-6.11-9.55-18.28-13.67-29.44-10.72c-39.03,10.32-78.02,20.76-117.01,31.24c-14.86,3.99-22.61,13.94-22.91,29.33
		c-0.31,16.12-0.46,32.25-0.66,48.37c-0.01,0.57,0.17,1.15,0.33,2.1c3.91-1.08,7.56-2.09,10.99-3.03c0.15-0.73,0.25-0.97,0.25-1.21
		c0.17-13.87,0.57-27.75,0.45-41.62c-0.15-18.2,4.71-20.62,19.58-24.24c0.24-0.06,0.48-0.12,0.73-0.17"/>
	<path class="st2" d="M735.24,540.83c-26.93,7.32-108.54,29.1-109.86,29.48c-2.75,0.8-5.67,1.2-8.24,2.38
		c-1.39,0.64-3.1,2.55-3.12,3.9c-0.22,15.36-0.14,30.72-0.14,46.67c50.34-13.49,100.94-27.05,151.87-40.7
		c-7.93-13.29-15.6-26.01-23.09-38.82C740.82,540.62,738.72,539.88,735.24,540.83z"/>
	<path class="st3" d="M861.22,657.21c1.74,6.5,3.49,12.7,4.92,18.97c0.14,0.62-1.57,2.19-2.66,2.49
		c-12.12,3.38-24.28,6.6-36.43,9.86c-18.65,5-37.3,10-55.96,14.99c-0.7,0.19-1.43,0.29-2.43,0.49c-1.83-6.8-3.63-13.48-5.53-20.52
		C795.83,674.73,828.25,666.05,861.22,657.21z"/>
	<path class="st3" d="M682.45,727.29c-1.87-6.95-3.67-13.64-5.56-20.66c25.05-6.72,49.86-13.38,75.22-20.18
		c1.85,6.91,3.66,13.65,5.55,20.7C732.33,713.93,707.51,720.58,682.45,727.29z"/>
	<path class="st0" d="M775,745.26c0,10.83,0,21.37,0,32.16c-6.95,0-13.72,0-20.7,0c0-10.72,0-21.27,0-32.16
		C761.07,745.26,767.83,745.26,775,745.26z"/>
	<path class="st0" d="M801.42,573.05c-0.69-3.08-1.6-5.79-1.84-8.57c-0.32-3.69,2.11-6.7,6.1-7.89c4.75-1.42,9.55-2.7,14.37-3.9
		c3.88-0.97,7.63,1.2,8.87,4.93c1.21,3.66-0.57,7.84-4.46,9.04C817.01,568.95,809.45,570.84,801.42,573.05z"/>
	<path class="st0" d="M577.4,633.06c-7.87,2.07-15.28,4.13-22.75,5.94c-3.93,0.96-7.44-1.39-8.58-5.31
		c-1.01-3.44,0.61-7.31,4.22-8.5c5.41-1.79,10.95-3.3,16.53-4.47c3.91-0.82,7.4,1.61,8.72,5.43
		C576.26,628.24,576.7,630.43,577.4,633.06z"/>
	<path class="st3" d="M622.51,771.68c-2.66,0.77-4.9,1.41-7.6,2.18c-1.41-5.19-2.78-10.24-4.2-15.5c2.63-0.73,4.88-1.35,7.63-2.12
		C619.73,761.4,621.09,766.44,622.51,771.68z"/>
	<path class="st0" d="M768.18,733.16c-2.52,0-4.71,0-7.28,0c0-4.64-0.5-9.17,0.15-13.52c0.56-3.74,4.47-2.26,7.13-3.34
		C768.18,722.06,768.18,727.38,768.18,733.16z"/>
	<path class="st3" d="M636.7,751.4c0.96,3.5,1.78,6.35,2.53,9.21c1.35,5.16,0.13,6.95-5.67,7.91c-1.33-4.81-2.67-9.66-4.17-15.09
		C631.81,752.76,634.09,752.12,636.7,751.4z"/>
	<path class="st3" d="M603.7,776.39c-5.36,2.2-7.33,1.32-8.7-3.54c-0.87-3.07-1.67-6.17-2.48-9.16c0.41-0.31,0.58-0.52,0.8-0.6
		c6.28-2.23,6.28-2.23,7.96,4.19C602.06,770.27,602.86,773.25,603.7,776.39z"/>
	<path class="st0" d="M818.83,758.47c0-2.53,0-4.85,0-7.4c29.45,0,58.72,0,88.19,0c0,2.48,0,4.8,0,7.4
		C877.73,758.47,848.46,758.47,818.83,758.47z"/>
	<path class="st0" d="M906.93,770.41c0.59,5.69-0.75,7.24-6.21,7.25c-25.21,0.02-50.41,0.02-75.62,0c-5.62,0-6.78-1.35-6.17-7.25
		C848.15,770.41,877.41,770.41,906.93,770.41z"/>
	<path d="M748.93,637.81c0,17.04-8.31,29.55-21.51,33.74c-12.2,3.87-24.62,7.24-37.15,9.86c-15.04,3.15-30.51-6.17-35.71-20.72
		c-1.55-4.33-2.68-8.82-3.74-13.29c-1-4.22,0.58-6.69,4.82-7.83c26.93-7.25,53.86-14.47,80.8-21.66c5.09-1.36,7.51,0.03,8.86,5.14
		C746.85,628.92,748.21,634.84,748.93,637.81z M735.01,630.12c-24.02,6.44-47.87,12.83-71.89,19.26c0.6,2.22,1.01,3.91,1.52,5.56
		c3.52,11.45,14.06,17.84,25.63,15.06c10.65-2.56,21.23-5.45,31.74-8.56C735.49,657.47,741.26,643.68,735.01,630.12z"/>
	<path d="M825.99,625.49c0,9.22-5.65,17.65-14.36,20.22c-14.19,4.19-28.53,7.87-42.85,11.6c-4.25,1.11-6.63-0.47-7.81-4.75
		c-2.71-9.83-5.38-19.68-7.99-29.54c-1.27-4.83,0.17-7.33,5.01-8.64c18.13-4.91,36.27-9.79,54.42-14.62
		c4.83-1.28,7.25,0.17,8.55,5.05c1.7,6.37,3.27,12.77,4.88,19.16C826,624.58,825.97,625.22,825.99,625.49z M765.12,624.26
		c1.92,7.1,3.75,13.84,5.64,20.82c8.61-2.33,16.68-4.52,24.97-6.76c-1.97-7.22-3.81-13.96-5.67-20.77
		C781.52,619.85,773.53,622,765.12,624.26z M801.14,614.69c1.92,7.08,3.75,13.79,5.58,20.52c10.13-3.19,8.61-11.43,3.93-23.14
		C807.6,612.91,804.54,613.75,801.14,614.69z"/>
	<path d="M601.57,701.61c-9.45-0.05-17.7-5.71-20.43-14.06c-2.01-6.14-3.56-12.44-5.13-18.72c-0.86-3.42,0.97-5.88,5.03-6.99
		c13.69-3.74,27.4-7.4,41.1-11.1c4.45-1.2,8.88-2.45,13.34-3.6c5.07-1.32,7.67,0.1,9,5.03c2.69,9.97,5.33,19.96,7.93,29.96
		c0.98,3.76-0.42,6.44-4.17,7.46c-14.65,3.99-29.33,7.86-44.01,11.73C603.16,701.61,602,701.57,601.57,701.61z M615.12,686.76
		c8.39-2.25,16.5-4.44,24.96-6.71c-1.87-7-3.65-13.67-5.55-20.78c-8.47,2.27-16.66,4.46-25,6.69
		C611.45,673.07,613.25,679.77,615.12,686.76z M588.52,671.57c1.13,4.23,1.97,8,3.16,11.66c1.79,5.52,6.72,7.94,12.3,6.07
		c-1.78-6.65-3.57-13.32-5.44-20.31C595.11,669.87,592.02,670.66,588.52,671.57z"/>
	<path class="st0" d="M735.01,630.12c6.24,13.56,0.48,27.35-12.99,31.33c-10.51,3.1-21.09,6-31.74,8.56
		c-11.57,2.78-22.11-3.61-25.63-15.06c-0.51-1.66-0.92-3.34-1.52-5.56C687.14,642.95,710.99,636.55,735.01,630.12z M689.81,661.44
		c9.76-2.73,18.55-4.99,27.2-7.71c2.74-0.86,3.74-3.56,2.83-6.49c-0.9-2.89-3.09-4.62-5.95-3.93c-8.58,2.06-17.12,4.34-25.58,6.87
		c-2.89,0.87-4,3.81-2.9,6.43C686.23,658.59,688.42,660,689.81,661.44z"/>
	<path class="st0" d="M765.12,624.26c8.41-2.26,16.4-4.41,24.93-6.71c1.86,6.81,3.7,13.55,5.67,20.77
		c-8.28,2.24-16.36,4.43-24.97,6.76C768.87,638.1,767.04,631.36,765.12,624.26z"/>
	<path class="st0" d="M801.14,614.69c3.4-0.94,6.46-1.78,9.51-2.62c4.68,11.71,6.2,19.95-3.93,23.14
		C804.89,628.48,803.07,621.77,801.14,614.69z"/>
	<path class="st0" d="M615.12,686.76c-1.87-6.99-3.67-13.69-5.58-20.81c8.34-2.23,16.53-4.42,25-6.69
		c1.9,7.11,3.68,13.78,5.55,20.78C631.62,682.32,623.51,684.5,615.12,686.76z"/>
	<path class="st0" d="M588.52,671.57c3.49-0.9,6.58-1.7,10.01-2.58c1.87,6.99,3.66,13.66,5.44,20.31
		c-5.58,1.88-10.51-0.54-12.3-6.07C590.49,679.57,589.65,675.8,588.52,671.57z"/>
	<path d="M689.81,661.44c-1.38-1.45-3.58-2.85-4.4-4.83c-1.09-2.63,0.01-5.57,2.9-6.43c8.46-2.53,16.99-4.82,25.58-6.87
		c2.86-0.69,5.05,1.05,5.95,3.93c0.91,2.94-0.09,5.63-2.83,6.49C708.36,656.45,699.56,658.72,689.81,661.44z"/>
	<path d="M877.17,672.74c-1.45-5.67-2.99-11.32-4.52-16.97c-1.11-4.12-3.55-7.25-7.59-8.64c-2.21-0.76-3.05-2.07-3.7-4.09
		c-4.41-13.76-8.62-27.6-13.53-41.19c-2-5.52-5.13-10.79-8.6-15.56c-2.56-3.52-6.51-6.02-9.89-9.02c0.58-0.35,1.32-0.79,2.06-1.25
		c7.51-4.63,10.92-13.19,8.5-21.34c-2.53-8.53-9.95-14.69-18.83-13.27c-11.51,1.84-24.11,2.41-31.32,14.43
		c-6.49-10.8-12.57-21.42-19.15-31.72c-9.01-14.09-25.9-20.98-42.03-16.76c-40.25,10.54-80.48,21.19-120.57,32.34
		c-15.84,4.41-25.48,15.68-27.71,32c-1.3,9.47-0.75,19.19-0.97,28.8c-0.09,3.83-0.01,7.66-0.01,12.1c-6.1-3.41-11.62-4.2-17.45-2.5
		c-2.63,0.77-5.26,1.64-7.95,2.09c-9.29,1.54-16.16,6.07-19.46,15.21c0,2.75,0,5.5,0,8.25c2.56,7.59,7.19,13.05,15.4,14.68
		c1.86,0.37,3.8,0.35,6.04,0.54c-5.61,10.25-6.69,20.59-4.17,31.52c3.1,13.48,5.9,27.03,8.66,40.58c0.35,1.72,0.25,4.1-0.7,5.4
		c-2.84,3.87-3.5,7.93-2.38,12.39c1.18,4.71,2.48,9.4,3.76,14.08c3.09,11.36,7.94,14.21,19.53,11.54c0.2-0.05,0.46,0.12,0.84,0.24
		c1.08,3.87,2.02,7.87,3.32,11.75c2.59,7.73,10.16,12.19,18.04,10.26c12.58-3.09,25.12-6.38,37.57-9.97
		c7.89-2.28,12.22-10.3,10.44-18.3c-0.88-3.97-1.96-7.89-2.99-12.01c33.97-9.1,67.68-18.13,101.72-27.25
		c0,4.28,0.12,7.91-0.08,11.52c-0.06,1.03-0.79,2.33-1.63,2.97c-3.68,2.83-5.21,6.56-5.2,11.08c0.02,7,0,14,0,21
		c0,3.21,0,6.41,0,9.65c-2.2,0.27-3.95,0.34-5.62,0.73c-2.81,0.66-4.6,2.86-4.09,5.43c0.39,1.95,2.32,3.8,3.99,5.2
		c0.86,0.73,2.62,0.52,3.98,0.52c15.75,0.03,31.5,0.02,47.24,0.01c1.12,0,2.28,0.04,3.35-0.2c3.04-0.68,4.83-2.51,4.74-5.79
		c-0.09-3.1-1.87-4.81-4.78-5.36c-1.55-0.29-3.16-0.3-5.02-0.47c0-10.41-0.06-20.64,0.03-30.87c0.04-4.45-1.53-7.96-5-10.76
		c-0.84-0.68-1.69-1.93-1.72-2.94c-0.15-6.49-0.08-12.98-0.08-19.63c1.04-0.36,1.94-0.72,2.87-0.97c14.2-3.8,28.41-7.58,42.61-11.37
		c14.08-3.76,28.16-7.5,42.23-11.32C875.7,687.28,879.3,681.08,877.17,672.74z M805.68,556.59c4.75-1.42,9.55-2.7,14.37-3.9
		c3.88-0.97,7.63,1.2,8.87,4.93c1.21,3.66-0.57,7.84-4.46,9.04c-7.44,2.3-15.01,4.19-23.04,6.39c-0.69-3.08-1.6-5.79-1.84-8.57
		C799.26,560.79,801.69,557.78,805.68,556.59z M621.81,559.42c-14.88,3.62-19.73,6.04-19.58,24.24c0.12,13.87-0.28,27.75-0.45,41.62
		c0,0.24-0.1,0.48-0.25,1.21c-3.43,0.95-7.08,1.95-10.99,3.03c-0.15-0.95-0.33-1.53-0.33-2.1c0.2-16.12,0.35-32.25,0.66-48.37
		c0.3-15.39,8.05-25.33,22.91-29.33c38.99-10.47,77.98-20.92,117.01-31.24c11.15-2.95,23.33,1.17,29.44,10.72
		c9.81,15.34,18.89,31.14,28.5,47.1c-3.93,1.1-7.51,2.09-11.49,3.2c-0.69-1.13-1.39-2.25-2.07-3.39
		c-7.55-12.65-15.08-25.31-22.64-37.95c-5.05-8.44-10.73-10.82-20.15-8.3c-26.97,7.2-53.92,14.44-80.88,21.68
		C651.5,551.56,622.05,559.37,621.81,559.42z M654.37,562.53c26.96-7.22,53.94-14.38,80.87-21.7c3.48-0.95,5.59-0.21,7.42,2.92
		c7.5,12.81,15.17,25.53,23.09,38.82c-50.92,13.65-101.52,27.2-151.87,40.7c0-15.95-0.08-31.32,0.14-46.67
		c0.02-1.36,1.73-3.26,3.12-3.9c2.56-1.19,5.49-1.58,8.24-2.38 M554.65,639c-3.93,0.96-7.44-1.39-8.58-5.31
		c-1.01-3.44,0.61-7.31,4.22-8.5c5.41-1.79,10.95-3.3,16.53-4.47c3.91-0.82,7.4,1.61,8.72,5.43c0.72,2.09,1.16,4.28,1.86,6.91
		C569.53,635.13,562.12,637.19,554.65,639z M562.19,675.18c-1.92-15.49,6.78-28.04,21.87-32.1
		c54.01-14.54,108.05-28.99,162.08-43.45c19.01-5.09,37.98-10.38,57.08-15.08c13.31-3.28,27.59,3.99,32.38,16.84
		c5.68,15.27,10.33,30.93,15.52,46.69c-12.65,3.41-25.01,6.76-37.38,10.07C744.54,676.7,579.38,721,577.47,721.43
		c-1.69,0.38-3.35,0.88-5.38,1.43c-1.75-8.07-3.49-15.95-5.15-23.85C565.27,691.08,563.18,683.2,562.19,675.18z M768.18,716.3
		c0,5.76,0,11.08,0,16.86c-2.52,0-4.71,0-7.28,0c0-4.64-0.5-9.17,0.15-13.52C761.61,715.9,765.52,717.37,768.18,716.3z M595,772.86
		c-0.87-3.07-1.67-6.17-2.48-9.16c0.41-0.31,0.58-0.52,0.8-0.6c6.28-2.23,6.28-2.23,7.96,4.19c0.78,2.98,1.58,5.96,2.42,9.1
		C598.34,778.59,596.37,777.72,595,772.86z M614.9,773.87c-1.41-5.19-2.78-10.24-4.2-15.5c2.63-0.73,4.88-1.35,7.63-2.12
		c1.39,5.15,2.75,10.19,4.17,15.43C619.84,772.45,617.6,773.09,614.9,773.87z M633.55,768.52c-1.33-4.81-2.67-9.66-4.17-15.09
		c2.42-0.67,4.7-1.31,7.31-2.03c0.96,3.5,1.78,6.35,2.53,9.21C640.57,765.77,639.35,767.56,633.55,768.52z M668.32,730.95
		c-18.5,5.09-37.04,10.03-55.57,15.02c-11.91,3.2-23.83,6.37-35.72,9.66c-2.64,0.73-4.07,0.53-4.72-2.61
		c-1-4.87-2.48-9.65-3.87-14.44c-0.58-1.99-0.12-2.98,2-3.47c3.4-0.77,53.58-14.37,62.01-16.62c10.94-2.92,21.88-5.83,33.4-8.91
		c1.77,6.53,3.52,12.61,4.95,18.77C670.95,729.03,669.35,730.67,668.32,730.95z M682.45,727.29c-1.87-6.95-3.67-13.64-5.56-20.66
		c25.05-6.72,49.86-13.38,75.22-20.18c1.85,6.91,3.66,13.65,5.55,20.7C732.33,713.93,707.51,720.58,682.45,727.29z M775,777.42
		c-6.95,0-13.72,0-20.7,0c0-10.72,0-21.27,0-32.16c6.77,0,13.53,0,20.7,0C775,756.09,775,766.63,775,777.42z M863.48,678.67
		c-12.12,3.38-24.28,6.6-36.43,9.86c-18.65,5-37.3,10-55.96,14.99c-0.7,0.19-1.43,0.29-2.43,0.49c-1.83-6.8-3.63-13.48-5.53-20.52
		c32.7-8.76,65.12-17.45,98.08-26.28c1.74,6.5,3.49,12.7,4.92,18.97C866.28,676.8,864.56,678.37,863.48,678.67z"/>
</g>
<path d="M946.57,799.49H131.2c-3.87,0-7-3.13-7-7s3.13-7,7-7h815.37c3.87,0,7,3.13,7,7S950.43,799.49,946.57,799.49z"/>
</svg>
