<?xml version="1.0" encoding="utf-8"?>
<!-- Generator: Adobe Illustrator 23.0.0, SVG Export Plug-In . SVG Version: 6.00 Build 0)  -->
<svg version="1.1" id="Capa_1" xmlns="http://www.w3.org/2000/svg" xmlns:xlink="http://www.w3.org/1999/xlink" x="0px" y="0px"
	 viewBox="0 0 1080 1080" style="enable-background:new 0 0 1080 1080;" xml:space="preserve">
<style type="text/css">
	.st0{fill:#C02E39;}
	.st1{fill:#211915;}
	.st2{fill:none;stroke:#000000;stroke-width:9;stroke-linecap:round;stroke-linejoin:round;stroke-miterlimit:10;}
</style>
<path class="st0" d="M901.64,609.83l-0.92,6.82l20.12,6.12c0,0,3.58-4,3.58-4.07s-1.06-8.65-1.06-8.65L901.64,609.83z"/>
<path class="st1" d="M946.61,644.83c-3.25,0-6.68-0.69-7.65-0.9c-5.84-1.11-14.68-7.25-15.06-7.51c-0.01-0.01-4.62-3.11-6.92-4.61
	c-4.54-2.97-9.59-3.17-15.88-0.61l-0.92,0.37l-0.9-0.43c-0.59-0.28-0.92-0.4-1.11-0.44c-1.57-0.34-3.24-1.03-4.95-2.05l-1.88-1.12
	l0.68-1.23c-0.3-0.49-1.04-1.48-2.81-3.22c-2.97-2.92-3.48-3.55-4.36-4.68l-1.82-2.34l2.07-1.34c2.52-1.63,15.07-0.95,15.18-0.94
	c2.84,0.33,5.22,1.81,6.06,2.38c1.66,0.6,10.65,3.77,17.87,4.47l0.21,0.02l0.2,0.06c1.57,0.45,3.24,0.64,5.01,0.84
	c2.47,0.27,5,0.56,7.49,1.58c-0.07-0.51-0.15-1.03-0.24-1.56c-0.44-2.82-0.89-5.73-0.29-8.91l0.39-2.05l2.07,0.23
	c4.23,0.47,5.27,0.53,8.82,0.17c4.01-0.4,5.62-1.29,5.87-1.58l4.42-5.3l-0.44,6.89c-0.12,1.93-0.21,3.92-0.3,5.84
	c-0.19,4.37-0.39,8.9-1.04,13.33c-0.28,1.91-0.47,3.51-0.63,4.8c-0.67,5.37-0.94,7.59-4.69,9.15
	C949.86,644.66,948.26,644.83,946.61,644.83z M909.15,624.91c3.7,0,7.11,1.04,10.3,3.13c2.32,1.52,6.95,4.64,7,4.67
	c2.37,1.65,9.32,6.05,13.37,6.8l0.07,0.01c2.88,0.63,7.73,1.19,9.47,0.46c1.31-0.54,1.33-0.55,1.95-5.54
	c0.16-1.31,0.37-2.94,0.65-4.89c0.61-4.22,0.8-8.63,0.99-12.89c0.03-0.66,0.06-1.34,0.09-2.01c-1.55,0.45-3.23,0.7-4.7,0.85
	c-3.19,0.32-4.67,0.33-7.51,0.06c-0.04,1.73,0.24,3.49,0.52,5.32c0.15,0.98,0.31,2,0.42,3.03c0.08,0.72,0.31,2.93-1.34,4.04
	c-1.63,1.1-3.49,0.11-4.1-0.22c-2.14-1.15-4.59-1.42-7.19-1.71c-1.81-0.2-3.69-0.41-5.56-0.93c-8.5-0.86-18.65-4.65-19.08-4.81
	l-0.3-0.11l-0.26-0.19c-0.01-0.01-2-1.46-4.18-1.72c-1.07-0.11-5.69-0.17-9.03-0.03c0.44,0.44,0.97,0.97,1.64,1.64
	c2.09,2.06,3.63,3.85,4.14,5.45c0.94,0.47,1.84,0.81,2.65,0.98l0.06,0.01c0.33,0.08,0.69,0.2,1.08,0.35
	C903.44,625.5,906.37,624.91,909.15,624.91z M887.38,618.6L887.38,618.6L887.38,618.6z"/>
<path d="M367.34,410.83c-0.02,0-0.03,0-0.05,0c-20.49-0.04-40.87-0.04-60.55-0.01c-5.21,0.02-9.88-1.51-14.31-4.63
	c-5.59-3.94-10.33-7.12-15.34-9.89c-3.54-1.95-7.65-1.93-12.01-1.91c-1.6,0.01-3.25,0.02-4.88-0.08c-5.9-0.34-11.94-0.46-17.78-0.57
	c-2.68-0.05-5.36-0.1-8.04-0.18c-6.22-0.17-9.39-2.78-10.62-8.74c-0.34-1.67-0.55-3.31-0.78-5.21c-0.11-0.9-0.23-1.86-0.38-2.91
	c-0.1-0.75,0.13-1.51,0.65-2.07c0.52-0.56,1.26-0.85,2.01-0.81c74.01,4.43,149.25,4.43,223.63,0c0.76-0.05,1.52,0.26,2.03,0.83
	c0.52,0.57,0.74,1.35,0.62,2.11c-0.18,1.12-0.34,2.15-0.48,3.13c-0.31,2.1-0.59,3.92-0.99,5.77c-1.07,4.91-4.45,7.71-9.53,7.88
	l-4.95,0.17c-9.92,0.34-20.17,0.68-30.27,0.91c-4.6,0.1-8.47,1.28-11.85,3.58c-1.63,1.12-3.3,2.21-4.92,3.26
	c-2.39,1.56-4.85,3.17-7.17,4.85C377.19,409.35,372.6,410.83,367.34,410.83z M333.89,405.73c11.04,0,22.21,0.01,33.41,0.03
	c0.01,0,0.03,0,0.04,0c4.15,0,7.77-1.16,11.07-3.56c2.42-1.75,4.94-3.4,7.37-4.99c1.59-1.04,3.24-2.12,4.83-3.2
	c4.21-2.88,8.99-4.34,14.6-4.47c10.07-0.22,20.31-0.57,30.21-0.91l4.95-0.17c2.75-0.09,4.17-1.26,4.74-3.89
	c0.37-1.69,0.63-3.43,0.93-5.44c0-0.02,0.01-0.05,0.01-0.07c-72.54,4.2-145.85,4.2-218.04,0c0.22,1.76,0.41,3.29,0.71,4.74
	c0.76,3.67,1.89,4.59,5.79,4.69c2.67,0.07,5.33,0.12,8,0.18c5.89,0.12,11.98,0.23,17.98,0.58c1.48,0.09,2.98,0.08,4.57,0.07
	c4.81-0.02,9.78-0.05,14.48,2.55c5.2,2.87,10.08,6.15,15.81,10.18c3.59,2.53,7.19,3.71,11.35,3.71c0.01,0,0.02,0,0.03,0
	C315.66,405.74,324.73,405.73,333.89,405.73z"/>
<path d="M250.4,508.53c-0.65,0-1.28-0.25-1.75-0.7c-0.5-0.48-0.79-1.14-0.79-1.83v-33.91c0-1.4,1.14-2.54,2.54-2.54l6,0
	c4.61,0,9.13,0,13.64,0c1.24,0,2.48,0.02,3.72,0.04c2.54,0.04,5.16,0.09,7.68-0.05c4.46-0.25,8.56,0.85,12.19,3.27
	c3.82,2.54,8.15,3.65,14.04,3.6c20.42-0.19,40.7-0.12,59.72-0.03c5.26,0.02,8.83-0.86,11.91-2.96c4.16-2.83,8.95-4.07,15.09-3.9
	c6.78,0.18,13.71,0.14,20.41,0.11c2.85-0.02,5.7-0.03,8.56-0.03c1.15,0,2.16,0.78,2.45,1.89c0.03,0.12,0.07,0.23,0.1,0.33
	c0.12,0.37,0.28,0.88,0.28,1.5c0,4.37,0,7.61,0,10.43c0,6.17,0,10.25,0.05,19.67c0,0.62,0.01,2.49-1.32,3.8
	c-1.31,1.29-3.1,1.25-3.68,1.24l-2.78-0.06c-4.86-0.1-9.88-0.2-14.8-0.2c-46.04-0.02-93.65-0.02-145.56,0c-1.61,0-3.25,0.1-4.98,0.2
	c-0.85,0.05-1.71,0.1-2.6,0.14C250.48,508.53,250.44,508.53,250.4,508.53z M335.2,503.09c23.4,0,46.11,0,68.46,0.01
	c4.98,0,10.02,0.11,14.9,0.2l2.6,0.05c-0.05-9.39-0.05-13.47-0.05-19.63c0-2.52,0-5.38,0-9.07c-2.1,0.01-4.2,0.02-6.3,0.03
	c-6.74,0.04-13.71,0.08-20.57-0.11c-5.09-0.14-8.83,0.8-12.1,3.03c-5.05,3.44-10.56,3.86-14.79,3.83c-19-0.09-39.26-0.16-59.65,0.03
	c-6.85,0.07-12.23-1.35-16.89-4.45c-2.74-1.82-5.71-2.62-9.1-2.43c-2.7,0.15-5.42,0.11-8.04,0.06c-1.21-0.02-2.43-0.04-3.64-0.04
	c-4.51,0-9.03,0-13.64,0l-3.47,0v28.69c1.77-0.11,3.44-0.2,5.16-0.2C284.81,503.1,310.4,503.09,335.2,503.09z"/>
<path d="M321.75,464.2c-18.73,0-37.66-0.69-56.02-1.36l-2-0.07c-7.35-0.27-14.77-0.89-21.95-1.5c-4.15-0.35-8.44-0.71-12.65-1
	c-7.08-0.48-11.91-4.45-13.97-11.48c-2.53-8.62-4.34-15.68-5.69-22.22c-2.85-13.84-3.9-26.48-3.22-38.66
	c0.24-4.27,1.33-8.42,2.38-12.42c0.36-1.35,1.74-2.16,3.1-1.81c1.35,0.36,2.16,1.74,1.81,3.1c-0.99,3.76-2.01,7.65-2.22,11.42
	c-0.65,11.73,0.37,23.95,3.13,37.36c1.32,6.39,3.09,13.33,5.58,21.81c1.45,4.95,4.55,7.52,9.45,7.85c4.25,0.29,8.56,0.65,12.73,1
	c7.12,0.6,14.49,1.22,21.71,1.48l2,0.07c19.99,0.73,40.65,1.48,60.94,1.34c27.11-0.19,54.69-0.96,81.35-1.7l10.92-0.3
	c5.25-0.14,10.62-0.62,15.82-1.08c3.06-0.27,6.22-0.55,9.34-0.76c5.06-0.34,8.17-2.87,9.78-7.96c6.63-20.85,9.45-40.2,8.62-59.16
	c-0.06-1.46-0.26-2.93-0.5-4.43c-0.88-0.38-1.5-1.24-1.53-2.26c-0.02-0.92-0.12-1.85-0.21-2.84c-0.05-0.48-0.09-0.96-0.13-1.44
	c-0.11-1.31,0.81-2.49,2.11-2.71l0.71-0.12c0.67-0.11,1.35,0.05,1.9,0.45c0.55,0.4,0.92,1,1.02,1.67c0.18,1.14,0.4,2.32,0.61,3.46
	c0.48,2.59,0.98,5.27,1.1,8.01c0.86,19.57-2.03,39.5-8.85,60.92c-2.24,7.03-7.17,11-14.27,11.48c-3.07,0.21-6.21,0.48-9.24,0.75
	c-5.27,0.47-10.72,0.95-16.12,1.09l-10.92,0.3c-26.69,0.74-54.3,1.51-81.46,1.7C325.18,464.19,323.46,464.2,321.75,464.2z"/>
<path d="M211.67,508.45c-1.39,0-2.53-1.12-2.54-2.52c-0.04-6.18-0.02-12.14,0-17.9c0.08-23.84,0.16-44.44-3.77-68.76
	c-0.22-1.38,0.72-2.68,2.1-2.91c1.38-0.22,2.68,0.72,2.91,2.1c3.99,24.74,3.92,45.52,3.84,69.59c-0.02,5.75-0.04,11.69,0,17.85
	c0.01,1.4-1.12,2.54-2.52,2.55C211.68,508.45,211.68,508.45,211.67,508.45z"/>
<path d="M459.77,373.16c-0.9,0-1.78-0.48-2.24-1.34c-0.47-0.87-0.97-1.72-1.51-2.62c-1.25-2.09-2.54-4.26-3.32-6.7
	c-1.29-3.99-3.48-6.91-6.7-8.92c-4.47-2.8-6.13-6.94-7.34-10.6c-3.46-10.53-7.22-21.16-10.85-31.45l-1.33-3.77
	c-1.81-5.13-5.56-7.84-11.46-8.29c-9.78-0.75-19.34-1.43-28.79-1.6c-22.96-0.42-43.67-0.75-64.7-0.57
	c-14.02,0.12-28.29,0.63-42.09,1.12c-5.65,0.2-11.3,0.4-16.95,0.57c-8.82,0.27-13.83,3.82-16.25,11.51
	c-1.83,5.82-3.86,11.68-5.81,17.34c-1.74,5.03-3.54,10.23-5.19,15.37c-1.03,3.22-2.79,7.33-7.23,10.51
	c-2.14,1.53-4.18,3.82-5.75,6.44c-1.5,2.51-2.7,5.29-3.86,7.98c-0.49,1.14-0.99,2.31-1.51,3.43c-0.59,1.27-2.09,1.83-3.36,1.24
	c-1.27-0.59-1.83-2.09-1.24-3.36c0.49-1.06,0.96-2.15,1.46-3.31c1.22-2.84,2.49-5.78,4.16-8.58c1.92-3.21,4.46-6.04,7.15-7.96
	c2.59-1.85,4.14-4.15,5.36-7.94c1.67-5.19,3.48-10.42,5.22-15.48c1.95-5.63,3.96-11.44,5.77-17.2c3.04-9.65,10.08-14.72,20.93-15.06
	c5.64-0.18,11.28-0.37,16.92-0.57c13.83-0.49,28.14-0.99,42.22-1.12c21.09-0.19,41.84,0.15,64.83,0.57
	c9.58,0.18,19.22,0.87,29.08,1.62c7.9,0.6,13.38,4.64,15.86,11.66l1.33,3.77c3.64,10.31,7.4,20.98,10.88,31.56
	c1.21,3.69,2.46,6.16,5.21,7.88c4.28,2.68,7.17,6.49,8.83,11.67c0.61,1.89,1.7,3.72,2.85,5.66c0.54,0.91,1.1,1.85,1.62,2.82
	c0.66,1.23,0.2,2.77-1.03,3.43C460.59,373.06,460.18,373.16,459.77,373.16z"/>
<path d="M462.45,508.48C462.45,508.48,462.45,508.48,462.45,508.48c-1.4,0-2.54-1.14-2.54-2.54c0.01-6.69,0.01-13.11,0-19.35
	c-0.02-23.53-0.03-43.85,0.66-68.01c0.04-1.4,1.21-2.51,2.61-2.46c1.4,0.04,2.5,1.21,2.46,2.61c-0.68,24.08-0.67,44.37-0.65,67.86
	c0,6.25,0.01,12.67,0,19.37C464.99,507.35,463.85,508.48,462.45,508.48z"/>
<path d="M244.89,345.18c-0.77,0-1.51-0.35-1.99-0.96c-0.49-0.62-0.67-1.44-0.47-2.21l9.52-36.62c0.25-0.96,1.03-1.68,2.01-1.86
	c0.69-0.12,69.89-12.19,166.41,1.27c1.02,0.14,1.85,0.88,2.1,1.87l9.19,35.32c0.2,0.77,0.03,1.59-0.47,2.22
	c-0.5,0.62-1.25,0.98-2.05,0.96c-59.27-1.56-119.52-1.55-184.2,0.01C244.93,345.18,244.91,345.18,244.89,345.18z M256.44,308.26
	l-8.26,31.76c62.27-1.46,120.49-1.46,177.73-0.02L418,309.59C331.23,297.73,267.19,306.59,256.44,308.26z"/>
<path d="M275.64,446.41c-0.58,0-1.17-0.2-1.65-0.61c-1.06-0.91-1.19-2.51-0.28-3.57c0.15-0.18,0.3-0.36,0.45-0.54
	c0.35-0.42,0.72-0.86,1.12-1.29l1.21-1.31c3.18-3.43,6.47-6.98,9.72-10.45c4.31-4.6,9.54-6.93,15.54-6.93c0,0,0,0,0.01,0
	c12.57,0,25.13,0,37.7,0c10.9,0,21.8,0,32.7,0c6.15,0,11.39,2.31,15.58,6.85c2.75,2.99,5.51,5.97,8.27,8.95l3.56,3.85
	c0.89,0.96,0.9,2.44,0.02,3.42l-0.35,0.39c-0.94,1.04-2.54,1.13-3.58,0.19c-0.49-0.44-0.77-1.03-0.83-1.64l-2.55-2.76
	c-2.76-2.99-5.52-5.97-8.28-8.96c-3.24-3.51-7.11-5.22-11.86-5.22c-10.9,0-21.8,0-32.7,0c-12.57,0-25.14,0-37.7,0c0,0,0,0,0,0
	c-4.6,0-8.48,1.74-11.84,5.33c-3.25,3.46-6.53,7.01-9.7,10.43l-1.21,1.31c-0.31,0.34-0.62,0.71-0.95,1.1
	c-0.16,0.19-0.32,0.39-0.49,0.58C277.07,446.11,276.36,446.41,275.64,446.41z"/>
<path d="M269.73,447.12c-0.03,0-0.06,0-0.08,0c-2.57-0.08-5.15-0.16-7.72-0.23c-6.38-0.19-12.97-0.38-19.46-0.69
	c-4.7-0.22-8.13-3.16-8.94-7.66c-1.8-10.03-3.01-17.75-3.91-25.03c-0.3-2.4,0.32-4.59,1.75-6.19c1.46-1.63,3.66-2.51,6.16-2.46
	c10.5,0.18,19.11,0.54,27.09,1.13c3.52,0.26,6.87,1.76,9.4,3.03c3.3,1.66,6.51,3.55,9.61,5.38c1.3,0.77,2.59,1.53,3.9,2.28
	c1.19,0.69,1.62,2.2,0.96,3.41l-0.24,0.45c-0.67,1.23-2.21,1.68-3.44,1.02c-0.52-0.28-0.91-0.73-1.12-1.24
	c-0.88-0.51-1.76-1.03-2.64-1.55c-3.03-1.79-6.16-3.64-9.32-5.22c-1.94-0.98-4.84-2.3-7.5-2.5c-7.88-0.59-16.4-0.94-26.8-1.12
	c-1.01-0.01-1.83,0.26-2.3,0.77c-0.55,0.62-0.57,1.52-0.49,2.17c0.9,7.18,2.09,14.82,3.87,24.76c0.49,2.75,2.55,3.41,4.18,3.49
	c6.45,0.3,13.02,0.5,19.37,0.68c2.58,0.08,5.16,0.15,7.73,0.23c1.4,0.04,2.5,1.22,2.45,2.62
	C272.21,446.04,271.09,447.12,269.73,447.12z"/>
<path d="M419.72,446.42c-2.58,0-5.15-0.01-7.68-0.03c-2.56-0.01-5.13-0.03-7.69-0.03c-1.19,0-2.22-0.82-2.47-1.98l-0.11-0.51
	c-0.31-1.37,0.55-2.72,1.92-3.03c0.75-0.17,1.5,0.02,2.07,0.45c2.1,0,4.21,0.01,6.31,0.03c6.12,0.03,12.44,0.06,18.63-0.09
	c3.11-0.08,4.5-1.31,5.15-4.55c1.27-6.38,2.41-13.29,3.49-21.15c0.33-2.42,0.19-4.05-0.41-4.73c-0.61-0.69-2.16-1.02-4.64-0.99
	c-4.1,0.04-8.28,0.21-12.32,0.37c-2.67,0.11-5.44,0.21-8.16,0.29c-7.89,0.21-14.18,4.24-20.81,8.53c-0.14,0.7-0.56,1.33-1.23,1.71
	c-1.27,0.73-2.66,0.96-3.59,1.07c-1.18,0.14-2.3-0.55-2.7-1.67c-0.4-1.12,0.04-2.37,1.05-3c1.19-0.74,2.37-1.51,3.56-2.27
	c6.98-4.52,14.21-9.19,23.59-9.45c2.7-0.07,5.44-0.18,8.1-0.29c4.08-0.16,8.3-0.33,12.47-0.37c2.82-0.03,6.33,0.25,8.5,2.71
	c2.17,2.46,2.01,5.98,1.63,8.77c-1.09,7.95-2.25,14.97-3.54,21.45c-1.11,5.59-4.47,8.5-9.99,8.63
	C427.13,446.4,423.41,446.42,419.72,446.42z"/>
<path d="M361.9,449.21c-0.5,0-1.01-0.01-1.51-0.02c-16.65-0.42-33.14-0.25-48.6-0.04c-8.06,0.11-14.94-1.38-21.03-4.55
	c-1.22-0.63-2.53-1.15-3.92-1.7c-0.2-0.08-0.41-0.16-0.61-0.24c-0.6,0.15-1.25,0.09-1.84-0.23c-1.23-0.67-1.69-2.21-1.02-3.44
	l0.24-0.44c0.62-1.14,2.01-1.63,3.21-1.13c0.62,0.26,1.25,0.51,1.88,0.76c1.45,0.57,2.95,1.16,4.4,1.92
	c5.4,2.81,11.31,4.08,18.62,3.98c15.51-0.21,32.06-0.38,48.8,0.04c8.35,0.21,15.91-1.48,23.14-5.18c0.81-0.41,1.62-0.75,2.4-1.08
	c0.28-0.12,0.56-0.23,0.84-0.35c0.75-0.32,1.39-0.2,1.69-0.14c0.09,0.02,0.22,0.04,0.41,0.07c1.39,0.21,2.34,1.5,2.13,2.88
	c-0.21,1.38-1.5,2.34-2.88,2.13c-0.01,0-0.01,0-0.02,0c-0.08,0.03-0.15,0.06-0.23,0.1c-0.72,0.3-1.41,0.58-2.04,0.91
	C378.41,447.32,370.52,449.21,361.9,449.21z"/>
<path d="M421.52,453.27c-3.08,0-6.14-0.02-9.16-0.03c-2.96-0.02-5.88-0.03-8.76-0.03c-1.4,0-2.54-1.14-2.54-2.54
	s1.14-2.54,2.54-2.54c2.89,0,5.83,0.02,8.79,0.03c7.41,0.04,15.06,0.08,22.66-0.13c3.35-0.09,5.79-1.99,6.86-5.35
	c3.88-12.13,5.77-23.34,5.76-34.27c0-2.06-0.42-3.52-1.25-4.34c-0.76-0.75-2.03-1.11-3.82-1.1c-16.2,0.15-28.54,1.25-39.99,3.54
	c-1.37,0.27-2.71-0.61-2.98-1.99s0.61-2.71,1.99-2.98c11.78-2.36,24.4-3.48,40.94-3.64c3.19-0.03,5.68,0.84,7.43,2.57
	c1.82,1.81,2.75,4.48,2.75,7.94c0.01,11.46-1.95,23.18-6,35.82c-1.73,5.4-6.05,8.72-11.55,8.87
	C430.62,453.24,426.05,453.27,421.52,453.27z"/>
<path d="M261.15,453.75c-2.15,0-4.32-0.01-6.47-0.04c-3.93-0.06-7.91-0.21-11.76-0.36l-2.92-0.11c-6.43-0.24-11-3.61-12.87-9.5
	c-3.72-11.72-5.7-23.39-5.88-34.68c-0.06-3.72,0.89-6.58,2.82-8.5c1.9-1.88,4.69-2.78,8.28-2.69c6.64,0.19,13.51,0.38,20.36,0.89
	c6.86,0.52,13.62,1.46,20.08,2.8c1.37,0.28,2.25,1.63,1.97,3c-0.29,1.37-1.62,2.25-3,1.97c-6.25-1.3-12.79-2.21-19.43-2.71
	c-6.74-0.51-13.54-0.7-20.12-0.88c-2.15-0.06-3.7,0.35-4.58,1.22c-0.91,0.9-1.36,2.52-1.32,4.81c0.18,10.8,2.07,21.99,5.64,33.23
	c1.22,3.85,3.91,5.81,8.22,5.96l2.92,0.11c3.82,0.15,7.77,0.3,11.65,0.35c3.76,0.06,7.6,0.04,11.31,0.03c0.5,0,0.99,0,1.49,0
	c0.47-0.39,1.09-0.61,1.75-0.58c0.57,0.03,1.1,0.12,1.57,0.2c0.18,0.03,0.36,0.06,0.54,0.09c1.34,0.19,2.29,1.4,2.16,2.75
	l-0.03,0.31c-0.12,1.3-1.22,2.3-2.52,2.3c-1.64,0-3.29,0.01-4.93,0.01C264.46,453.74,262.81,453.75,261.15,453.75z"/>
<path d="M218.23,353.57c-0.14,0-0.28-0.01-0.43-0.04l-4.68-0.79c-3.77-0.64-7.55-1.28-11.31-1.94c-3.91-0.69-6.23-3.44-6.36-7.55
	c-0.26-8.53,0.14-13.42,11.47-14.61c1.74-0.18,3.52-0.41,5.24-0.64c2.12-0.27,4.31-0.56,6.49-0.76c4.86-0.46,8.33,0.48,10.59,2.86
	c3.19,3.35,2.86,8.59,2.33,12.23c-0.23,1.6-0.95,3.16-2.27,4.91c-0.84,1.12-2.43,1.34-3.55,0.49c-1.12-0.84-1.34-2.43-0.49-3.55
	c0.77-1.02,1.19-1.86,1.3-2.57c0.59-4.08,0.27-6.7-0.99-8.01c-1.11-1.16-3.27-1.6-6.44-1.3c-2.1,0.2-4.24,0.47-6.32,0.74
	c-1.75,0.23-3.56,0.46-5.36,0.65c-4.67,0.49-5.8,1.4-6.27,2.15c-0.78,1.23-0.77,3.79-0.66,7.26c0.06,1.95,0.87,2.48,2.16,2.71
	c3.76,0.66,7.52,1.3,11.29,1.94l3.02,0.51c0.57-0.38,1.3-0.53,2.03-0.35c1.36,0.34,2.18,1.72,1.84,3.08l-0.17,0.67
	C220.4,352.8,219.37,353.57,218.23,353.57z"/>
<path d="M457,353.57c-1.14,0-2.17-0.77-2.46-1.92l-0.17-0.67c-0.34-1.36,0.48-2.74,1.84-3.08c0.72-0.18,1.45-0.04,2.03,0.35
	l3.02-0.51c3.76-0.64,7.53-1.28,11.29-1.94c1.29-0.23,2.1-0.76,2.16-2.71c0.11-3.48,0.12-6.03-0.66-7.26
	c-0.47-0.74-1.61-1.66-6.27-2.15c-1.8-0.19-3.61-0.42-5.36-0.65c-2.08-0.27-4.22-0.54-6.32-0.74c-3.17-0.3-5.33,0.14-6.44,1.3
	c-1.25,1.32-1.58,3.94-0.99,8.01c0.1,0.71,0.53,1.56,1.3,2.57c0.84,1.12,0.62,2.71-0.49,3.55c-1.12,0.84-2.71,0.62-3.55-0.49
	c-1.32-1.74-2.04-3.3-2.27-4.91c-0.53-3.65-0.86-8.88,2.33-12.23c2.27-2.38,5.73-3.31,10.59-2.86c2.18,0.21,4.37,0.49,6.49,0.76
	c1.72,0.22,3.5,0.45,5.24,0.64c11.33,1.19,11.73,6.08,11.47,14.61c-0.13,4.11-2.44,6.86-6.36,7.55c-3.77,0.66-7.54,1.3-11.31,1.94
	l-4.68,0.79C457.29,353.56,457.14,353.57,457,353.57z"/>
<path d="M397.5,374.05c-0.25,0-0.51-0.04-0.77-0.12c-1.33-0.42-2.07-1.85-1.65-3.18c5.32-16.75,19.19-25.21,38.05-23.2
	c1.39,0.15,2.4,1.4,2.25,2.79c-0.15,1.39-1.4,2.4-2.79,2.25c-16.49-1.75-28.09,5.25-32.68,19.7
	C399.57,373.36,398.57,374.05,397.5,374.05z"/>
<path d="M275.11,372.34c-0.67,0-1.35-0.27-1.84-0.79c-0.7-0.74-0.87-1.79-0.51-2.68c-0.45-0.67-0.9-1.34-1.36-2.01
	c-1.91-2.85-3.89-5.79-6.03-8.46c-1.04-1.29-2.76-2.48-4.6-3.19c-6.47-2.49-13.61-2.61-19.8-2.54c-0.01,0-0.02,0-0.03,0
	c-1.39,0-2.52-1.12-2.53-2.5c-0.02-1.4,1.1-2.55,2.5-2.57c6.66-0.08,14.37,0.07,21.68,2.88c2.69,1.03,5.14,2.76,6.74,4.75
	c2.28,2.84,4.32,5.87,6.29,8.81c0.8,1.19,1.6,2.38,2.41,3.56c0.71,1.03,0.57,2.43-0.34,3.29l-0.82,0.78
	C276.36,372.11,275.73,372.34,275.11,372.34z"/>
<path d="M424.04,435.75c-5.43,0-10.05-4.56-10.1-9.98c-0.02-2.6,1.08-5.21,3.01-7.15c1.92-1.92,4.45-3.02,7.03-3.01
	c5.46,0.03,10.1,4.6,10.12,10c0.03,5.37-4.65,10.12-10.01,10.15C424.08,435.75,424.06,435.75,424.04,435.75z M423.94,422.74
	c-0.79,0-1.51,0.27-2.04,0.78c-0.54,0.52-0.84,1.25-0.84,2.06c-0.01,1.79,1.13,2.98,2.91,3.02c0.86,0.02,1.61-0.25,2.15-0.77
	c0.54-0.52,0.83-1.24,0.84-2.08l0,0c0.03-1.8-1.09-2.95-2.92-3.01C424.01,422.74,423.98,422.74,423.94,422.74z"/>
<path d="M250.02,435.74c-5.37,0-9.98-4.49-10.1-9.89c-0.06-2.56,1-5.15,2.9-7.1c1.89-1.94,4.45-3.09,7.03-3.15
	c2.58-0.06,5.17,0.98,7.1,2.84c1.94,1.88,3.07,4.46,3.1,7.07l0,0c0.06,5.54-4.36,10.13-9.86,10.22
	C250.13,435.74,250.08,435.74,250.02,435.74z M250.03,422.71c-1.73,0-2.96,1.18-2.99,2.89c-0.03,1.73,1.15,2.97,2.87,3.02
	c0.93,0.02,1.77-0.28,2.36-0.87c0.56-0.54,0.85-1.27,0.85-2.09c0-1.53-1.46-2.93-3.06-2.94
	C250.05,422.71,250.04,422.71,250.03,422.71z"/>
<g>
	<path d="M794.4,754.73c-4.76-0.25-9.67-0.19-14.41-0.13c-2.25,0.03-4.58,0.06-6.87,0.05c-0.65,0-1.25-0.06-1.82-0.11
		c-0.23-0.02-0.46-0.04-0.69-0.06c-1.1-0.08-2.02-0.86-2.28-1.93l-0.21-0.88c-0.3-1.24,0.36-2.5,1.55-2.96
		c0.72-0.28,1.46-0.61,2.23-0.97c1.88-0.86,3.83-1.75,6.02-2.03c4.5-0.59,9.06-0.73,13.48-0.88c0.72-0.02,1.45-0.05,2.17-0.07
		c5.44-0.19,7.72-2.22,8.15-7.26l0.16-1.91c0.51-5.93,1.04-12.06,0.69-17.94c-0.34-5.65-1.31-11.43-2.24-17.02
		c-0.32-1.93-0.64-3.85-0.94-5.78c-0.34-2.21-1.4-3.15-3.78-3.33c-1.59-0.12-3.15-0.35-4.66-0.57c-1.74-0.26-3.39-0.5-5.04-0.58
		c-9.6-0.46-16.98-5.01-21.95-13.52c-0.29-0.49-0.56-0.99-0.84-1.48c-0.72-1.29-1.41-2.5-2.2-3.6c-0.2-0.28-0.58-0.54-0.75-0.61
		c-6.83-0.71-12.56-1.25-18.34-1.58c-27.27-1.55-51.07-2.85-72.79-3.97c-13.02-0.67-26.27-1.29-39.08-1.9
		c-7.69-0.36-15.37-0.72-23.06-1.1c-2.63-0.13-5.29-0.31-7.85-0.48c-1.2-0.08-2.39-0.16-3.59-0.24c-1.37-0.09-2.42-1.25-2.37-2.63
		c0.05-1.37,1.21-2.47,2.56-2.44l4.97,0.06c57.09,0.7,116.02,1.42,174.21,6.17c-1.07-0.58-2.16-1.12-3.29-1.59
		c-11.37-4.76-23.69-6.85-35.6-8.88c-13.79-2.35-27.79-4.24-39.66-5.78c-10.61-1.38-21.44-2.55-31.92-3.69
		c-2.2-0.24-4.39-0.48-6.59-0.72c-4.33-0.47-8.76-0.88-13.04-1.26c-1.98-0.18-3.96-0.36-5.94-0.55c-1.38-0.13-2.39-1.34-2.29-2.72
		l0.02-0.27c0.09-1.25,1.08-2.24,2.33-2.34l9.45-0.75c-5.1-3.32-10.19-6.64-15.29-9.97c-11.5-7.49-22.99-14.98-34.47-22.49
		c-8.32-5.44-17.35-9.05-27.6-11.04c-11.82-2.29-24.49-3.32-41.05-3.32c-0.06,0-0.12,0-0.19,0l-29.92,0.01
		c-26.47,0.01-53.84,0.02-80.76,0.06c-5.32,0.01-8.6,2.62-9.47,7.55c-0.31,1.75-0.43,3.55-0.56,5.46l-0.45,6.45
		c-0.56,7.96-1.14,16.19-1.61,24.29c-0.29,4.95-0.5,9.99-0.69,14.87c-0.05,1.35-0.11,2.71-0.17,4.06l64.48,2.24
		c1.39,0.05,2.49,1.21,2.45,2.61l-0.03,1.08c-0.04,1.37-1.16,2.46-2.53,2.46h-64.76v55.08c0,1.38-1.1,2.5-2.48,2.53l-0.98,0.02
		c-1.38,0.04-2.54-1.05-2.59-2.44l-2.1-55.27H224.78c0.01,1.52,0.01,3.03,0.02,4.54c0.04,6.18,0.07,12.03-0.14,18.01
		c-0.06,1.86-0.49,6.46-3.05,9.18c-3.42,3.64-7.21,6.98-10.86,10.2c-1.42,1.25-2.88,2.54-4.29,3.83c-1.02,0.93-2.6,0.87-3.55-0.14
		l-0.69-0.73c-0.09-0.1-0.18-0.2-0.25-0.31c-0.67,2.42-1.51,4.22-2.54,5.43c-0.68,0.8-1.79,1.1-2.78,0.75
		c-0.99-0.35-1.66-1.29-1.68-2.34c-0.11-5.79-0.23-11.57-0.34-17.33c-0.29-14.76-0.59-30.02-0.84-44.99
		c-0.12-7.15,2.76-10.24,9.94-10.68c0.71-0.04,1.38-0.04,2.03-0.03c0.22,0,0.44,0,0.66,0l192.01,0l0.48-8.64
		c0.53-9.45,1.08-19.23,1.59-28.84c0.49-9.19,5.24-15.42,13.03-17.09c3.07-0.66,6.23-0.75,8.63-0.75
		c29.17-0.06,60.27-0.12,91.56-0.06c1.86,0,3.72,0,5.58,0c16.28-0.01,33.1-0.02,49.61,2.89c13.51,2.38,23.84,6.03,32.5,11.49
		c11.66,7.35,23.49,14.85,34.93,22.11c9.82,6.23,19.65,12.46,29.48,18.67c0.5,0.32,1.27,0.56,2.05,0.65
		c4.24,0.49,8.56,0.95,12.75,1.39c7.84,0.83,15.95,1.69,23.92,2.79c15.64,2.16,28.77,4.13,42.01,6.73
		c10.48,2.06,20.8,5.15,29.51,7.9c6.97,2.2,12.48,6.39,15.94,12.14c2.91,4.84,5.46,9.94,7.92,14.88l1.08,2.16
		c0.56,1.12,1.04,1.63,2.06,2.22c2.01,1.16,3.88,3.24,5.12,5.71c1.09,2.18,1.65,4.5,2.19,6.75c0.08,0.34,0.16,0.67,0.24,1.01
		c2.97,12.13,3.29,25.1,1.02,42.05c-0.98,7.31-6.32,14.46-16.1,14.46C795.13,754.76,794.77,754.75,794.4,754.73z M795.58,749.69
		c7.09-0.04,10.32-5.15,10.98-10.06c0.01-0.05,0.01-0.1,0.02-0.15C805.58,745.52,801.89,748.95,795.58,749.69z M805.33,699.78
		c0.96,5.72,1.94,11.63,2.3,17.55c0.38,6.26-0.17,12.57-0.7,18.69l-0.16,1.9c-0.01,0.08-0.01,0.17-0.02,0.25
		c1.97-15.58,1.62-27.57-1.11-38.71c-0.08-0.34-0.17-0.69-0.25-1.03c-0.25-1.05-0.5-2.08-0.79-3.05
		C804.84,696.84,805.09,698.31,805.33,699.78z M203.86,658.56c0,1.88,0,3.76,0,5.63c0,5.99-0.01,11.93,0.01,17.86
		c0.02,7.22-0.33,13.01-1.07,17.45c0.71-0.84,1.42-1.67,2.13-2.51c2.11-2.5,4.3-5.08,6.5-7.58c2.63-2.99,3.78-6,3.61-9.45
		c-0.15-3.19-0.18-6.42-0.2-9.54l-0.01-0.96c-0.02-3.13-0.02-6.31-0.01-9.39c0-0.5,0-1.01,0-1.51H203.86z M797.24,686.61
		c0.11,0.02,0.22,0.04,0.33,0.06c-0.08-0.1-0.15-0.2-0.22-0.31C797.31,686.45,797.28,686.53,797.24,686.61z M763.51,667.28
		c0.63,0.47,1.15,1.01,1.51,1.51c0.97,1.33,1.76,2.74,2.52,4.09c0.27,0.47,0.53,0.94,0.8,1.41c2.32,3.97,5.19,6.85,8.67,8.67
		c-0.24-0.25-0.47-0.52-0.67-0.79c-1.86-2.49-3.53-5.11-5.3-7.88c-0.72-1.13-1.46-2.29-2.25-3.5c-0.53-0.81-0.55-1.85-0.06-2.68
		c0.09-0.15,0.2-0.29,0.31-0.42C767.2,667.55,765.36,667.41,763.51,667.28z M785.15,673.1c-3.01-0.3-6.1-0.54-9.34-0.78
		c1.54,2.41,3.02,4.7,4.61,6.82c0.56,0.75,1.69,1.49,2.63,1.71c2.37,0.56,4.76,0.95,7.45,1.36c-1.55-3.11-3.04-6.07-4.6-8.93
		C785.71,673.21,785.41,673.13,785.15,673.1z M786.82,667.34c-0.12,0.31-0.29,0.58-0.51,0.81c0.44,0.08,1.02,0.23,1.61,0.49
		c-0.1-0.17-0.2-0.34-0.3-0.5c-0.22-0.37-0.46-0.74-0.71-1.1C786.89,667.14,786.86,667.24,786.82,667.34z M219.62,654.86
		c0.09,0.18,0.16,0.37,0.21,0.57c0.07-0.2,0.16-0.39,0.27-0.56L219.62,654.86z M199,653.75c0.01,0.4,0.01,0.8,0.02,1.21
		c0.12-0.26,0.28-0.5,0.48-0.7C199.31,654.12,199.15,653.95,199,653.75z M205.73,643.01c-1.79,0-2.18,0.24-2.19,0.24l0,0
		c-0.03,0.04-0.26,0.42-0.24,2.17c0.01,1.43,0.02,2.86,0.04,4.29l194.66,0.89v-7.59C333.9,643.01,269.81,643.01,205.73,643.01z
		 M656.94,634.37c0.09,0.11,0.21,0.25,0.37,0.42c0.62,0.68,0.82,1.64,0.53,2.51c0.17,0.02,0.33,0.04,0.5,0.05
		c1.37,0.15,2.73,0.3,4.1,0.45c-1.85-1.17-3.71-2.34-5.56-3.52C656.89,634.32,656.91,634.35,656.94,634.37z"/>
	<path d="M669.56,749.17l2.54-0.02L669.56,749.17c-0.08-13.08,4.94-25.4,14.14-34.69c9.18-9.27,21.46-14.47,34.58-14.62
		c12.86-0.15,25.08,4.81,34.41,13.97c9.45,9.27,14.93,22.04,15.03,35.02c0.1,12.88-4.96,25.16-14.23,34.56
		c-9.19,9.31-21.22,14.48-33.88,14.55c-0.11,0-0.21,0-0.32,0C691.54,797.96,669.72,776.59,669.56,749.17z M718.33,704.93
		c-24.25,0.28-43.85,20.12-43.71,44.21l0,0c0.15,24.59,19.74,43.75,44.67,43.75c0.09,0,0.19,0,0.29,0
		c11.3-0.07,22.06-4.7,30.3-13.04c8.32-8.44,12.86-19.43,12.77-30.96c-0.09-11.64-5.01-23.1-13.51-31.44
		c-8.24-8.08-18.98-12.52-30.3-12.52C718.67,704.93,718.5,704.93,718.33,704.93z M330.65,797.81c-12.93-0.91-24.69-6.72-33.12-16.36
		c-7.78-8.9-12.18-20.51-12.08-31.85c-0.28-13.87,5.09-26.74,15.1-36.23c10.04-9.52,23.65-14.4,37.33-13.39
		c12.69,0.94,24.35,6.53,32.83,15.74c8.54,9.27,13.05,21.36,12.69,34.04c-0.39,14.07-6.05,26.75-15.94,35.72
		c-8.94,8.1-20.54,12.46-33.01,12.46C333.19,797.95,331.92,797.9,330.65,797.81z M304.04,717.05c-8.97,8.51-13.78,20.05-13.52,32.49
		c0,0.03,0,0.05,0,0.08c-0.2,19.8,14.88,41.35,40.48,43.14c12.51,0.87,24.24-3.04,33.05-11.02c8.86-8.03,13.93-19.43,14.28-32.11
		c0.64-23.26-17.29-42.84-40.83-44.59c-1.06-0.08-2.13-0.12-3.19-0.12C323.15,704.92,312.27,709.25,304.04,717.05z"/>
	<path d="M460.27,728.67c0.01,0,0.03,0,0.04,0c42.37-0.04,85.46-0.04,127.12-0.03c16.86,0,33.71,0,50.57,0c0.2,0,0.41,0,0.61,0
		c0.88,0.01,1.87,0.02,2.89-0.14c4.44-0.72,5.24-4.52,5.71-6.79l0.05-0.22c0.65-3.1-0.92-5.24-4.67-6.35
		c-2.03-0.6-4.21-1.2-6.87-1.86c-5.31-1.33-10.7-2.73-15.92-4.08c-12.24-3.17-24.9-6.44-37.48-9.18
		c-18.09-3.94-36.28-5.13-58.05-5.71c-11.58-0.31-23.36-0.59-34.75-0.87c-13.06-0.31-26.56-0.64-39.84-1
		c-5.69-0.16-11.49-0.46-17.1-0.75c-2.62-0.14-5.24-0.27-7.86-0.4c-1.4-0.07-2.59,1.02-2.65,2.41c-0.07,1.4,1.01,2.59,2.41,2.65
		c2.61,0.12,5.22,0.26,7.83,0.39c5.64,0.29,11.47,0.6,17.22,0.76c13.29,0.36,26.8,0.69,39.86,1.01c11.38,0.27,23.16,0.56,34.73,0.87
		c21.47,0.57,39.4,1.74,57.1,5.6c12.48,2.72,25.09,5.98,37.29,9.13c5.23,1.35,10.63,2.75,15.95,4.09c2.59,0.65,4.71,1.22,6.66,1.81
		c0.64,0.19,0.98,0.33,1.16,0.42c0,0.01,0,0.02,0,0.03l-0.05,0.23c-0.51,2.41-0.75,2.69-1.57,2.82c-0.58,0.1-1.27,0.09-2.01,0.08
		c-0.23,0-0.45-0.01-0.67-0.01c-16.86,0-33.71,0-50.57,0c-41.67,0-84.75,0-127.13,0.03c-0.01,0-0.03,0-0.04,0
		c-9.82,0-18.29-3.11-25.89-9.52c-3.03-2.56-6.07-5.23-9.01-7.82c-1.85-1.63-3.7-3.26-5.57-4.87c-0.88-0.76-1.79-1.46-2.68-2.13
		c-0.39-0.29-0.78-0.59-1.16-0.89c-1.06-0.83-2.58-0.68-3.47,0.33l-0.43,0.49c-0.92,1.05-0.82,2.65,0.23,3.58
		c0.54,0.47,1.21,0.67,1.87,0.62c0.81,0.62,1.58,1.21,2.31,1.83c1.85,1.61,3.69,3.23,5.54,4.85c2.96,2.61,6.02,5.3,9.1,7.89
		C439.55,725.06,449.36,728.67,460.27,728.67z"/>
	<path d="M603.61,649.51c-0.17-0.06-0.58-0.15-1.58-0.18c-5.88-0.21-11.87-0.38-17.66-0.53l-4.55-0.13
		c-7.89-0.22-15.78-0.43-23.67-0.65c-20.38-0.55-41.46-1.12-62.19-1.8c-1.28-0.04-2.58-0.07-3.87-0.1
		c-6.35-0.14-12.92-0.28-19.07-2.07c-11.55-3.35-23.02-7.52-34.12-11.54c-3.44-1.25-6.87-2.49-10.31-3.72
		c-6.35-2.26-8.83-5.94-8.55-12.72c0.22-5.23,0.59-10.52,0.96-15.64l0.07-1.01c0.3-4.19,2.78-7.24,6.82-8.35
		c2.18-0.6,3.95-0.88,5.65-0.88c8.66,0.02,17.32,0.04,25.98,0.06c28.6,0.05,58.17,0.11,87.25,0.48c14.11,0.18,27.24,2.88,39.02,8.03
		c11.64,5.09,22.75,11.76,33.96,20.39c2.42,1.86,4.83,3.74,7.23,5.61l3.3,2.57c1.03,0.8,1.28,2.25,0.59,3.35
		c-0.69,1.1-2.11,1.5-3.27,0.93c-2.96-1.46-5.72-3.19-8.39-4.87c-1.76-1.1-3.58-2.24-5.38-3.26c-2.49-1.4-5.01-2.85-7.44-4.26
		c-7.82-4.51-15.9-9.17-24.2-12.76c-14.32-6.19-29.82-7.18-43.1-7.33c-17.49-0.2-35.28-0.17-52.49-0.14
		c-6.81,0.01-13.62,0.02-20.43,0.02l-1.04,0c-10.18,0-20.7-0.01-31.05,0.06c-3.02,0.02-3.32,0.29-3.58,3.27
		c-0.4,4.54-0.7,9.03-0.89,13.36c-0.16,3.7,0.15,4.17,3.71,5.51c5.19,1.95,10.49,3.9,15.61,5.78c2.17,0.8,4.33,1.59,6.5,2.39
		c10.24,3.78,19.54,6.94,29.64,7.35c13.42,0.55,27.07,0.99,40.27,1.42l13.15,0.43c15.04,0.5,30.59,1.01,45.88,1.43
		c4.08,0.11,8.17,0.08,12.12,0.05c0.84-0.01,1.67-0.01,2.48-0.02l-0.01-0.18c-0.12-2.37-0.25-4.86-0.36-7.36
		c-0.17-3.76,2.08-6.11,6.01-6.3c8.9-0.43,16.62,2.84,22.93,9.71c0.81,0.88,0.89,2.2,0.2,3.17c-0.69,0.98-1.96,1.34-3.06,0.88
		c-1.43-0.6-3.09-1.36-4.57-2.44c-3.68-2.68-8.04-2.94-11.77-2.84c-0.06,0.01-0.15,0.04-0.25,0.07c-0.23,2.45,0.04,4.4,1.67,6.25
		c4.09,4.63,9.54,6.25,14.83,7.3c1.22,0.24,2.09,1.34,2.04,2.58l-0.03,0.69c-0.05,1.36-1.17,2.44-2.53,2.44
		c-0.49,0-0.99-0.01-1.48-0.01c-1.04-0.01-2.03-0.03-3,0.02c-0.51,0.03-1.02,0.04-1.51,0.04
		C610.87,654.06,606.88,652.6,603.61,649.51z M602.17,642.45c0.03,0.66-0.19,1.3-0.62,1.79c0.22,0.01,0.44,0.02,0.66,0.02
		c0.6,0.02,1.21,0.06,1.79,0.15c-0.02-0.02-0.03-0.03-0.05-0.05c-0.79-0.89-1.38-1.8-1.83-2.71L602.17,642.45z M601.75,631.51
		c0,0-0.06,0.1-0.09,0.38c0.12-0.19,0.27-0.36,0.43-0.52C601.84,631.44,601.75,631.51,601.75,631.51z"/>
	<path d="M386.34,754.61h276.09c1.29,0,2.37-0.96,2.52-2.24l0.05-0.45c0.16-1.36-0.78-2.65-2.13-2.85c-1.9-0.29-3.83-0.62-5.71-0.94
		c-4.27-0.73-8.68-1.48-13.11-1.85c-10.41-0.87-19.02-1.28-27.11-1.29c-43.46-0.07-87.65-0.07-130.39-0.06
		c-23.83,0-47.67,0-71.5-0.01c-0.01,0-0.02,0-0.03,0c-10.75,0-20.88,2.39-29.36,4.72c-1.22,0.34-2.01,1.53-1.84,2.78
		C383.99,753.67,385.07,754.61,386.34,754.61z"/>
	<path d="M279.02,751.41c-1.01-0.08-2.03-0.16-3.04-0.23c-2.2-0.17-4.39-0.34-6.59-0.49c-6.05-0.41-12.1-0.82-18.14-1.23
		c-13.74-0.93-27.94-1.88-41.91-2.89c-5.13-0.37-9.6-0.93-13.67-1.73c-5.42-1.06-8.66-4.65-8.86-9.85
		c-0.27-6.69-0.4-13.48-0.52-20.05l-0.01-0.52c-0.06-3.25,2.15-5.49,5.5-5.58c0.74-0.02,1.48-0.04,2.22-0.07
		c3.25-0.11,6.6-0.23,9.94,0.19c2.61,0.33,6.01,1.95,7.44,4.4c2.84,4.86,5.4,9.95,7.89,14.87c0.92,1.83,1.85,3.66,2.78,5.47
		c0.32,0.61,0.37,1.33,0.14,1.98c-0.19,0.56-0.57,1.02-1.06,1.33c2.5,0.21,5.01,0.44,7.51,0.69c13.08,1.32,23.98,2.45,35.24,4.02
		c3.85,0.53,7.61,1.57,11.24,2.57c1.6,0.44,3.25,0.89,4.86,1.29c1.31,0.32,2.14,1.61,1.88,2.94l-0.16,0.83
		c-0.23,1.2-1.28,2.06-2.49,2.06C279.15,751.42,279.08,751.41,279.02,751.41z M191.9,713.9c-0.34,0.01-0.52,0.09-0.53,0.08
		c-0.01,0.02-0.04,0.13-0.04,0.33l0.01,0.52c0.12,6.54,0.25,13.31,0.52,19.94c0.04,1.03,0.17,4.18,4.77,5.08
		c3.86,0.76,8.14,1.3,13.05,1.65c6.59,0.47,13.24,0.94,19.87,1.39c-0.48-0.05-0.96-0.1-1.44-0.15c-5.13-0.52-10.38-0.94-15.45-1.34
		c-3.93-0.31-7.99-0.64-11.99-1c-5.72-0.53-8.48-3.51-8.68-9.4c-0.14-4.03-0.29-8.33-0.49-12.62c-0.03-0.74-0.14-3,1.48-4.51
		c0,0,0.01-0.01,0.02-0.01C192.64,713.88,192.27,713.89,191.9,713.9z M198.93,717.75c-0.8,0.11-1.58,0.12-2.32,0.03
		c-0.01,0-0.03,0-0.04,0c0,0.1,0,0.23,0,0.38c0.2,4.32,0.35,8.64,0.49,12.68c0.11,3.31,0.95,4.24,4.08,4.53
		c3.97,0.37,8.01,0.69,11.92,1c1.23,0.1,2.47,0.2,3.72,0.3c0-0.01-0.01-0.01-0.01-0.02c-0.9-1.39-1.85-2.8-2.77-4.17
		c-2.15-3.19-4.37-6.49-6.23-9.99c-1.79-3.37-3.94-4.86-7.16-4.86C200.09,717.63,199.53,717.67,198.93,717.75z"/>
	<path d="M666.42,722.77c1.02,0,1.97-0.62,2.36-1.61c9.17-23.37,26.42-34.99,51.26-34.52c23.02,0.43,39.22,11.87,48.15,33.99
		c0.48,1.18,1.76,1.83,2.99,1.5c1.23-0.32,2.04-1.51,1.87-2.78c-2.43-18.7-22.05-39.27-50.68-41.3
		c-13.42-0.95-26.99,2.93-38.21,10.92c-11.12,7.92-18.5,19.18-20.25,30.88c-0.19,1.28,0.61,2.49,1.85,2.83
		C665.98,722.74,666.2,722.77,666.42,722.77z"/>
	<path d="M386.39,724.6c0.23,0,0.46-0.03,0.7-0.1c1.25-0.36,2.03-1.6,1.8-2.88c-1.89-10.65-8.37-21.12-17.8-28.73
		c-7.33-5.92-19.85-12.9-37.76-12.57c-29.93,0.55-49.76,21.34-53.22,40.62c-0.23,1.27,0.54,2.51,1.78,2.88
		c1.24,0.37,2.56-0.26,3.06-1.45c9.47-22.51,26.4-33.75,50.3-33.43c23.45,0.32,39.87,11.78,48.8,34.06
		C384.43,723.99,385.38,724.6,386.39,724.6z"/>
	<path d="M665.97,705.02c0.82,0,1.62-0.4,2.11-1.12c12.32-18.4,29.44-27.65,50.86-27.48c21.57,0.16,38.4,9.33,50.01,27.24
		c0.72,1.1,2.16,1.48,3.32,0.86c1.16-0.62,1.66-2.02,1.14-3.23c-3.78-8.84-10.77-17.05-19.67-23.12
		c-9.98-6.8-21.72-10.5-33.97-10.72c-28.18-0.49-48.48,16.73-56.11,34.02c-0.53,1.2-0.05,2.61,1.1,3.24
		C665.14,704.91,665.56,705.02,665.97,705.02z"/>
	<path d="M282.63,705.8c0.83,0,1.64-0.41,2.12-1.15c10.63-16.27,29.11-26,49.44-26.02c0.02,0,0.04,0,0.05,0
		c20.43,0,38.91,9.58,49.44,25.64c0.66,1,1.92,1.41,3.04,0.97c1.12-0.43,1.78-1.58,1.59-2.76c-1.05-6.56-7.47-14.2-17.61-20.97
		c-9.69-6.47-20.87-10.77-29.89-11.53c-33.16-2.77-54.35,17.79-60.5,32.28c-0.51,1.21-0.02,2.61,1.14,3.23
		C281.81,705.7,282.22,705.8,282.63,705.8z"/>
	<path d="M792.86,742.67c-4.36-0.27-6.42-2.43-6.87-7.24c-0.33-3.52-0.45-6.38-0.38-9.01l0.03-1.02c0.16-6.05,0.32-12.31,0.86-18.47
		c0.32-3.64,1.92-5.37,3.22-6.18c1.94-1.21,4.42-1.25,7.36-0.12c1.24,0.48,2.46,1.01,3.64,1.52c0.53,0.23,1.05,0.46,1.58,0.68
		c1.04,0.44,1.67,1.53,1.52,2.65l-0.08,0.65c-0.16,1.27-1.24,2.21-2.52,2.21l-0.69,0c-0.47,0-0.95,0-1.42,0
		c-0.52,0.01-1.79,0.03-2.38,0.14c-0.14,0.61-0.19,1.96-0.21,2.44c-0.21,5.3-0.4,11-0.39,16.76c0,0.95,0,2.3,0.1,2.96
		c0.63,0.11,1.92,0.15,2.98,0.18c0.75,0.02,2.74,0.08,3.88,1.67c1.14,1.59,0.56,3.48,0.34,4.2c-1.46,4.77-4.33,6.02-8.71,6.01
		C794.13,742.74,793.51,742.71,792.86,742.67z M792.53,734.31c-1.46-1.48-1.47-3.52-1.47-6.59c-0.01-5.85,0.18-11.61,0.39-16.97
		c0.11-2.92,0.51-4.74,1.58-5.85c-0.26,0.01-0.48,0.07-0.63,0.16c-0.43,0.27-0.75,1.13-0.85,2.31c-0.52,6.01-0.68,12.19-0.84,18.16
		l-0.03,1.02c-0.06,2.42,0.05,5.09,0.36,8.4c0.24,2.53,0.45,2.55,2.13,2.65c4.05,0.25,4.7-0.24,5.21-1.71
		C795.69,735.81,793.86,735.66,792.53,734.31z M799.59,735.97L799.59,735.97L799.59,735.97z"/>
	<path d="M538.52,669.36c-1.84-0.1-3.6-0.44-5.31-0.77c-0.71-0.14-1.43-0.28-2.14-0.4c-1.22-0.2-2.11-1.26-2.12-2.49l0-1.28
		c0-1.05,0.65-2,1.63-2.38c0.16-0.06,0.32-0.14,0.47-0.22c0.65-0.32,1.52-0.75,2.65-0.74c6.17,0.12,11.27,0.29,16.04,0.55
		c1.34,0.07,2.3,0.87,2.94,1.4c0.17,0.14,0.34,0.28,0.45,0.35c0.74,0.49,1.18,1.33,1.15,2.21c-0.03,0.89-0.53,1.69-1.3,2.12
		c-0.14,0.08-0.33,0.21-0.54,0.36c-0.72,0.5-1.7,1.18-3,1.24c-1.83,0.08-4.02,0.16-6.34,0.16
		C541.6,669.48,540.06,669.45,538.52,669.36z M531.47,665.69L531.47,665.69L531.47,665.69z"/>
	<path d="M435.59,669.31c1.28,0,2.24-0.7,2.87-1.17c0.15-0.11,0.31-0.23,0.4-0.28c0.73-0.42,1.2-1.18,1.26-2.02
		c0.06-0.84-0.3-1.65-0.96-2.17c-0.1-0.08-0.25-0.23-0.4-0.37c-0.59-0.57-1.47-1.44-2.79-1.62c-2.37-0.33-4.77-0.53-7.09-0.73
		c-0.84-0.07-1.67-0.14-2.51-0.22c-0.51-0.05-1.03,0.06-1.47,0.31c-0.18,0-0.37,0-0.56-0.01c-1.57-0.02-3.2-0.04-4.84,0.07
		c-1.17,0.08-2.04,0.67-2.67,1.1c-0.14,0.1-0.28,0.2-0.42,0.28c-0.74,0.41-1.23,1.16-1.3,2c-0.07,0.84,0.28,1.67,0.94,2.19
		c0.09,0.07,0.25,0.24,0.4,0.38c0.63,0.64,1.57,1.6,3.01,1.68c5.04,0.29,10.29,0.47,16.06,0.57
		C435.55,669.31,435.57,669.31,435.59,669.31z"/>
	<path d="M310.28,773.45c-6.48-6.35-10.1-14.95-10.19-24.2c-0.09-9.21,3.4-17.88,9.81-24.41c6.41-6.54,15.01-10.18,24.21-10.27
		c0.11,0,0.21,0,0.32,0c18.77,0,34.17,15.21,34.4,34.05c0.11,8.97-3.37,17.57-9.79,24.22c-6.43,6.65-14.87,10.36-23.77,10.46
		c-0.14,0-0.28,0-0.42,0C325.48,783.3,316.77,779.81,310.28,773.45z M332.49,722.37c-13.59,0.77-25.13,13.35-24.69,26.91
		c0,0.01,0,0.02,0,0.03c0.16,7.34,3.17,14.08,8.47,19c5.36,4.96,12.61,7.58,19.9,7.19c14.02-0.76,25.38-13.4,24.81-27.59
		c-0.29-7.17-3.35-13.76-8.64-18.55c-5.03-4.56-11.45-7.03-18.25-7.03C333.56,722.33,333.02,722.34,332.49,722.37z M302.62,749.23
		l0.09,0L302.62,749.23z"/>
	<path d="M694.46,773.39c-6.49-6.42-10.08-15.06-10.12-24.33c-0.04-9.25,3.5-17.93,9.96-24.44c6.42-6.47,15.01-10.04,24.17-10.06
		c0.03,0,0.06,0,0.09,0c18.87,0,34.32,15.34,34.47,34.24c0.07,9.04-3.46,17.64-9.95,24.21c-6.48,6.57-15.03,10.22-24.06,10.28
		c-0.08,0-0.15,0-0.23,0C709.55,783.3,700.91,779.78,694.46,773.39z M718.55,722.42c-0.01,0-0.01,0-0.01,0
		c-14.59,0-26.53,11.92-26.6,26.58c-0.03,6.97,2.69,13.57,7.68,18.58c5.07,5.09,11.82,7.9,18.99,7.9c0.01,0,0.01,0,0.02,0
		c7.12-0.01,13.84-2.82,18.93-7.92c4.97-4.99,7.71-11.51,7.69-18.37C745.23,734.18,733.5,722.43,718.55,722.42L718.55,722.42z
		 M718.55,719.89L718.55,719.89L718.55,719.89z"/>
	<path d="M345.79,741.6c0.5,0,0.98-0.07,1.43-0.2c4.32-1.29,7.78-2.56,10.91-4.01c1.14-0.53,1.72-1.81,1.37-3.02
		c-0.35-1.2-1.54-1.97-2.78-1.8l-2.83,0.39c-2.19,0.3-4.37,0.6-6.55,0.92c-1.25,0.18-2.47-0.72-2.67-1.96
		c-0.38-2.29-0.77-4.58-1.16-6.88l-0.5-2.94c-0.23-1.35-1.5-2.28-2.85-2.09l-0.45,0.06c-1.25,0.18-2.18,1.25-2.18,2.51
		c0,1.17-0.01,2.34-0.01,3.52c-0.02,2.79-0.03,5.68,0.05,8.55c0.05,1.79,1.23,3.65,3.25,5.11
		C342.44,740.96,344.22,741.6,345.79,741.6z"/>
	<path d="M314.04,769.78c0.79,0,1.57-0.37,2.06-1.05c0.7-0.97,1.47-1.97,2.21-2.92c1.97-2.55,4.01-5.19,5.45-8.21
		c1.27-2.64-0.52-7.95-3.19-9.46c-2.73-1.55-5.72-2.41-8.62-3.25c-1.15-0.33-2.23-0.64-3.3-1c-1.27-0.42-2.64,0.22-3.15,1.46
		l-0.19,0.48c-0.5,1.22,0.02,2.62,1.19,3.21l2.55,1.3c1.93,0.98,3.86,1.97,5.78,2.96c1.54,0.79,1.98,2.11,1.22,3.61l-0.51,1.01
		c-1.36,2.68-2.77,5.44-3.88,8.45c-0.44,1.19,0.07,2.52,1.19,3.12C313.22,769.68,313.63,769.78,314.04,769.78z"/>
	<path d="M323.4,741.7c1.59,0,3.23-0.94,4.4-1.82c1.24-0.93,3.33-2.81,3.37-4.94c0.05-2.96,0.04-5.97,0.03-8.87
		c0-1.16-0.01-2.32-0.01-3.49c0-0.85-0.43-1.65-1.14-2.12c-0.71-0.47-1.61-0.55-2.39-0.22l-0.47,0.2c-0.81,0.34-1.38,1.08-1.51,1.95
		c-0.14,0.9-0.27,1.81-0.41,2.71c-0.3,2.01-0.61,4.09-0.94,6.11c-0.37,2.22-1.26,2.87-3.54,2.56l-0.59-0.08
		c-2.81-0.39-5.71-0.79-8.79-0.72c-1.24,0.03-2.28,0.95-2.46,2.18c-0.18,1.23,0.56,2.41,1.75,2.78c1.1,0.35,2.2,0.7,3.3,1.05
		c2.74,0.89,5.58,1.8,8.43,2.58C322.75,741.66,323.07,741.7,323.4,741.7z"/>
	<path d="M354.58,768.79c0.49,0,0.99-0.14,1.43-0.44c1.04-0.71,1.4-2.08,0.85-3.21c-0.36-0.75-0.73-1.49-1.09-2.24
		c-0.81-1.67-1.63-3.34-2.46-5c-1.46-2.91-1.25-3.58,1.62-5.11c1.62-0.86,3.29-1.71,4.91-2.52c0.75-0.38,1.5-0.76,2.25-1.14
		c1.03-0.53,1.58-1.68,1.32-2.81l-0.11-0.5c-0.16-0.69-0.6-1.29-1.21-1.65c-0.62-0.35-1.36-0.43-2.03-0.21
		c-1.08,0.35-2.17,0.69-3.25,1.03c-2.59,0.82-5.27,1.66-7.9,2.58c-2.33,0.81-3.46,3.61-3.84,4.78c-0.39,1.2-1.13,4.2,0.31,6.26
		c1.83,2.62,4.32,6.05,7.34,9.36C353.2,768.51,353.89,768.79,354.58,768.79z"/>
	<path d="M324.05,776.37c0.66,0,1.31-0.26,1.81-0.76l1.95-1.98c1.44-1.47,2.89-2.94,4.34-4.39c0.6-0.6,1.48-1.32,2.22-1.32
		c0,0,0,0,0,0c0.7,0,1.5,0.67,2.05,1.23c1.08,1.09,2.06,2.32,3.09,3.62c0.48,0.6,0.96,1.21,1.46,1.8c0.44,0.52,1.06,0.85,1.74,0.9
		c0.68,0.06,1.35-0.17,1.87-0.61l1.12-0.97c1-0.87,1.16-2.35,0.38-3.42c-0.59-0.8-1.14-1.64-1.73-2.52
		c-1.51-2.28-3.08-4.63-5.29-6.45c-2.25-1.86-7.59-1.59-9.84,0.49c-2.3,2.12-4.04,4.7-5.72,7.18c-0.67,0.99-1.3,1.92-1.97,2.83
		c-0.4,0.55-0.57,1.24-0.46,1.91c0.11,0.67,0.49,1.27,1.04,1.66l0.48,0.34C323.04,776.22,323.55,776.37,324.05,776.37z"/>
	<path d="M729.03,776.74c0.59,0,1.18-0.2,1.65-0.61l0.54-0.47c1-0.86,1.17-2.35,0.39-3.42c-0.72-0.98-1.43-1.96-2.14-2.95
		c-1.72-2.38-3.5-4.85-5.36-7.22c-1.02-1.3-2.88-2.03-5.2-1.99c-2.15,0.02-4.94,0.7-6.34,2.54c-1.68,2.22-3.34,4.5-4.94,6.7
		c-0.68,0.93-1.36,1.86-2.04,2.79c-0.78,1.06-0.61,2.53,0.37,3.4l0.41,0.36c1.01,0.88,2.53,0.83,3.47-0.11
		c0.72-0.72,1.44-1.45,2.16-2.17c1.61-1.62,3.27-3.3,4.92-4.92c0.96-0.94,2.35-0.92,3.31,0.05c1.63,1.65,3.26,3.36,4.84,5.02
		c0.7,0.74,1.4,1.47,2.1,2.2C727.7,776.47,728.36,776.74,729.03,776.74z"/>
	<path d="M730.15,741.57c0.55,0,1.1-0.07,1.63-0.24c2.5-0.78,5.03-1.62,7.47-2.43c1.05-0.35,2.09-0.69,3.14-1.04
		c1.17-0.38,1.89-1.55,1.72-2.77l-0.06-0.44c-0.2-1.38-1.48-2.35-2.87-2.15l-2.95,0.42c-2.24,0.32-4.48,0.63-6.72,0.97
		c-1.28,0.19-2.39-0.65-2.62-1.99c-0.56-3.28-1.15-6.67-2.24-10.06c-0.38-1.19-1.57-1.92-2.81-1.73c-1.23,0.19-2.14,1.26-2.14,2.51
		c0,1.18-0.01,2.36-0.01,3.54c-0.02,2.8-0.03,5.69,0.04,8.55c0.05,1.79,1.17,3.57,3.16,4.99
		C726.28,740.69,728.24,741.57,730.15,741.57z"/>
	<path d="M707.27,741.72c1.86,0,3.67-1.09,4.69-1.83c1.03-0.75,3.42-2.75,3.46-5.22c0.09-4.83-0.03-8.76-0.38-12.38
		c-0.12-1.26-1.16-2.24-2.43-2.29c-1.27-0.06-2.38,0.85-2.6,2.1c-0.18,1.01-0.35,2.02-0.52,3.02c-0.39,2.26-0.79,4.6-1.22,6.88
		c-0.24,1.28-1.42,2.09-2.73,1.89c-2.13-0.33-4.29-0.63-6.38-0.91c-0.92-0.13-1.84-0.25-2.76-0.38c-1.29-0.18-2.5,0.64-2.82,1.9
		l-0.11,0.47c-0.32,1.28,0.41,2.6,1.66,3.01c1.05,0.35,2.1,0.71,3.16,1.06c2.52,0.85,5.13,1.74,7.74,2.52
		C706.45,741.67,706.86,741.72,707.27,741.72z"/>
	<path d="M698.45,769.53c0.8,0,1.57-0.37,2.06-1.06c0.71-0.99,1.42-1.97,2.14-2.95c1.78-2.45,3.62-4.98,5.33-7.57
		c0.82-1.25,0.86-2.98,0.12-5.16c-0.25-0.73-1.63-4.41-4.17-5.28c-2.58-0.88-5.21-1.73-7.75-2.55c-1.04-0.34-2.08-0.67-3.12-1.01
		c-1.09-0.35-2.28,0.06-2.9,1.02l-0.3,0.45c-0.39,0.6-0.51,1.34-0.33,2.04c0.18,0.7,0.65,1.28,1.29,1.61l7.68,3.96
		c2.23,1.15,2.57,2.15,1.49,4.3c-1.25,2.47-2.81,5.55-3.92,8.85c-0.4,1.19,0.13,2.5,1.25,3.07
		C697.66,769.44,698.06,769.53,698.45,769.53z"/>
	<path d="M738.44,769.06c0.42,0,0.84-0.1,1.23-0.32l0.42-0.23c1.19-0.66,1.65-2.14,1.03-3.36l-1.18-2.34
		c-0.88-1.74-1.77-3.49-2.64-5.24c-1.19-2.4-0.9-3.34,1.44-4.55c2.4-1.25,4.8-2.5,7.19-3.75c0.43-0.23,0.69-0.49,0.97-0.76
		c0.12-0.12,0.3-0.3,0.57-0.55c0.86-0.82,1.05-2.12,0.44-3.14c-0.61-1.02-1.84-1.48-2.97-1.11c-1.34,0.44-2.62,0.86-3.86,1.26
		c-2.92,0.94-5.69,1.84-8.4,2.83c-1.87,0.69-2.88,2.81-3.4,4.46c-0.39,1.23-1.13,4.3,0.23,6.25c1.6,2.29,3.28,4.58,4.9,6.79
		c0.66,0.91,1.33,1.81,1.98,2.72C736.88,768.69,737.65,769.06,738.44,769.06z"/>
</g>
<g>
	<path d="M814.84,506.85c-7.16,0-13.04-2.82-17.95-8.63c-6.83-8.06-10.89-18.21-12.78-31.94c-0.49-3.56-0.69-7.05-0.91-10.75
		c-0.01-0.19-0.02-0.38-0.03-0.57c-3.45,1.57-7.14,1.56-10.29,1.55c-52.95-0.17-106.78-0.32-158.84-0.46l-56.92-0.15
		c-9.25-0.03-14.71-4.82-15.78-13.87c-1.34-11.28-0.99-22.71-0.66-33.75l0.1-3.43c0.23-8.21,3.83-13.87,11.64-18.37
		c0.41-0.24,1.39-0.8,2.84-0.53c0.91,0.17,1.66,0.81,1.95,1.69c0.29,0.88,0.09,1.84-0.54,2.52l-2.26,2.45
		c1.85,0.01,3.71,0.02,5.56,0.02c6.46,0.01,13.14,0.02,19.72,0.4c2.49,0.14,4.73,1.13,6.9,2.09c0.89,0.4,1.74,0.77,2.57,1.07
		c0.64,0.23,1.16,0.71,1.44,1.33s0.31,1.33,0.06,1.96l-0.34,0.89c-0.25,0.65-0.75,1.16-1.39,1.43c-0.64,0.27-1.36,0.26-1.99-0.01
		c-0.36-0.16-0.72-0.33-1.08-0.5c-0.63-0.31-1.23-0.59-1.76-0.73c-0.76-0.2-1.52-0.42-2.28-0.65c-2.06-0.61-4-1.18-5.84-1.23
		c-5.27-0.14-10.66-0.09-15.88-0.03c-3.08,0.03-6.26,0.06-9.41,0.05c-0.24,0-0.4,0.01-0.51,0.03c-0.03,0.12-0.07,0.31-0.1,0.6
		c-1.58,14.53-1.57,27.93,0.02,40.97c0.07,0.54,0.19,1.55,0.32,2.1c0.52,0.06,1.42,0.06,1.91,0.06c3,0.01,6,0.01,9.01,0.01l3.94,0
		c1.33,0,2.43,1.02,2.53,2.35l0.05,0.61c0.04,0.56-0.1,1.1-0.4,1.57c2.26-0.01,4.51-0.02,6.77-0.03c14-0.05,28.48-0.11,42.73-0.09
		c41.77,0.06,84.23,0.18,125.3,0.29l14.97,0.04c4.06,0.01,8.17,0.07,12.15,0.12c2.52,0.03,5.05,0.07,7.57,0.09
		c3.34,0.02,4.65-0.9,5.42-3.84c0.98-3.74,1.8-7.63,2.6-11.38c0.63-2.98,1.29-6.07,2.02-9.09c2.09-8.63,4.35-17.83,6.95-26.96
		c0.71-2.48,2.02-4.66,3.28-6.77c0.35-0.59,0.71-1.18,1.04-1.77c2.78-4.89,7.58-8.03,13.17-8.61c5.91-0.61,12,1.73,15.86,6.11
		c5.06,5.73,7.59,14.38,6.61,22.59c-0.14,1.19-1.09,2.09-2.24,2.22c4.85,6.2,8.15,13.96,10.28,24.13c0.74,3.53,1.18,7.02,1.64,10.71
		c0.12,0.93,0.23,1.87,0.36,2.82c9.13,0.16,18.42,0.11,27.43,0.07c15.44-0.08,31.41-0.17,47.17,0.79c1.4,0.09,2.46,1.29,2.38,2.69
		c-0.09,1.4-1.29,2.46-2.69,2.38c-15.59-0.95-31.47-0.87-46.83-0.79c-9.1,0.05-18.5,0.1-27.74-0.07c0.3,0.46,0.46,1.02,0.41,1.61
		l-0.19,2.33h0.69c3.2,0,6.41,0,9.61,0.01c8.02,0.01,16.31,0.02,24.46-0.04c5.21-0.04,8.99,1.29,12.27,4.29
		c0.79,0.72,2.4,1.12,3.96,1.51c0.56,0.14,1.11,0.28,1.65,0.43c0.27,0.08,0.86,0.04,1.47,0.01c0.46-0.03,0.98-0.06,1.55-0.06
		c1.37,0,2.5,1.09,2.53,2.46c0.43,15,2.56,27.11,11.61,37.44c0.65,0.75,0.81,1.81,0.4,2.72c-0.41,0.91-1.31,1.49-2.31,1.49l-7.84,0
		c-1.4,0-2.54-1.14-2.53-2.54c0-1.4,1.14-2.54,2.54-2.54c0,0,0,0,0,0l2.63,0c-6.84-9.82-8.91-20.84-9.47-33.88
		c-0.65,0-1.3-0.05-1.97-0.24c-0.48-0.14-0.97-0.26-1.47-0.38c-2.07-0.51-4.43-1.09-6.17-2.68c-2.33-2.13-4.91-2.98-8.82-2.96
		c-8.17,0.05-16.47,0.04-24.5,0.04c-3.2,0-6.4,0-9.6-0.01h-1.8c-0.68,7.03-2.24,13.85-4.68,20.43c-2.37,6.4-5.52,11.51-9.61,15.64
		c-3.34,3.36-7.1,5.49-11.03,6.28c0.01,0.11,0.02,0.22,0.02,0.34c0.01,1.4-1.13,2.54-2.53,2.55
		C814.91,506.85,814.88,506.85,814.84,506.85z M789.51,453.01c0.27,2.07,0.5,4.04,0.73,5.95c0.49,4.2,0.96,8.17,1.74,11.98
		c2.05,9.95,5.56,17.25,11.05,22.97c3.3,3.45,7.06,5.28,10.89,5.32c3.81,0.05,7.61-1.74,10.96-5.11c3.58-3.6,6.34-8.13,8.46-13.83
		c4.8-12.93,5.97-26.91,3.48-41.56c-1.67-9.85-4.66-17.38-9.4-23.71c-3.84-5.13-8.59-7.96-13.36-7.97c0,0-0.01,0-0.01,0
		c-4.74,0-9.45,2.79-13.27,7.87c-4.03,5.35-6.42,10.81-7.29,16.67c-0.8,5.38-1.85,10.63-2.86,15.72
		C790.25,449.25,789.87,451.16,789.51,453.01z M796.87,404.51c-1.03,3.86-2.01,7.7-2.94,11.48c0.84-1.39,1.78-2.76,2.8-4.13
		c2.36-3.14,5.06-5.59,7.94-7.26c-0.8-0.01-1.62-0.02-2.44-0.03c-1.64-0.02-3.33-0.05-5.11-0.05
		C797.04,404.52,796.96,404.52,796.87,404.51z M813.41,399.35c7.33,0,12.26,3.97,15.49,7.35c0.7-6.71-1.36-13.68-5.42-18.27
		c-2.8-3.17-7.22-4.87-11.54-4.42c-4,0.41-7.3,2.57-9.28,6.07c-0.35,0.62-0.73,1.25-1.1,1.87c-1.15,1.91-2.23,3.71-2.75,5.55
		c-0.19,0.65-0.37,1.31-0.55,1.96c1.4,0.01,2.75,0.03,4.05,0.05c3.41,0.05,6.62,0.1,9.73-0.11
		C812.51,399.37,812.96,399.35,813.41,399.35z"/>
	<path d="M964.33,434.3c-0.68,0-1.36-0.27-1.85-0.8c-0.85-0.9-0.92-2.28-0.17-3.27c0.07-0.09,0.13-0.18,0.19-0.27
		c0.22-0.32,0.5-0.72,0.9-1.1c0.44-0.43,1.01-0.66,1.58-0.71c4.78-3.86,7.38-8.86,7.73-14.89c0.37-6.27,0.36-13.06-0.01-20.18
		c-0.46-8.78-1.05-17.49-1.64-25.38h-43.64c-0.15,0-0.29-0.01-0.43-0.04c-0.4,23.47-3.33,44.21-8.93,63.32
		c-0.39,1.34-1.8,2.11-3.15,1.72c-1.34-0.39-2.11-1.8-1.72-3.15c5.5-18.75,8.36-39.15,8.73-62.3h-25.48c-1.39,0-2.52-1.11-2.54-2.5
		l-0.01-0.68c-0.02-1.4,1.1-2.55,2.5-2.57c0.7-0.02,1.3,0.25,1.76,0.68h26.33c0.66,0,1.3,0.26,1.77,0.72
		c0.35-0.18,0.74-0.28,1.16-0.28h43.26c-0.23-3-0.46-5.85-0.67-8.48c-0.22-2.79-0.22-2.79-3.25-2.8
		c-9.59-0.04-19.35-0.04-28.79-0.05l-11.63-0.01c0.15,0.32,0.23,0.68,0.23,1.05l0,0.87c0,0.54,0,1.01,0,1.49
		c0,0.38,0,0.77-0.01,1.15c-0.01,0.79-0.02,1.54,0.07,2.21c0.18,1.39-0.8,2.66-2.19,2.84c-1.38,0.18-2.66-0.8-2.84-2.19
		c-0.13-1.02-0.12-1.99-0.11-2.92c0-0.34,0.01-0.69,0.01-1.03c-0.01-0.5,0-1,0-1.56l0-0.86c0-0.63,0.23-1.2,0.61-1.65
		c-0.48-0.4-0.81-0.98-0.89-1.65l-0.27-2.31c-0.18-1.54-0.35-2.98-0.51-4.41c-1.8-15.99-5.75-28.48-12.44-39.3
		c-3.33-5.39-7.55-8.24-12.9-8.71c-9.15-0.8-17.19-1.32-24.59-1.59l-7.38-0.27c-19.15-0.71-38.96-1.45-58.43-1.82
		c-44.45-0.84-80.52,0.51-113.53,4.26c-8.24,0.94-15.02,3.69-20.7,8.42c-9.8,8.15-18.75,17.84-26.61,28.79
		c-1.13,1.57-2.41,3.04-3.43,4.22c-0.41,0.47-0.79,0.91-1.12,1.31c-0.82,0.99-2.25,1.21-3.32,0.51c-0.4-0.26-0.78-0.53-1.14-0.8
		c0.09,0.53,0.15,1.11,0.19,1.71c0.07,1.06-0.53,2.05-1.5,2.48c-1.79,0.8-3.62,1.58-5.39,2.33c-3.88,1.65-7.88,3.35-11.61,5.32
		c-6.82,3.6-11.86,7.56-13.46,10.59c-0.66,1.24-2.19,1.71-3.43,1.05c-1.24-0.66-1.71-2.19-1.05-3.43
		c2.13-4.01,7.66-8.52,15.58-12.69c0.04-0.02,0.08-0.04,0.12-0.06c-1.39-0.99-2.33-2.52-2.67-4.43c-0.68-3.84,1.29-7.16,4.7-7.87
		c5.66-1.2,10.75-1.89,15.56-2.12c1.99-0.1,3.57,1.16,5.09,2.37c0,0,0.01,0.01,0.01,0.01c0.91-1.05,1.89-2.21,2.76-3.42
		c8.11-11.31,17.36-21.31,27.48-29.74c6.47-5.38,14.12-8.51,23.38-9.56c33.23-3.77,69.51-5.13,114.19-4.29
		c19.52,0.37,39.35,1.11,58.53,1.82l7.38,0.27c7.48,0.28,15.61,0.8,24.84,1.61c6.96,0.61,12.6,4.34,16.78,11.09
		c7.1,11.49,11.28,24.64,13.17,41.4c0.16,1.43,0.33,2.86,0.51,4.39l0.01,0.08l11.98,0.01c9.44,0.01,19.2,0.02,28.8,0.05
		c4.87,0.02,7.79,1.25,8.29,7.46c0.86,10.69,1.94,24.78,2.69,39.07c0.39,7.31,0.39,14.29,0.01,20.75
		c-0.49,8.4-4.66,15.43-12.04,20.32C965.3,434.16,964.81,434.3,964.33,434.3z M619.07,339.63c0.12,0.35,0.33,0.83,0.47,1.15
		c0.15,0.35,0.3,0.7,0.44,1.06c2.06-0.93,4.14-1.81,6.17-2.68c1.1-0.47,2.23-0.95,3.36-1.44c-0.22-0.01-0.55-0.01-1.01,0.01
		c-2.93,0.17-5.09,0.46-7.03,0.95C620.25,339,619.46,339.38,619.07,339.63z"/>
	<path d="M619.85,404.31c-9.88,0-17.8-2.96-24.18-9.04c-5.29-5.04-11.57-7.16-20.35-6.88c-4.23,0.14-8.37,0.1-12.76,0.07
		c-1.93-0.01-3.89-0.03-5.87-0.03c-0.73,0-1.43-0.32-1.91-0.87c-0.48-0.55-0.7-1.28-0.6-2.01c1.11-8.16,2.48-16.05,6.97-22.95
		c2.24-3.44,6.02-5.65,8.07-6.67c12.3-6.08,25.68-8.74,38.62-11.31l2.79-0.56c1.31-0.26,2.6,0.54,2.95,1.83
		c0.35,1.29-0.37,2.63-1.64,3.06c-4.07,1.38-8.24,2.61-12.27,3.79c-7.69,2.27-15.58,4.59-22.93,8.02l279.64-0.92c0,0,0.01,0,0.01,0
		c0.72,0,1.41,0.31,1.89,0.84c0.48,0.54,0.71,1.26,0.63,1.97l-0.12,1.11c-0.14,1.26-1.19,2.22-2.45,2.25l-73.08,1.94
		c-0.07,0.31-0.13,0.62-0.2,0.93c-0.44,2.03-0.89,4.13-1.36,6.19c-1.8,7.81-7.23,12.16-15.28,12.25l-3.49,0.04
		c-12.23,0.13-24.88,0.26-37.31,0.51c-6.35,0.13-12.63,2.08-19.19,5.98c-2.77,1.65-5.61,3.25-8.35,4.81l-1.69,0.96
		c-5.64,3.2-11.69,4.72-18.48,4.66l-7.23-0.07c-16.25-0.16-33.05-0.33-49.54,0.09C620.7,404.31,620.27,404.31,619.85,404.31z
		 M576.8,383.3c9.31,0,16.45,2.66,22.37,8.31c5.7,5.44,12.65,7.86,21.84,7.62c16.58-0.42,33.43-0.25,49.72-0.09l7.22,0.07
		c5.9,0.06,11.09-1.25,15.93-4l1.69-0.96c2.72-1.54,5.54-3.14,8.26-4.75c7.33-4.36,14.42-6.54,21.68-6.69
		c12.46-0.25,25.12-0.38,37.36-0.51l3.49-0.04c5.64-0.06,9.14-2.86,10.39-8.32c0.47-2.02,0.89-4.01,1.35-6.11
		c0.19-0.88,0.38-1.76,0.57-2.65l-210.03,0.69c-1.08,0.01-2-0.66-2.37-1.62c-0.33,0.37-0.62,0.74-0.87,1.12
		c-3.44,5.29-4.79,11.31-5.79,18c1,0.01,2,0.01,2.99,0.02c4.33,0.03,8.43,0.07,12.56-0.07C575.72,383.3,576.26,383.3,576.8,383.3z"
		/>
	<path d="M715.8,360.38c-0.94,0-1.84-0.52-2.28-1.43c-0.61-1.26-0.09-2.78,1.17-3.39c15.25-7.42,31.92-12.24,50.97-14.73
		c11.15-1.46,22.5-2.46,33.6-3.37c-2.89-0.06-5.76-0.14-8.59-0.21c-5.99-0.16-12.18-0.32-18.26-0.34
		c-25.24-0.06-50.91-0.02-75.73,0.02c-10.23,0.02-20.46,0.03-30.69,0.04c-3.68,0-7.37,0-11.21,0l-5.58,0
		c-0.96,0-1.84-0.55-2.27-1.41c-0.43-0.86-0.33-1.89,0.25-2.66c1.04-1.38,2.07-2.76,3.08-4.15c2.3-3.12,4.68-6.35,7.26-9.37
		c3.79-4.43,7.95-8.81,12.37-13.03c5.35-5.1,12.31-8.08,20.11-8.61c3.49-0.24,6.98-0.49,10.46-0.74c14.19-1.01,28.86-2.06,43.34-2.2
		c17.32-0.17,34.9,0.32,51.91,0.8c5.8,0.16,11.6,0.32,17.39,0.46c4.33,0.1,8.68,0.49,12.89,0.86c0.9,0.08,1.8,0.16,2.7,0.24
		c1.95,0.17,4.72,0.65,6.23,2.91c1.53,2.28,0.9,5.08,0.3,6.99c-0.57,1.81-1.18,3.64-1.77,5.41c-1.29,3.87-2.62,7.88-3.6,11.84
		c-0.31,1.28-0.67,2.49-1.1,3.61c0.55-0.24,1.2-0.28,1.81-0.07c1.33,0.45,2.03,1.89,1.58,3.22c-2.74,8.03-10.05,9.56-15.31,10.01
		c-4,0.34-8,0.67-12,0.99c-12.67,1.03-25.77,2.09-38.54,3.76c-18.49,2.42-34.65,7.08-49.41,14.26
		C716.55,360.29,716.17,360.38,715.8,360.38z M744.55,331.82c9.31,0,18.62,0.01,27.88,0.03c6.14,0.01,12.36,0.18,18.38,0.34
		c6.89,0.18,14.02,0.37,21.01,0.33c10.11-0.06,11.7-3.59,13.13-9.39c1.02-4.17,2.39-8.27,3.71-12.24c0.58-1.75,1.18-3.55,1.74-5.33
		c0.66-2.1,0.34-2.62,0.32-2.64c-0.01-0.02-0.36-0.5-2.45-0.68c-0.9-0.08-1.81-0.16-2.71-0.24c-4.13-0.37-8.4-0.74-12.56-0.84
		c-5.81-0.14-11.61-0.3-17.42-0.46c-16.96-0.48-34.5-0.97-51.72-0.8c-14.32,0.14-28.91,1.18-43.02,2.19
		c-3.49,0.25-6.99,0.5-10.48,0.74c-6.7,0.45-12.4,2.88-16.95,7.22c-4.3,4.09-8.34,8.35-12.01,12.65c-2.46,2.88-4.68,5.89-7.03,9.08
		c-0.03,0.04-0.07,0.09-0.1,0.13l0.53,0c3.84,0,7.52,0,11.21,0c10.23-0.01,20.46-0.02,30.69-0.04
		C712.4,331.84,728.47,331.82,744.55,331.82z"/>
	<path d="M554.98,506.8c-0.74,0-1.47-0.32-1.97-0.93c-16.59-20.37-15.51-43.93-14.46-66.71l0.07-1.46c0.06-1.4,1.25-2.48,2.65-2.42
		c1.4,0.06,2.48,1.25,2.42,2.65l-0.07,1.46c-1.05,22.84-2.04,44.41,13.33,63.28c0.88,1.09,0.72,2.68-0.36,3.57
		C556.11,506.61,555.54,506.8,554.98,506.8z"/>
	<path d="M948.13,505.06c-0.05,0-0.1,0-0.15,0c-2.06-0.04-5.16-0.89-8.2-4.75c-3.26-4.14-5.52-9.23-7.12-16.02
		c-4.97-21.12-4.48-41.44,1.45-60.4c1.27-4.05,3.57-8.28,6.67-12.24c0.28-0.36,0.56-0.68,0.84-0.98c-0.87,0-1.78-0.02-2.75-0.04
		c-0.89-0.02-1.83-0.04-2.85-0.04c-0.22,0.95-0.44,1.9-0.66,2.84c-1.04,4.51-2.12,9.17-3.25,13.74c-1.13,4.56-2.38,9.03-3.7,13.76
		c-0.59,2.13-1.2,4.3-1.81,6.53c-0.37,1.35-1.76,2.15-3.11,1.78c-1.35-0.37-2.15-1.76-1.78-3.11c0.61-2.24,1.22-4.42,1.82-6.56
		c1.31-4.7,2.55-9.14,3.66-13.62c1.13-4.53,2.2-9.17,3.24-13.66c0.97-4.21,1.98-8.55,3.03-12.83c0.93-3.78,2.55-8.57,6.8-11.98
		c2.9-2.33,6.39-3.36,9.83-2.9c3.41,0.45,6.48,2.34,8.65,5.3c2.75,3.77,4.31,8.35,4.89,14.41c0.24,2.49,0.18,5,0.12,7.22
		c-0.02,0.92-0.05,1.81-0.05,2.66c0,1.4-1.14,2.54-2.54,2.54c-0.27,0-0.54-0.04-0.78-0.12c2.53,5.08,4.3,10.99,5.48,18.23
		c3.1,18.94,2.36,36.06-2.27,52.34c-1,3.53-2.5,6.84-3.94,10.04c-0.64,1.43-1.25,2.77-1.81,4.12c-0.54,1.29-2.02,1.91-3.31,1.37
		c-0.07-0.03-0.14-0.06-0.21-0.1C951.97,504.58,949.74,505.06,948.13,505.06z M948.1,412.79c-0.02,0-0.03,0-0.05,0
		c-1.16,0.02-2.27,0.69-3.28,1.98c-2.72,3.48-4.74,7.16-5.82,10.63c-5.66,18.08-6.12,37.5-1.36,57.72
		c1.42,6.05,3.38,10.51,6.17,14.04c1,1.27,2.56,2.79,4.32,2.82c1.63,0.03,3.1-1.28,4.04-2.38c1.53-1.8,2.88-4.05,3.91-6.5
		c4.92-11.79,5.91-24.1,5.93-41.35c-0.21-1.31-0.43-2.8-0.67-4.43c-0.67-4.53-1.51-10.16-2.6-15.7c-1.17-5.92-3.26-10.61-6.38-14.34
		C950.95,413.67,949.46,412.79,948.1,412.79z M946.06,405.41c5.1,0,9.1,2.44,12.21,7.41c0.12,0.19,0.24,0.38,0.35,0.57
		c0.01-0.65,0.03-1.33,0.04-2.01c0.05-2.17,0.11-4.42-0.1-6.6c-0.49-5.11-1.74-8.9-3.94-11.9c-1.34-1.84-3.19-3-5.22-3.27
		c-2.05-0.27-4.18,0.38-5.98,1.83c-2.42,1.95-3.93,4.71-5.05,9.24c-0.4,1.61-0.79,3.23-1.17,4.85c0.62,0.01,1.2,0.02,1.77,0.03
		c2.06,0.04,3.84,0.08,5.52-0.08C945.02,405.44,945.55,405.41,946.06,405.41z"/>
	<path d="M699.6,506.71c-0.7,0-1.39-0.29-1.89-0.85c-6.07-6.8-9.49-13.69-10.43-21.07c-0.65-5.08-0.98-10.24-1.3-15.24
		c-0.09-1.41-0.18-2.85-0.28-4.29h-56.11c-1.86,16.24-7.95,29.56-18.59,40.66c-0.97,1.01-2.57,1.05-3.58,0.08
		c-1.01-0.97-1.05-2.57-0.08-3.58c10.31-10.76,16.01-23.81,17.43-39.91c0.12-1.31,1.21-2.31,2.53-2.31h60.76
		c1.33,0,2.43,1.02,2.53,2.34c0.17,2.24,0.32,4.5,0.46,6.69c0.31,4.92,0.64,10,1.27,14.92c0.81,6.33,3.82,12.33,9.19,18.34
		c0.93,1.04,0.84,2.65-0.2,3.58C700.8,506.5,700.2,506.71,699.6,506.71z"/>
	<path d="M720.89,439.09c-1.33,0-2.45-1.04-2.53-2.38l-0.02-0.41c-0.08-1.34,0.9-2.51,2.23-2.67c1.56-0.19,3.11-0.38,4.67-0.58
		c3.56-0.45,7.23-0.92,10.89-1.23c3.02-0.26,6.07-0.36,9.02-0.46c1.68-0.06,3.42-0.12,5.12-0.2c3.03-0.15,3.04-0.35,3.17-2.76
		c0.34-6.33,0.28-12.55,0.18-17.79c-0.02-0.83-0.03-1.78-3.29-1.82c-4.66-0.05-9.64-0.08-14.51,0.09c-1,0.04-2,0.07-3,0.1
		c-4.58,0.14-9.31,0.29-13.8,0.96c-3.77,0.57-7.56,1.59-11.22,2.57c-1.58,0.43-3.22,0.87-4.81,1.26c-1.36,0.33-2.73-0.5-3.07-1.86
		c-0.33-1.36,0.5-2.73,1.86-3.07c1.53-0.38,3.07-0.79,4.7-1.23c3.8-1.02,7.72-2.08,11.78-2.69c4.79-0.72,9.68-0.87,14.4-1.02
		c0.99-0.03,1.98-0.06,2.97-0.1c4.98-0.18,10.03-0.15,14.75-0.1c7.11,0.08,8.26,4.29,8.3,6.79c0.1,5.34,0.16,11.67-0.19,18.16
		c-0.32,5.95-3.42,7.33-7.97,7.56c-1.74,0.09-3.5,0.15-5.2,0.21c-2.89,0.1-5.87,0.2-8.77,0.45c-3.55,0.3-7.17,0.76-10.68,1.21
		c-1.12,0.14-2.24,0.28-3.36,0.42c-0.4,0.34-0.91,0.55-1.47,0.58C720.99,439.09,720.94,439.09,720.89,439.09z"/>
	<path d="M707.73,438.31c-0.61,0-1.22-0.22-1.71-0.66c-1.12-1.03-2.27-2.03-3.41-3.04c-2.56-2.27-5.21-4.61-7.67-7.13
		c-4.35-4.47-9.66-6.57-16.71-6.6c-4.21-0.02-8.42-0.04-12.63-0.07c-10.25-0.06-20.86-0.11-31.28-0.13c-4.33-0.01-8.74,0.02-13,0.05
		c-4.86,0.03-9.88,0.07-14.83,0.05c-0.03,0-0.06,0-0.09,0c-4.95,0-9.08,1.77-12.65,5.41c-3.32,3.39-7.09,6.94-11.86,11.16
		c-1.05,0.93-2.65,0.83-3.58-0.22c-0.93-1.05-0.83-2.65,0.22-3.58c4.67-4.14,8.36-7.61,11.6-10.92c4.59-4.69,9.97-6.96,16.38-6.93
		c4.92,0.02,9.93-0.01,14.78-0.05c4.27-0.03,8.69-0.06,13.05-0.05c10.43,0.02,21.04,0.07,31.3,0.13c4.21,0.02,8.42,0.05,12.63,0.07
		c8.39,0.04,15.03,2.7,20.32,8.14c2.32,2.39,4.9,4.67,7.39,6.87c0.77,0.68,1.53,1.35,2.29,2.04c0.65,0.03,1.3,0.3,1.77,0.82
		c0.94,1.03,0.87,2.64-0.16,3.58l-0.44,0.4C708.95,438.09,708.34,438.31,707.73,438.31z"/>
	<path d="M866.19,350.17c-1.36,0-2.48-1.08-2.53-2.44c-0.05-1.4,1.04-2.58,2.44-2.63c2.37-0.09,4.74-0.17,7.11-0.25
		c5.76-0.2,11.72-0.4,17.57-0.69c2.64-0.13,5-1.3,6.83-3.39c1.68-1.91,3.32-3.94,4.91-5.9c0.91-1.12,1.82-2.24,2.74-3.35
		c1.8-2.17,2.26-4.65,1.35-7.39c-1.42-4.31-3.14-8.64-4.8-12.83c-0.43-1.09-0.87-2.19-1.29-3.28c-1.17-2.99-3.45-4.64-6.58-4.76
		c-11.18-0.42-24.4-0.84-37.56-0.83c-6.15,0.01-8.83,4.16-9.99,7.63c-1.73,5.18-3.23,10.57-4.68,15.78
		c-0.47,1.68-0.94,3.37-1.42,5.05c-0.17,0.61-0.26,1.31-0.38,2.2c-0.06,0.5-0.13,1.02-0.22,1.59c-0.22,1.38-1.51,2.33-2.9,2.11
		c-1.38-0.22-2.33-1.51-2.11-2.9c0.08-0.52,0.14-1,0.2-1.45c0.13-1.01,0.25-1.96,0.53-2.94c0.48-1.67,0.94-3.35,1.41-5.03
		c1.47-5.27,2.99-10.72,4.76-16.02c2.35-7.05,7.74-11.09,14.79-11.1c13.25-0.02,26.52,0.41,37.76,0.84c5.15,0.19,9.2,3.1,11.11,7.97
		c0.43,1.09,0.86,2.17,1.29,3.26c1.69,4.26,3.43,8.66,4.9,13.1c1.45,4.38,0.64,8.72-2.27,12.22c-0.91,1.1-1.81,2.2-2.7,3.31
		c-1.62,2-3.3,4.06-5.04,6.05c-2.76,3.14-6.35,4.9-10.39,5.1c-5.89,0.29-11.87,0.5-17.65,0.69c-2.36,0.08-4.73,0.16-7.09,0.25
		C866.25,350.17,866.22,350.17,866.19,350.17z"/>
	<path d="M673.02,444.09c-0.1,0-0.2,0-0.31,0c-18.25-0.08-38.22-0.09-61.05-0.06c-7.27,0.01-13.77-0.92-19.87-2.86
		c-1.46-0.46-2.93-0.84-4.5-1.24c-0.72-0.18-1.44-0.37-2.15-0.56c-1.35-0.36-2.15-1.75-1.79-3.11c0.36-1.35,1.75-2.16,3.11-1.79
		c0.7,0.19,1.39,0.37,2.09,0.54c1.56,0.4,3.18,0.81,4.77,1.32c5.59,1.77,11.6,2.64,18.33,2.62c22.84-0.04,42.82-0.02,61.08,0.06
		c7.63,0.03,15.47-1.21,24.7-3.9l0.16-0.05c0.52-0.15,1.05-0.31,1.63-0.43c0.48-0.1,0.89-0.09,1.21-0.07c0.09,0,0.19,0.01,0.3,0.01
		c1.4,0,2.54,1.14,2.54,2.54s-1.14,2.54-2.54,2.54c-0.19,0-0.36-0.01-0.51-0.01c-0.03,0-0.06,0-0.09,0
		c-0.35,0.08-0.73,0.19-1.13,0.31l-0.17,0.05C689.27,442.78,681.05,444.09,673.02,444.09z"/>
	<path d="M574.97,439.49c-0.76,0-1.51-0.34-2.01-0.99c0,0-0.01-0.01-0.01-0.01l-1.34-0.17c-4-0.5-8.15-1.03-12.21-1.43
		c-4.54-0.45-7.33-3.04-7.47-6.93c-0.23-6.49-0.23-13.41,0.01-21.78c0.06-2.22,2.68-4.93,4.92-5.08c0.94-0.06,1.87-0.13,2.81-0.2
		c9.61-0.7,19.55-1.42,28.89,3.93c0.06-0.01,0.12-0.02,0.18-0.02c1.39-0.18,2.66,0.81,2.83,2.2c0.18,1.39-0.81,2.66-2.2,2.83
		c-0.22,0.03-0.38,0.06-0.5,0.08c-0.42,0.08-1.3,0.24-2.2-0.31c-8.18-4.99-17.15-4.34-26.64-3.65c-0.85,0.06-1.7,0.12-2.54,0.18
		c-0.16,0.12-0.37,0.33-0.49,0.5c-0.23,8.11-0.23,14.84,0,21.13c0.02,0.62,0.06,1.78,2.9,2.06c4.13,0.41,8.31,0.93,12.35,1.44
		l1.63,0.21c0.82,0.1,2.03,0.52,3.1,1.92c0.85,1.11,0.65,2.7-0.46,3.56C576.06,439.32,575.51,439.49,574.97,439.49z M572.86,438.38
		L572.86,438.38L572.86,438.38z M557.61,408.07L557.61,408.07z M589.32,407.29C589.32,407.29,589.33,407.29,589.32,407.29
		C589.33,407.29,589.32,407.29,589.32,407.29z"/>
	<path d="M768.16,506.65h-27.65c-0.99,0-1.89-0.58-2.3-1.47c-0.41-0.9-0.27-1.96,0.37-2.71c6.76-7.93,11.12-17.24,13.71-29.31
		c0.25-1.17,1.28-2,2.48-2l0,0c1.2,0,2.23,0.84,2.48,2c2.53,11.8,5.68,21.29,12.81,29.27c0.67,0.75,0.83,1.81,0.42,2.73
		C770.07,506.06,769.16,506.65,768.16,506.65z M745.71,501.57h17.19c-4.02-5.69-6.5-11.8-8.25-17.77
		C752.43,490.48,749.49,496.31,745.71,501.57z"/>
	<path d="M898.92,437.49c-0.1,0-0.2,0-0.3,0c-15.76-0.26-29.54-0.37-42.12-0.35c-0.02,0-0.03,0-0.05,0c-6.41,0-11.5-2.14-14.72-6.19
		c-0.87-1.1-0.69-2.69,0.41-3.56c1.1-0.87,2.69-0.69,3.56,0.41c2.26,2.84,5.88,4.27,10.78,4.28c12.61-0.02,26.42,0.09,42.21,0.35
		c4.08,0.07,6.82-1.72,9.18-5.96c0.68-1.22,2.22-1.66,3.45-0.98c1.22,0.68,1.66,2.23,0.98,3.45
		C909.11,434.69,904.72,437.49,898.92,437.49z"/>
	<path d="M843.85,351.16c-0.58,0-1.15-0.2-1.61-0.58c-0.54-0.45-0.87-1.1-0.92-1.8l-0.03-0.4c-0.09-1.4,0.97-2.6,2.37-2.69
		c0.45-0.03,0.87,0.06,1.25,0.24c1.1-0.13,2.19-0.26,3.29-0.38c3.47-0.4,7.06-0.81,10.48-1.49c3.52-0.7,7.31-1.86,11.59-3.54
		c1.66-0.65,2.19-2.98,1.99-4.99c-0.16-1.6-0.84-2.47-2.02-2.58c-8.22-0.79-15.57-1.25-22.45-1.42c-0.53,0.03-1.79,0.89-2.03,1.38
		c-1.02,2.23-1.7,4.65-2.42,7.22c-0.13,0.47-0.27,0.95-0.4,1.43c0.27,0.52,0.36,1.13,0.22,1.74c-0.32,1.36-1.68,2.21-3.04,1.9
		l-0.69-0.16c-0.68-0.16-1.27-0.6-1.62-1.2c-0.35-0.61-0.43-1.34-0.23-2.01c0.31-1,0.6-2.04,0.88-3.05c0.74-2.64,1.5-5.37,2.69-7.96
		c1.07-2.33,4.31-4.4,6.77-4.34c7.01,0.17,14.47,0.64,22.81,1.44c3.65,0.35,6.17,3.08,6.58,7.12c0.49,4.79-1.54,8.8-5.18,10.23
		c-4.56,1.79-8.63,3.03-12.45,3.79c-3.63,0.73-7.33,1.15-10.9,1.55c-1.54,0.18-3.07,0.35-4.6,0.55
		C844.06,351.15,843.95,351.16,843.85,351.16z"/>
	<path d="M785.62,410.09c-0.24,0-0.47-0.03-0.71-0.1c-1.15-0.33-1.9-1.42-1.82-2.61c0.74-10.61,2.74-22.68,12.04-31.72
		c6.78-6.59,18.36-7.83,27.54-2.94c8.38,4.47,10.87,12.24,12.54,19.18c0.32,1.34,0.54,2.67,0.75,3.97c0.09,0.57,0.19,1.14,0.29,1.71
		c0.14,0.8-0.1,1.62-0.67,2.21c-0.56,0.59-1.38,0.87-2.18,0.75l-0.23-0.03c-1.39-0.2-2.35-1.48-2.15-2.87
		c0.01-0.09,0.03-0.18,0.05-0.26c-0.04-0.23-0.08-0.46-0.11-0.68c-0.21-1.26-0.4-2.45-0.68-3.6c-1.8-7.49-4.1-12.76-9.99-15.89
		c-7.17-3.82-16.47-2.92-21.62,2.1c-6.83,6.65-9.13,15.2-10.1,23.83c0.52,0.64,0.71,1.52,0.44,2.37c-0.08,0.24-0.15,0.49-0.22,0.74
		c-0.22,0.77-0.46,1.65-0.94,2.53C787.4,409.6,786.53,410.09,785.62,410.09z"/>
	<path d="M749.85,448c-2.96,0-5.91,0-8.82,0c-2.95,0-5.9,0-8.85,0c-1.4,0-2.54-1.14-2.54-2.54s1.14-2.54,2.54-2.54
		c2.95,0,5.9,0,8.86,0c7.15,0,14.54,0.01,21.81-0.02c1.5-0.01,5.02-0.38,5.39-3.75c1.56-14.07,1.73-25.66,0.54-36.49
		c-0.54-4.93-2.3-6.51-7.27-6.44c-2.4,0.03-4.8,0.05-7.2,0.08c-10.08,0.1-20.49,0.21-30.72,0.56c-5.95,0.21-11.82,2.21-17.43,5.95
		c-1.16,0.78-2.74,0.46-3.52-0.7c-0.78-1.16-0.46-2.74,0.7-3.52c6.41-4.28,13.16-6.57,20.07-6.8c10.28-0.35,20.73-0.46,30.84-0.56
		c2.4-0.02,4.8-0.05,7.2-0.08c7.59-0.08,11.53,3.39,12.37,10.95c1.24,11.2,1.07,23.15-0.54,37.6c-0.56,5-4.64,8.25-10.41,8.27
		C758.54,447.99,754.18,448,749.85,448z"/>
	<path d="M928.36,407.97c-1.32,0-2.44-1.03-2.53-2.36c-0.46-6.84,3.46-19.41,7.63-24.46c3.76-4.55,9.04-6.98,14.5-6.65
		c5.66,0.34,10.84,3.57,14.23,8.86c2.82,4.41,4.09,9.61,3.78,15.45c-0.07,1.4-1.26,2.47-2.67,2.4c-1.4-0.07-2.47-1.27-2.4-2.67
		c0.25-4.76-0.75-8.95-2.99-12.45c-2.5-3.91-6.24-6.29-10.26-6.53c-3.87-0.23-7.53,1.47-10.28,4.81
		c-3.34,4.05-6.85,15.37-6.48,20.89c0.09,1.4-0.96,2.61-2.36,2.7C928.48,407.97,928.42,407.97,928.36,407.97z"/>
	<path class="st2" d="M929.16,402.48"/>
	<path d="M742.22,428.07c-0.08,0-0.15,0-0.23,0c-4.1-0.14-7.52-4.12-7.46-8.7c0.03-2.53,1.02-4.91,2.72-6.55
		c1.44-1.39,3.28-2.12,5.18-2.07c4.22,0.12,7.38,3.83,7.36,8.63c0,0,0,0,0,0c-0.01,2.61-0.99,5.04-2.69,6.67
		C745.73,427.36,744.01,428.07,742.22,428.07z M742.23,415.82c-0.65,0-1.16,0.35-1.47,0.65c-0.72,0.69-1.15,1.79-1.16,2.95
		c-0.02,1.93,1.38,3.53,2.56,3.57c0.52,0.02,0.99-0.18,1.42-0.59c0.71-0.68,1.13-1.81,1.14-3.04c0.01-2.01-1.01-3.5-2.43-3.54
		C742.26,415.82,742.25,415.82,742.23,415.82z M747.24,419.37L747.24,419.37L747.24,419.37z"/>
	<path d="M564.08,428.9c-0.03,0-0.07,0-0.1,0c-3.24-0.06-6.19-3.47-6.44-7.45c-0.17-2.61,0.72-5.19,2.37-6.9
		c1.21-1.25,2.73-1.91,4.3-1.87c1.49,0.04,2.94,0.73,4.06,1.92c1.53,1.62,2.39,4.1,2.31,6.62v0
		C570.45,425.55,567.6,428.9,564.08,428.9z M564.06,417.75c-0.07,0-0.25,0.07-0.5,0.32c-0.54,0.56-1.04,1.72-0.96,3.06
		c0.1,1.49,1.1,2.62,1.49,2.7c0.44-0.01,1.37-1.06,1.42-2.77c0,0,0,0,0,0c0.05-1.42-0.48-2.49-0.94-2.98
		C564.36,417.84,564.17,417.75,564.06,417.75C564.07,417.75,564.07,417.75,564.06,417.75z"/>
	<path d="M882.41,375.29c-0.43,0-0.85-0.11-1.24-0.32l-3.41-1.91c-0.81-0.46-1.31-1.32-1.29-2.25s0.54-1.78,1.37-2.21
		c0.24-0.13,0.52-0.3,0.82-0.49c0.94-0.59,2.1-1.33,3.56-1.4c1.49-0.07,2.68,0.65,3.63,1.24c0.28,0.17,0.55,0.33,0.76,0.44
		c0.81,0.4,1.35,1.2,1.42,2.1s-0.36,1.77-1.1,2.28l-3.09,2.1C883.41,375.15,882.91,375.29,882.41,375.29z"/>
	<path d="M917.39,374.15c-1.4,0-2.55-0.65-3.48-1.17c-0.29-0.17-0.57-0.32-0.8-0.43c-0.86-0.39-1.43-1.22-1.48-2.16
		c-0.06-0.94,0.41-1.83,1.22-2.32l3.42-2.07c0.82-0.5,1.86-0.49,2.67,0.03l3.02,1.92c0.77,0.49,1.21,1.35,1.17,2.26
		c-0.04,0.91-0.57,1.72-1.38,2.14c-0.22,0.11-0.49,0.28-0.77,0.46c-0.92,0.58-2.06,1.3-3.51,1.33
		C917.45,374.15,917.42,374.15,917.39,374.15z"/>
	<path d="M813.61,493.16c-5.05,0-9.91-3.13-13.72-8.84c-4.39-6.59-6.82-14.57-7.67-25.11c-1.04-13.01,0.8-24,5.62-33.61
		c1.45-2.88,3.4-5.61,5.64-7.9c5.95-6.07,13.8-6.13,19.98-0.14c6.36,6.15,8.69,14.17,10,20.46c0.59,2.8,0.93,5.64,1.23,8.15
		c0.12,1.03,0.24,2.02,0.37,2.95c0.02,0.11,0.02,0.23,0.02,0.35c0.02,11.32-0.88,23.31-7.56,34.24c-3.67,6-8.53,9.36-13.69,9.46
		C813.77,493.15,813.69,493.16,813.61,493.16z M813.77,420.84c-2.14,0-4.22,1.02-6.03,2.97c-1.98,2.12-3.58,4.52-4.63,6.92
		c-4.79,10.96-5.78,22.61-3.03,35.6c1.61,7.61,3.9,12.46,7.66,16.2c1.99,1.98,4.15,3,6.29,2.94c2.04-0.06,4.04-1.12,5.8-3.08
		c1.87-2.09,3.6-4.79,4.99-7.82c3.3-7.17,3.92-15.14,4.09-22.68c-0.06-0.64-0.11-1.37-0.17-2.17c-0.15-2.11-0.35-4.75-0.78-7.27
		c-1.41-8.17-3.75-13.76-7.58-18.16c-1.94-2.22-4.18-3.41-6.47-3.45C813.84,420.84,813.81,420.84,813.77,420.84z"/>
	<path d="M620.58,390.7c-8.07,0-14.78-2.15-20.48-6.56c-3.52-2.72-7.91-4.01-13.8-4.06c-3.51-0.03-7.08-0.03-10.54-0.03l-2.95,0
		c-1.87,0-3.27-0.58-4.16-1.71c-0.89-1.13-1.12-2.64-0.68-4.46c0.26-1.09,0.46-2.22,0.66-3.4c0.09-0.54,0.19-1.08,0.29-1.62
		c0.26-1.38,1.58-2.28,2.96-2.03c1.38,0.26,2.29,1.58,2.03,2.96c-0.1,0.52-0.19,1.04-0.28,1.56c-0.2,1.19-0.42,2.41-0.71,3.64
		l2.84,0c3.47,0,7.05,0,10.58,0.03c7.07,0.06,12.43,1.68,16.87,5.12c4.95,3.83,10.88,5.63,18.14,5.5
		c11.44-0.21,22.79-0.26,34.37-0.29c7.98-0.02,14.62,0.04,20.9,0.21c5.76,0.15,11.65-1.3,18.01-4.43
		c8.63-4.26,18.33-6.34,29.68-6.38c8.82-0.03,17.8-0.31,26.49-0.58c2.22-0.07,4.44-0.14,6.66-0.2c4.52-0.13,4.62-0.22,5.37-4.84
		c0.07-0.44,0.18-0.82,0.28-1.19c0.04-0.14,0.08-0.29,0.12-0.44c0.34-1.36,1.72-2.18,3.08-1.84c1.36,0.34,2.18,1.72,1.84,3.08
		c-0.05,0.19-0.1,0.37-0.14,0.54c-0.07,0.26-0.13,0.49-0.16,0.66c-1.15,7.02-3.25,8.89-10.23,9.09c-2.22,0.07-4.43,0.13-6.65,0.2
		c-8.72,0.27-17.74,0.55-26.63,0.59c-10.56,0.04-19.54,1.95-27.45,5.86c-7.11,3.51-13.78,5.13-20.39,4.95
		c-6.23-0.17-12.82-0.23-20.75-0.21c-11.56,0.03-22.89,0.08-34.29,0.29C621.15,390.7,620.86,390.7,620.58,390.7z M572.82,375.6
		L572.82,375.6L572.82,375.6z M572.29,374.93L572.29,374.93L572.29,374.93z"/>
	<path d="M947.71,493.97c-0.09,0-0.17,0-0.26,0c-2.72-0.1-5.15-1.8-6.84-4.79c-2.33-4.12-4.08-8.67-5.07-13.18
		c-3.41-15.51-2.95-30.62,1.37-44.91c0.89-2.94,2.38-5.95,4.33-8.7c1.87-2.65,4.44-4.1,7.05-3.99c2.54,0.11,4.78,1.63,6.33,4.28
		c2.63,4.51,4.55,9.31,5.55,13.89c0.99,4.53,1.46,9.19,1.91,13.69c0.19,1.88,0.38,3.83,0.61,5.73c0.02,0.14,0.02,0.29,0.02,0.43
		c-0.4,8.19-1.18,16.97-4.17,25.67c-0.93,2.7-2.14,5.17-3.59,7.35C953,492.37,950.43,493.97,947.71,493.97z M948.25,425.96
		c-0.52,0-1.43,0.51-2.44,1.95c-0.73,1.03-1.38,2.27-1.94,3.67c-2.35,5.93-3.56,12.64-3.8,21.11c-0.22,7.65-0.04,17.63,3.36,27.02
		c0.76,2.11,1.92,4.17,3.25,5.8c0.52,0.63,1.05,1,1.45,1c0,0,0,0,0,0c0.42,0,0.99-0.4,1.53-1.06c1.19-1.46,2.21-3.23,2.94-5.1
		c2.91-7.46,3.46-15.43,3.94-26.69c-0.15-1.07-0.3-2.28-0.46-3.6c-0.47-3.79-1.05-8.51-2-13.09c-0.6-2.88-1.92-6.07-3.82-9.22
		c-0.66-1.1-1.4-1.77-1.98-1.79C948.27,425.96,948.26,425.96,948.25,425.96z"/>
	<path d="M814.65,446.99c-1.71,0-4.41-0.84-5.36-2.82c-0.12-0.24-0.25-0.49-0.39-0.74c-0.87-1.6-2.5-4.57,0-7.66l9.71-11.99
		c0.43-0.53,1.06-0.87,1.74-0.93c0.68-0.06,1.36,0.15,1.88,0.59l0.56,0.48c0.97,0.83,1.18,2.25,0.48,3.31
		c-0.62,0.96-1.24,1.93-1.85,2.9c-1.46,2.32-2.98,4.71-4.65,6.98c-0.73,0.98-0.64,1.59-0.21,2.21c0.18,0.08,0.67,0.24,1.88,0.37
		c0.8,0.09,1.6,0.15,2.41,0.22c1.99,0.16,4.05,0.33,6.16,0.8c1.21,0.27,2.04,1.37,1.97,2.61c-0.07,1.23-1.01,2.24-2.24,2.38
		c-1.06,0.12-2.11,0.25-3.17,0.39c-2.81,0.35-5.71,0.71-8.62,0.89C814.85,446.99,814.75,446.99,814.65,446.99z M816.65,439.45
		L816.65,439.45L816.65,439.45z"/>
	<path d="M816.56,479.04c-0.79,0-1.56-0.37-2.06-1.05c-0.78-1.08-1.58-2.15-2.38-3.21c-1.89-2.53-3.84-5.14-5.56-7.89
		c-1.16-1.86-1.09-4.46,0.21-7.13c1.12-2.31,3.49-5.13,6.49-5.46c0.94-0.1,1.84-0.1,2.71-0.09c0.22,0,0.44,0,0.66,0
		c2.34-0.01,4.69,0,7.03,0l2.7,0c1.33,0,2.43,1.03,2.53,2.35l0.07,1.02c0.1,1.38-0.93,2.59-2.31,2.71
		c-0.89,0.08-1.78,0.16-2.67,0.23c-2.08,0.19-4.24,0.38-6.37,0.52c-0.36,0.02-0.73,0.03-1.09,0.04c-1.63,0.03-1.79,0.1-2.21,0.81
		c-1.16,2-1.17,3.17-0.06,4.81c2,2.94,3.53,5.86,4.68,8.93c0.44,1.19-0.06,2.52-1.18,3.12
		C817.38,478.94,816.97,479.04,816.56,479.04z"/>
	<path d="M809.01,484.82c-0.79,0-1.57-0.37-2.06-1.06c-0.82-1.15-1.76-2.24-2.76-3.4c-3-3.5-6.4-7.46-6.64-13.58
		c-0.04-0.97,0.48-1.87,1.33-2.33c0.85-0.46,1.89-0.39,2.68,0.17c0.15,0.11,0.37,0.23,0.61,0.37c0.81,0.46,1.93,1.1,2.55,2.33
		c1.73,3.44,3.37,6.98,4.96,10.4c0.54,1.17,1.08,2.33,1.63,3.5c0.56,1.19,0.12,2.6-1.02,3.26
		C809.89,484.71,809.45,484.82,809.01,484.82z"/>
	<path d="M802.6,437.81c-0.51,0-1.03-0.16-1.47-0.47c-0.84-0.6-1.24-1.64-1-2.64c1.47-6.29,4.71-11.39,9.64-15.16
		c0.97-0.74,2.33-0.69,3.24,0.13c0.91,0.82,1.1,2.17,0.46,3.21c-0.83,1.35-1.49,2.85-2.19,4.45c-1.54,3.52-3.28,7.51-7.32,10.08
		C803.55,437.68,803.07,437.81,802.6,437.81z"/>
	<path d="M948.19,450.68c-0.8,0-2.24-0.28-3.39-2.06c-1.3-2.02-1.92-5.62-0.71-8.15c1.21-2.53,2.52-5.03,3.78-7.45
		c0.54-1.03,1.08-2.06,1.61-3.09c0.54-1.06,1.75-1.59,2.9-1.29c1.15,0.3,1.93,1.36,1.89,2.55c-0.09,2.43-1.05,4.57-1.9,6.46
		c-1.07,2.38-1.77,4.11-1.4,5.98h4.78c1.28,0,2.36,0.95,2.52,2.22l0.11,0.88c0.17,1.36-0.77,2.61-2.13,2.82
		c-0.74,0.11-1.47,0.25-2.21,0.39c-1.86,0.35-3.78,0.7-5.78,0.74C948.23,450.68,948.21,450.68,948.19,450.68z"/>
	<path d="M948.97,478.94c-0.01,0-0.02,0-0.03,0c-0.98-0.01-1.87-0.58-2.28-1.47c-0.37-0.81-0.8-1.61-1.25-2.47
		c-1.14-2.15-2.31-4.37-2.75-6.89c-0.42-2.42,0.44-4.82,1.2-6.93c0.21-0.58,0.4-1.12,0.57-1.64c0.65-2.08,3.21-2.4,4.28-2.44
		c1.67-0.06,3.34-0.05,4.95-0.04c0.62,0,1.23,0.01,1.85,0.01c1.26,0,2.32,0.92,2.51,2.16l0.14,0.92c0.2,1.37-0.73,2.65-2.09,2.88
		c-0.45,0.07-0.9,0.16-1.35,0.24c-1.06,0.2-2.16,0.4-3.3,0.51c-1.06,0.1-1.85,0.43-2.22,0.95c-0.46,0.64-0.36,1.63-0.2,2.35
		c0.34,1.48,0.91,2.96,1.52,4.52c0.29,0.75,0.59,1.52,0.87,2.31c0.21,0.58,0.69,1.95-0.13,3.63
		C950.83,478.39,949.94,478.94,948.97,478.94z"/>
	<path d="M945.48,486.31c-0.72,0-1.42-0.3-1.92-0.88c-3.36-3.88-6.54-12.25-6.2-16.29c0.08-0.98,0.73-1.83,1.66-2.17l0.78-0.28
		c0.65-0.23,1.36-0.2,1.98,0.1c0.62,0.3,1.09,0.84,1.3,1.49l4.8,14.7c0.38,1.15-0.11,2.4-1.16,2.99
		C946.33,486.21,945.9,486.31,945.48,486.31z"/>
	<path d="M941.9,442.04c-0.33,0-0.66-0.06-0.97-0.2l-1.27-0.53c-1.29-0.54-1.9-2.02-1.37-3.31l5.4-13.06
		c0.26-0.62,0.75-1.12,1.37-1.37c0.62-0.26,1.32-0.26,1.94,0l0.99,0.41c0.64,0.27,1.14,0.78,1.39,1.43c0.25,0.65,0.22,1.37-0.08,2
		c-0.73,1.53-1.21,3.23-1.72,5.02c-0.82,2.89-1.66,5.88-3.65,8.58C943.45,441.68,942.68,442.04,941.9,442.04z"/>
</g>
<path d="M581.69,800.33c-151.94,0-308.22-0.5-451.82-1.5c-1.4-0.01-2.53-1.15-2.52-2.55c0.01-1.4,1.14-2.54,2.55-2.52
	c281.74,1.96,612.42,2,863.02,0.11c0.01,0,0.01,0,0.02,0c1.39,0,2.52,1.12,2.53,2.52c0.01,1.4-1.12,2.54-2.52,2.55
	C870.08,799.87,727.89,800.33,581.69,800.33z"/>
<path d="M123.44,508.39c-1.4,0-2.54-1.13-2.54-2.53c0-1.4,1.13-2.54,2.53-2.54c174.94-0.07,320.05-0.11,460.6-0.11
	c133.03,0,261.97,0.03,408.34,0.09c1.4,0,2.53,1.14,2.53,2.54c0,1.4-1.14,2.53-2.54,2.53c0,0,0,0,0,0
	C691.36,508.25,463.97,508.25,123.44,508.39z"/>
<path class="st1" d="M909.76,598.44c-0.82,0-1.59-0.31-2.17-0.89c-1.65-1.65-1.22-4.69-0.38-9.51c0.24-1.35,0.46-2.63,0.53-3.52
	c0.04-0.45,0.11-0.9,0.19-1.32c0.06-0.34,0.15-0.86,0.16-1.17c-0.11-0.03-0.29-0.06-0.54-0.08l-0.42-0.03l-0.38-0.18
	c-4.23-1.99-6.09-5.7-7.73-8.97c-0.5-1-0.98-1.94-1.5-2.83c-0.82-1.38-1.37-2.84-1.9-4.25c-0.22-0.58-0.43-1.15-0.67-1.72
	l-1.48-3.55l3.82,0.44c3.79,0.44,7.04-0.94,10.85-4.63l0.63-0.61l0.87-0.03c3.55-0.11,7.26-1,11.67-2.8l2.49-1.02l0.56,2.63
	c0.48,2.23,0.36,4.42,0.24,6.53c-0.16,2.96-0.3,5.52,1.14,7.81l0.19,0.3l0.09,0.35c1.15,4.52,1.8,10.88-5.89,13.88
	c-3.21,1.25-4.64,3.19-5.26,7.17c-0.05,0.29-0.08,0.68-0.11,1.09c-0.19,2.16-0.54,6.17-4.4,6.84
	C910.15,598.43,909.95,598.44,909.76,598.44z M908.34,577.51c1.5,0.19,2.64,0.76,3.37,1.71c1.21,1.54,0.89,3.45,0.66,4.73
	c1.19-1.92,3.07-3.66,6.1-4.85c3.16-1.23,4.55-2.86,3.24-8.24c-2.01-3.41-1.81-6.98-1.64-10.14c0.05-0.91,0.1-1.8,0.1-2.66
	c-3.42,1.19-6.53,1.84-9.55,2.03c-2.41,2.23-5.83,4.74-10.33,5.27c0.33,0.82,0.67,1.6,1.08,2.29c0.61,1.02,1.14,2.09,1.66,3.11
	C904.49,573.64,905.75,576.14,908.34,577.51z"/>
<path class="st1" d="M886.86,629.67c-1.75,0-3.75-0.02-5.98-0.05c-1.75-0.02-3.44-0.05-4.94-0.05l-0.12,0
	c-0.67,0.01-1.92,0.01-2.79-0.97c-0.58-0.66-0.97-0.64-1.92-0.61c-1,0.04-2.85,0.11-3.96-1.7c-0.19-0.32-0.32-0.65-0.39-1
	c-1.12,0.19-2.14,0.11-3.01-0.53c-0.75-0.55-1.18-1.37-1.19-2.25c0-0.05,0-0.09,0-0.14l-2.16-2c-0.55-0.63-1.74-1.59-2.88-2.52
	c-3.02-2.44-5.41-4.38-5.21-6.68c0.09-1.01,0.67-1.88,1.61-2.41c3.32-1.85,23.92-0.78,26.76-0.25c3.19,0.6,4.92,3.1,6.3,5.12
	c0.6,0.87,1.17,1.7,1.79,2.31l0.17,0.19c0.62,0.77,1.6,1.79,2.64,2.87c3.72,3.88,5.64,6.01,5.03,8.2c-0.27,0.98-1.03,1.71-2.08,1.99
	C893.16,629.56,890.56,629.67,886.86,629.67z M875.94,625.06c1.51,0,3.23,0.03,5,0.05c3.29,0.05,7.46,0.1,10.11-0.02
	c-0.84-0.98-1.95-2.13-2.74-2.96c-1.07-1.11-2.08-2.17-2.81-3.07c-0.88-0.89-1.57-1.89-2.24-2.87c-1.28-1.86-2.15-3.01-3.42-3.24
	c-3.02-0.56-16.39-0.98-21.8-0.53c0.74,0.66,1.65,1.39,2.31,1.93c1.31,1.06,2.55,2.06,3.36,2.96l0.26,0.24
	c0.11-0.05,0.22-0.1,0.32-0.15c1.43-0.67,3.84-1.8,5.38,0.18c0.41,0.52,0.6,1.16,0.53,1.81c2.03-0.68,3.95-0.97,5.13,0.7
	c0.49,0.69,0.63,1.53,0.41,2.32c-0.21,0.74-0.67,1.26-1.26,1.68c0.46,0.23,0.92,0.54,1.38,0.96L875.94,625.06z"/>
<path class="st1" d="M923.65,611.91l-4.46-0.63l0.36-2.53c0.23-1.64,0.27-1.94,0.57-3.17l0.3-1.25c1.84-7.77,3.74-15.81,10.81-21.78
	c2.23-1.88,4.55-2.9,6.79-3.88l2.32-1.02l1.81,4.13l-2.33,1.02c-2.13,0.93-3.97,1.74-5.69,3.2c-5.93,5.01-7.58,11.99-9.33,19.37
	l-0.3,1.26c-0.25,1.03-0.26,1.16-0.49,2.76L923.65,611.91z"/>
<path class="st1" d="M898.56,565.46c-0.58,0-1.18-0.03-1.8-0.1l-0.46-0.05l-0.4-0.23c-1.03-0.59-2.3-0.57-3.77-0.54
	c-0.52,0.01-1.04,0.01-1.56,0c-0.08,0-0.28,0.02-0.41,0.04c-2.27,0.26-3.72-0.52-4.32-2.31c-0.89-2.67,1.37-4.05,2.11-4.5
	c0.12-0.08,0.24-0.15,0.35-0.22c0.89-0.67,1.81-1.24,2.7-1.79c0.36-0.22,0.71-0.44,1.07-0.67l0.61-0.39l22.29,1.22l-3.71,3.59
	C908.54,562.12,904.37,565.46,898.56,565.46z M897.68,560.91c1.99,0.16,3.84-0.19,5.72-1.13l-9.52-0.52
	c-0.17,0.1-0.34,0.21-0.51,0.31c-0.24,0.15-0.47,0.29-0.7,0.44C894.24,560,895.96,560.07,897.68,560.91z"/>
<path class="st1" d="M900.93,608.69c-0.08-1.15-0.1-1.45-0.26-2.63c-0.57-4.44,0.17-8.67,0.88-12.77c0.64-3.67,1.24-7.13,0.93-10.63
	l4.49-0.39c0.36,4.08-0.32,8-0.98,11.79c-0.68,3.94-1.33,7.67-0.85,11.43c0.16,1.28,0.2,1.67,0.28,2.89L900.93,608.69z"/>
<path class="st1" d="M900.46,796.23c-3.23,0-6.96-0.45-8.9-1.99c-1.17-0.92-1.47-2-1.52-2.74c-0.27-4.09,3.55-5.64,5.83-6.56
	l1.1-0.45c3.02-1.24,5.88-2.4,7.64-4.89c0.03-0.08,0.06-0.14,0.08-0.19c0.16-0.39,0.29-0.64,0.66-1.21
	c0.75-1.14,1.62-1.67,2.45-2.11c2.05-1.1,6.18-2.15,8.63,0.87c2.01,2.48,4.38,2.77,8.32,2.47l1.88-0.15l0.48,1.82
	c0.09,0.35,0.11,0.66,0.18,2.55c0.02,0.5,0.03,0.95,0.04,1.15l0.35,2.25l-2.32,0.28c-0.34,0.04-0.74,0.12-1.31,0.24
	c-0.42,0.09-0.92,0.19-1.51,0.3c-0.19,0.04-0.43,0.07-0.71,0.11c-1.79,0.26-3.74,0.66-4.21,2.1c-0.37,1.14-0.57,2.14-0.59,2.99
	l-0.06,2.2l-2.2-0.01c-2.65-0.01-6.13,0.05-9.64,0.64C904.05,796.07,902.34,796.23,900.46,796.23z M894.61,790.87
	c1.39,0.76,6.16,1.18,9.79,0.58c2.99-0.5,5.92-0.65,8.4-0.69c0.13-0.66,0.32-1.35,0.55-2.07l0,0c1.07-3.31,4.08-4.43,6.27-4.9
	c-2.36-0.43-4.68-1.53-6.68-3.99c-0.57-0.7-2.43-0.04-3.01,0.27c-0.53,0.28-0.65,0.37-0.8,0.61c-0.21,0.31-0.22,0.35-0.28,0.49
	c-0.06,0.13-0.12,0.29-0.24,0.54l-0.17,0.29c-2.52,3.71-6.37,5.29-9.76,6.67l-1.11,0.45C895.82,789.82,894.85,790.31,894.61,790.87z
	 M927.33,784.73l0,0.02C927.33,784.74,927.33,784.74,927.33,784.73z"/>
<path class="st1" d="M947.49,795.76c-0.17,0-0.34,0-0.52-0.01c-5.47-0.26-12.66-0.54-19.72-0.35c-2.01,0.05-10.56,0.03-12.51-0.01
	l0.1-4.51c1.87,0.04,10.38,0.07,12.29,0.01c7.21-0.2,14.51,0.09,20.06,0.36c1.39,0.07,1.62-0.21,1.7-0.74l-1.17-6.66
	c-0.59,0.13-1.12,0.15-1.56,0.11c-1.55-0.12-2.98-0.94-4.12-2.37c-1.07-1.34-2.06-2.04-2.94-2.08c-1.14-0.06-2.41,0.99-3.29,1.88
	l-0.13,0.13l-0.15,0.11c-0.21,0.16-0.67,0.66-1.04,1.06c-0.92,1.01-1.96,2.15-3.24,2.81c-1.62,0.84-3.25,1.21-4.43,1.47
	c-0.43,0.1-0.8,0.18-1.07,0.26l-1.32-4.31c0.43-0.13,0.9-0.24,1.4-0.35c1.05-0.24,2.25-0.51,3.36-1.08
	c0.56-0.29,1.34-1.15,1.98-1.84c0.52-0.57,1.02-1.12,1.54-1.53c2.21-2.2,4.38-3.22,6.61-3.11c2.22,0.11,4.32,1.38,6.23,3.76
	c0.34,0.42,0.69,0.67,0.97,0.7c0.29,0.02,0.71-0.19,1.15-0.58l2.74-2.48l1.77,6.73l1.26,7.22l-0.03,0.31
	C953.26,792.23,952.37,795.76,947.49,795.76z"/>
<path class="st1" d="M898.73,644.83l-1.93-1.95c-1.19-1.2-1.26-2.64-1.29-3.51c-0.01-0.24-0.02-0.5-0.05-0.62l-0.06-0.22l-0.01-0.23
	c-0.03-0.75-0.04-1.5-0.04-2.23c-0.01-1.52-0.01-2.96-0.29-4.27c-0.21-0.98-0.76-3.58,1.01-4.97c1.76-1.38,4.05-0.29,5.15,0.24
	l1.28,0.61l0,1.42c0,0.69,0.02,1.39,0.04,2.08c0.11,3.58,0.23,7.65-2.29,11.37L898.73,644.83z"/>
<path class="st1" d="M926.07,625.34l-2.42-0.24c-8.51-0.85-18.72-4.66-19.15-4.82l-0.28-0.1l-0.24-0.17
	c-1.21-0.86-2.86-1.65-3.41-1.63l-2.41,0.44l-0.2-2.44c-0.58-5.93-0.26-7.78,1.6-8.98l0.05-0.04c1.51-1.1,3.54-1.15,7.23-1.25
	l0.61-0.02c2.28-0.06,4.44,0.29,6.54,0.63c2.77,0.45,5.39,0.87,7.96,0.3c1.32-0.29,2.55-0.01,3.47,0.78
	c0.98,0.86,1.45,2.18,1.33,3.74c-0.15,1.85-0.51,6.66-0.62,11.36L926.07,625.34z M906.34,616.16c1.45,0.53,8.7,3.08,15.36,4.14
	c0.14-3.64,0.39-7.02,0.52-8.74c-3.16,0.54-6.1,0.07-8.95-0.39c-1.98-0.32-3.85-0.62-5.7-0.57l-0.61,0.02
	c-2.07,0.05-4.22,0.11-4.7,0.39c-0.05,0.37-0.1,1.23,0.03,3.14C903.96,614.63,905.55,615.61,906.34,616.16z"/>
<path class="st0" d="M912.3,774.91c1.43,0,2.9,0.5,4.15,2.04c1.75,2.15,3.76,2.66,6.85,2.55l0.06-0.18c0.2-1.41-0.15-2.9-0.52-4.47
	c-0.13-0.57-0.27-1.15-0.39-1.75c-1.73-6.07-1.79-12.24-1.84-18.21l-0.02-1.66c-0.04-0.71-0.09-1.41-0.14-2.12
	c-0.12-1.74-0.24-3.53-0.32-5.32c-0.02-0.4-0.3-3.99-0.39-4.93c-0.09-0.27-0.16-0.55-0.21-0.84c-0.58-3.45-1.32-6.97-2.03-10.38
	c-2.29-10.95-4.67-22.26-2.8-34.9l1.46-9.91l2.93,9.58c4.75,15.58,7.67,30.14,9.9,42.34l0,0c0.05,0.16,0.09,0.34,0.13,0.53
	c0.07,0.37,0.18,0.91,0.29,1.57c0.23,1.28,0.54,3.03,0.85,4.86c0.59,3.47,1.25,7.41,1.48,8.92c1.41,5.58,2.02,11.61,1.94,18.96
	l0.02,0.11c0.33,1.63,0.64,3.2,1.14,4.65c1.49-0.98,2.98-1.43,4.5-1.35c2.22,0.11,4.31,1.38,6.23,3.76c0.34,0.42,0.69,0.67,0.97,0.7
	c0.13,0.01,0.28-0.02,0.45-0.1l0.3-7.52c-0.95-7.51-1.26-13.33-1-18.86l0-0.07c0.25-3.22-0.97-12.11-1.37-13.6
	c-1.21-4.54-2.56-9.09-4-13.53c-3.03-9.3-1.58-18.56,0.31-28.03c3.48-17.39,3.16-31.96-0.99-45.87c-0.32-1.06-0.32-2.11-0.33-3.03
	c0-0.32,0-0.64-0.02-0.95c-1.14,1.98-2.84,3.31-4.89,3.75c-2.64,0.57-5.38-0.47-7.5-2.85c-3.67-4.12-4.42-9.19-4.53-13.02
	c-1.49-1-4.32-2.9-5.97-3.98c-4.19-2.74-8.81-3.12-14.44-1.16c0,0.18,0.01,0.35,0.02,0.53c0.1,3.48,0.22,7.41-2.07,11.04
	c-0.73,2.59-2.06,4.8-3.28,6.69l-0.24,0.77c0.05,0.9,0.11,1.8,0.18,2.7c0.41,5.99,0.84,12.19-1.69,18.34c-0.01,0.1,0,0.3,0.01,0.43
	c0.01,0.2,0.01,0.4,0.01,0.6l-0.11,7.4c-0.11,7.35-0.23,14.96-0.31,22.43c-0.06,5.65,0.21,12.25,2.71,18.37
	c1.31,3.21,2.36,6.51,3.36,9.69c0.8,2.52,1.62,5.12,2.56,7.61c0.03,0.08,3.03,8.22,3.35,10.4c0.15,1,0.49,2.04,0.86,3.13
	c0.18,0.55,0.37,1.11,0.53,1.67c1.67,6.05,3.32,16.49,1.79,20.89c-0.35,1.01-0.52,1.59-0.55,2.03
	C910.47,775.12,911.37,774.91,912.3,774.91z M919.83,741.13c0.01,0.01,0.01,0.03,0.02,0.04l0-0.01
	C919.84,741.15,919.83,741.14,919.83,741.13z M895.45,670.69L895.45,670.69L895.45,670.69z"/>
<path class="st1" d="M933.56,651.82c-2.18,0-4.33-1.05-6.07-3.01c-4.07-4.57-4.55-10.31-4.55-14.23l0-4.32l3.55,2.47
	c2.34,1.63,9.29,6.03,13.34,6.78l2.3,0.43l-0.51,2.28c-0.08,0.34-0.15,0.69-0.22,1.04c-0.17,0.83-0.34,1.7-0.62,2.57
	c-0.98,3.13-3.1,5.26-5.79,5.84C934.51,651.77,934.03,651.82,933.56,651.82z M927.76,638.91c0.47,2.87,1.47,5.08,3.09,6.9
	c1.01,1.14,2.17,1.66,3.19,1.45c1.06-0.23,1.95-1.24,2.44-2.78c0.11-0.36,0.21-0.74,0.29-1.13
	C933.72,642.32,930.31,640.45,927.76,638.91z"/>
<path class="st1" d="M926.6,621.15c0.98,0.17,1.99,0.28,3.04,0.4c2.47,0.27,5,0.56,7.49,1.58c-0.07-0.51-0.15-1.03-0.24-1.56
	c-0.44-2.82-0.89-5.73-0.29-8.91l0.39-2.05l2.07,0.23c6.54,0.73,11.3,0.32,14.17-1.2c0-1.41,0.01-2.71,0.01-3.93
	c0.04-9.44,0.05-13.35-1.48-17.02c-1.62-3.87-6.07-5.4-8.44-5.69c-2.85-0.35-4.37-1.03-5.83-1.69c-0.34-0.15-0.7-0.31-1.09-0.48
	l-0.27-0.11c-2.11-0.87-6.6-2.73-9.43-6.31c-0.05,3.43-1.49,6.89-6.59,8.88c-3.21,1.25-4.64,3.19-5.26,7.17
	c-0.05,0.29-0.08,0.68-0.11,1.09c-0.19,2.16-0.54,6.17-4.4,6.84c-1.04,0.18-2.04-0.13-2.75-0.84c-1.65-1.65-1.22-4.69-0.38-9.51
	c0.24-1.35,0.46-2.63,0.53-3.52c0.04-0.45,0.11-0.9,0.19-1.32c0.04-0.21,0.09-0.48,0.12-0.74c-1.17,1.09-1.67,1.56-1.94,1.76
	c-0.03,0.03-0.07,0.06-0.12,0.11c-0.4,0.35-1.13,1.01-2.62,1.83c-0.8,0.44-1.52,0.75-2.15,1.03c-0.69,0.3-1.28,0.56-1.79,0.9
	c-4.77,3.16-8.16,11.26-7.12,17l0.03,0.2c0.02,0.17,0.39,4.32,0.4,7.79c0,0.15,0.03,0.21,0.03,0.21c0.46,0.65,3.81,0.58,4.91,0.55
	c0.04,0,0.08,0,0.11,0c-0.16-2.89-0.01-4.58,1.19-5.92c1.5-1.65,3.76-1.71,7.86-1.81l0.61-0.02c2.28-0.06,4.44,0.29,6.54,0.63
	c2.77,0.45,5.39,0.87,7.96,0.3c1.32-0.29,2.55-0.01,3.47,0.78c0.98,0.86,1.45,2.18,1.33,3.74c-0.11,1.35-0.07,2.73-0.03,4.19
	C926.76,617.5,926.81,619.3,926.6,621.15z M938.75,628.45c-1.07,0-2.02-0.51-2.42-0.73c-2.14-1.15-4.59-1.42-7.19-1.71
	c-1.88-0.21-3.83-0.43-5.76-0.99l-2.09-0.6l0.53-2.11c0.51-2.04,0.45-4.19,0.39-6.46c-0.04-1.4-0.08-2.84,0.02-4.3
	c-3.16,0.54-6.1,0.07-8.95-0.39c-1.98-0.32-3.85-0.62-5.7-0.57l-0.61,0.02c-1.98,0.05-4.02,0.1-4.62,0.35
	c-0.21,0.65-0.04,2.86,0.11,4.99l0.21,2.86l-2.83-0.44c-0.38-0.06-1.28-0.05-2.07-0.03c-2.74,0.06-6.14,0.13-8.14-1.83
	c-0.91-0.89-1.39-2.07-1.39-3.43c-0.01-3-0.32-6.67-0.37-7.29c-1.31-7.52,2.83-17.32,9.08-21.46c0.83-0.55,1.66-0.91,2.46-1.27
	c0.58-0.25,1.17-0.52,1.8-0.86c1.04-0.57,1.49-0.97,1.79-1.24c0.13-0.12,0.24-0.21,0.34-0.29c0.2-0.16,1.09-0.99,1.68-1.54
	c0.42-0.39,0.84-0.78,1.17-1.09l0.71-0.66l0.97,0.07c1.74,0.12,3.04,0.71,3.85,1.75c1.21,1.54,0.89,3.45,0.66,4.73
	c1.19-1.92,3.07-3.66,6.1-4.85c3.22-1.26,4.6-2.93,3.16-8.56l-0.86-3.38l3.43,0.6c0.22,0.04,0.46,0.06,0.69,0.09
	c1.3,0.15,3.48,0.41,4.5,2.46c1.71,3.47,6.43,5.42,8.45,6.25l0.29,0.12c0.43,0.18,0.82,0.36,1.2,0.53c1.37,0.62,2.36,1.06,4.53,1.33
	c4.15,0.51,9.8,3.02,12.06,8.42c1.88,4.51,1.87,8.69,1.83,18.77c-0.01,1.56-0.01,3.27-0.01,5.16v1.14l-0.92,0.68
	c-4.29,3.14-10.78,3.26-16,2.84c-0.04,1.74,0.23,3.5,0.52,5.33c0.15,0.98,0.31,2,0.42,3.03c0.08,0.72,0.31,2.93-1.34,4.04
	C939.88,628.32,939.3,628.45,938.75,628.45z"/>
<path class="st1" d="M909.67,560.12l-18.66-1.02l0.02-2.16c0.01-0.82,0.12-1.56,0.22-2.22c0.04-0.24,0.07-0.47,0.1-0.69
	c0.04-0.36,0.07-0.74,0.1-1.12c0.03-0.4,0.07-0.82,0.11-1.23c0.12-3.41,1.66-6.43,4.45-8.74c4.91-4.07,12.47-5.08,17.41-4.3
	c7.07,1.12,12.08,8.72,10.95,16.58l-0.18,1.28l-1.19,0.49c-4.92,2.01-9.13,3.01-13.23,3.13L909.67,560.12z M895.79,554.85
	l13.93,0.76c3.17-0.11,6.48-0.84,10.3-2.29c0.14-4.94-3.05-9.55-7.3-10.22c-4-0.63-10.21,0.31-13.83,3.32
	c-1.81,1.5-2.76,3.35-2.82,5.5l-0.01,0.19c-0.05,0.4-0.08,0.79-0.11,1.17c-0.03,0.44-0.07,0.87-0.12,1.29
	C895.82,554.66,895.81,554.75,895.79,554.85z"/>
<path class="st1" d="M937.55,790.49l-5.55-9.47c-1.59-2.72-2.17-5.62-2.74-8.42l-0.12-0.58l0-0.24c0.1-7.1-0.48-12.86-1.82-18.14
	l-0.04-0.21c-0.38-2.47-1.69-10.24-2.34-13.83l-0.04,0l-0.37-2.03c-1.48-8.11-3.27-17.28-5.71-27.08
	c0.56,6.26,1.83,12.31,3.07,18.24c0.72,3.45,1.47,7.02,2.07,10.56c0.01,0.06,0.02,0.1,0.04,0.14l-0.01,0c0.18,0.48,0.23,1,0.27,1.48
	c0.04,0.49,0.1,1.15,0.15,1.82c0.09,1.12,0.21,2.66,0.21,2.88c0.08,1.73,0.19,3.5,0.31,5.21c0.05,0.73,0.1,1.46,0.14,2.2l0,0.12
	l0.02,1.73c0.05,5.96,0.11,11.6,1.69,17.1l0.05,0.2c0.1,0.54,0.23,1.09,0.37,1.66c0.45,1.91,0.97,4.08,0.55,6.44l-0.09,0.33
	l-1.08,3.21l-1.48,0.12c-4.02,0.31-8.6,0.28-12.17-4.12c-0.43-0.54-0.95-0.55-3.33,0.42c-0.2,0.08-0.39,0.16-0.59,0.24l-2.1,0.83
	l-0.83-2.1c-0.1-0.25-0.19-0.46-0.28-0.66c-0.83-1.92-1.09-3.2,0.11-6.64c0.9-2.6,0-11.43-1.86-18.17
	c-0.14-0.47-0.31-0.98-0.47-1.48c-0.41-1.23-0.83-2.51-1.04-3.9c-0.19-1.26-2.43-7.66-3.11-9.46c-0.98-2.6-1.82-5.26-2.64-7.84
	c-0.98-3.1-2-6.31-3.24-9.35c-2.81-6.86-3.11-14.02-3.04-20.13c0.09-7.49,0.2-15.09,0.31-22.45l0.11-7.39c0-0.12,0-0.24-0.01-0.37
	c-0.02-0.59-0.05-1.4,0.3-2.24c2.17-5.2,1.79-10.64,1.39-16.39c-0.07-1.06-0.15-2.12-0.2-3.18l-0.02-0.41l0.67-2.14l0.17-0.26
	c1.14-1.74,2.39-3.78,2.96-5.98l0.1-0.38l0.22-0.32c1.7-2.52,1.62-5.39,1.52-8.71c-0.02-0.74-0.04-1.47-0.05-2.2l0-1.52l1.41-0.57
	c7.68-3.12,14.23-2.78,20.04,1.02c2.3,1.5,6.8,4.54,6.99,4.67l0.99,0.67l0,1.2c0,5.13,1.05,8.59,3.41,11.24
	c1.01,1.14,2.17,1.66,3.19,1.45c1.06-0.23,1.95-1.24,2.44-2.78c0.2-0.65,0.35-1.36,0.5-2.11c0.08-0.38,0.15-0.76,0.24-1.14
	l0.39-1.76h2.04l0.24,0.05c0.08,0.02,0.82,0.18,1.91,0.35l1.63,0.26l0.85,5.77l0.1,1.68c0.03,0.42,0.03,0.85,0.03,1.26
	c0,0.68,0.01,1.32,0.14,1.77c4.32,14.44,4.67,30.16,1.09,48.05c-1.84,9.19-3.14,17.48-0.45,25.74c1.47,4.52,2.84,9.15,4.07,13.76
	c0.48,1.79,1.8,11.19,1.51,15.07c-0.24,5.29,0.06,10.92,0.99,18.23l0.02,0.19l-0.39,9.95l-0.7,0.64c-1.76,1.59-3.43,1.82-4.53,1.73
	c-1.55-0.12-2.98-0.94-4.12-2.37c-1.07-1.34-2.06-2.04-2.94-2.08c-0.93-0.05-1.93,0.64-2.75,1.37L937.55,790.49z M912.3,774.91
	c1.43,0,2.9,0.5,4.15,2.04c1.75,2.15,3.76,2.66,6.85,2.55l0.06-0.18c0.2-1.41-0.15-2.9-0.52-4.47c-0.13-0.57-0.27-1.15-0.39-1.75
	c-1.73-6.07-1.79-12.24-1.84-18.21l-0.02-1.66c-0.04-0.71-0.09-1.41-0.14-2.12c-0.12-1.74-0.24-3.53-0.32-5.32
	c-0.02-0.4-0.3-3.99-0.39-4.93c-0.09-0.27-0.16-0.55-0.21-0.84c-0.58-3.45-1.32-6.97-2.03-10.38c-2.29-10.95-4.67-22.26-2.8-34.9
	l1.46-9.91l2.93,9.58c4.75,15.58,7.67,30.14,9.9,42.34l0,0c0.05,0.16,0.09,0.34,0.13,0.53c0.07,0.37,0.18,0.91,0.29,1.57
	c0.23,1.28,0.54,3.03,0.85,4.86c0.59,3.47,1.25,7.41,1.48,8.92c1.41,5.58,2.02,11.61,1.94,18.96l0.02,0.11
	c0.33,1.63,0.64,3.2,1.14,4.65c1.49-0.98,2.98-1.43,4.5-1.35c2.22,0.11,4.31,1.38,6.23,3.76c0.34,0.42,0.69,0.67,0.97,0.7
	c0.13,0.01,0.28-0.02,0.45-0.1l0.3-7.52c-0.95-7.51-1.26-13.33-1-18.86l0-0.07c0.25-3.22-0.97-12.11-1.37-13.6
	c-1.21-4.54-2.56-9.09-4-13.53c-3.03-9.3-1.58-18.56,0.31-28.03c3.48-17.39,3.16-31.96-0.99-45.87c-0.32-1.06-0.32-2.11-0.33-3.03
	c0-0.32,0-0.64-0.02-0.95c-1.14,1.98-2.84,3.31-4.89,3.75c-2.64,0.57-5.38-0.47-7.5-2.85c-3.67-4.12-4.42-9.19-4.53-13.02
	c-1.49-1-4.32-2.9-5.97-3.98c-4.19-2.74-8.81-3.12-14.44-1.16c0,0.18,0.01,0.35,0.02,0.53c0.1,3.48,0.22,7.41-2.07,11.04
	c-0.73,2.59-2.06,4.8-3.28,6.69l-0.24,0.77c0.05,0.9,0.11,1.8,0.18,2.7c0.41,5.99,0.84,12.19-1.69,18.34c-0.01,0.1,0,0.3,0.01,0.43
	c0.01,0.2,0.01,0.4,0.01,0.6l-0.11,7.4c-0.11,7.35-0.23,14.96-0.31,22.43c-0.06,5.65,0.21,12.25,2.71,18.37
	c1.31,3.21,2.36,6.51,3.36,9.69c0.8,2.52,1.62,5.12,2.56,7.61c0.03,0.08,3.03,8.22,3.35,10.4c0.15,1,0.49,2.04,0.86,3.13
	c0.18,0.55,0.37,1.11,0.53,1.67c1.67,6.05,3.32,16.49,1.79,20.89c-0.35,1.01-0.52,1.59-0.55,2.03
	C910.47,775.12,911.37,774.91,912.3,774.91z M919.83,741.13c0.01,0.01,0.01,0.03,0.02,0.04l0-0.01
	C919.84,741.15,919.83,741.14,919.83,741.13z M895.45,670.69L895.45,670.69L895.45,670.69z"/>
</svg>
