<?xml version="1.0" encoding="utf-8"?>
<!-- Generator: Adobe Illustrator 24.0.2, SVG Export Plug-In . SVG Version: 6.00 Build 0)  -->
<svg version="1.1" id="Capa_1" xmlns="http://www.w3.org/2000/svg" xmlns:xlink="http://www.w3.org/1999/xlink" x="0px" y="0px"
	 viewBox="0 0 1024 368.15" style="enable-background:new 0 0 1024 368.15;" xml:space="preserve">
<style type="text/css">
	.st0{fill:#E02524;}
	.st1{fill:#E02524;stroke:#E02524;stroke-width:0.7791;stroke-miterlimit:10;}
</style>
<g>
	<path class="st0" d="M295.77,338.13H77.5c-26.96,0-48.89-19.93-48.89-44.43V66.5c0-24.5,21.93-44.43,48.89-44.43h218.27
		c26.96,0,48.89,19.93,48.89,44.43v227.2C344.67,318.2,322.73,338.13,295.77,338.13z M77.5,36.83c-18,0-32.65,13.31-32.65,29.66
		v227.2c0,16.36,14.64,29.66,32.65,29.66h218.27c18,0,32.65-13.31,32.65-29.66V66.5c0-16.36-14.64-29.66-32.65-29.66H77.5z"/>
	<path class="st0" d="M254.98,166.09c0,0,25.81-0.12,33.82-5.77c0,0-13.91,2.36-33.82-0.35c0,0,2.59-22.86-16.14-37.47
		c0,0-12.02-39.59,17.68-46.19c0,0-31.82-13.43-65.05,26.63c0,0-50.67-3.77-98.51,29.22c0,0,7.54,11.08,21.92,20.74
		c0,0-16.73-3.89-30.4,15.67c0,0,12.02-6.83,26.99-8.07c1.04-0.09,15.13-1.15,16.07-0.7c2.28,1.08,5.98-1,5.98-1
		c-1.15-0.8-0.71-7.51-0.71-7.51c0.27,3.09,6.54,5.48,6.54,5.48c-1.06-2.65,2.74-4.86,2.74-4.86c-0.09,4.07,5.21,5.48,5.21,5.48
		c-0.97-2.03,4.07-5.57,4.07-5.57c0.62,3.8,5.39,5.39,5.39,5.39c-1.06-2.3,3-4.24,3-4.24c0.09,4.07,5.39,4.24,5.39,4.24
		c-0.53-2.74,2.83-4.24,2.83-4.24c0.27,3.36,5.57,4.68,5.57,4.68c-0.71-2.47,2.39-3.8,2.39-3.8c7.51,5.83-0.27,12.55-0.27,12.55
		l-4.33-3.71l-3.98,3.98l-3.62-4.24l-3.8,5.74l-3.71-4.07l-2.03,5.3c0.18-2.03-3.62-4.6-3.62-4.6c1.59,2.12-1.86,5.04-1.86,5.04
		c-1.94,0-2.47-4.33-2.47-4.33c-1.86,0.18-2.83,5.48-2.83,5.48c-1.59-0.44-2.15-4.95-2.15-4.95c-1.65-1-2,8.31-2,8.31l-2.71-4.48
		c-4.24,3.77,0.47,8.48,0.47,8.48c8.01,6.83,19.09,1.41,19.09,1.41s44.31-18.62,53.03-8.01c0,0,0.71-3.77,5.89-2.36
		c5.18,1.41,21.21,3.77,18.85,23.33c-2.36,19.56-22.15,12.49-31.58,10.37c-6.72-1.51-24.95-12.25-34.85-18.29
		c11.1,7.43,32.19,24.27,31.32,44.45l15.32-8.72c0,0,1.18,10.37-8.01,16.97l1.89,48.55c0,0,25.45-53.26,27.1-76.12l7.07-8.48
		c0,0,5.18,8.25,8.25,8.96c0,0-0.12-2-4.12-16.03C246.26,194.38,254.98,186.13,254.98,166.09z M167.39,126.42
		c-6.13,4.71-12.45,2.44-12.45,2.44s13.91,0,8.01-11.55C162.95,117.31,173.52,121.71,167.39,126.42z M229.41,215l-15.91,40.65
		l7.42-36.94l-13.96-6.54c0,0,38.24,11.43,32.35-46.13C239.31,166.04,248.03,188.48,229.41,215z M246.14,172.69
		c0,0-1.89-37-28.93-49.79c-22.46-10.62-57.98-16.62-107.47,2.65c0,0,39.34-26.85,93.86-15.38
		C252.04,120.37,246.14,172.69,246.14,172.69z"/>
	<g>
		<path class="st0" d="M480.34,174.55c0,18.7-12,27.6-23.87,29.53c-4.44,0.74-7.44,0.74-12,0.74H413.8v-99.03h21.47
			c4.44,0,7.31,0,11.74,0.59c14.35,2.23,22.44,10.98,22.44,25.22c0,11.57-0.74,17.15-10.78,19.13
			C469.89,150.91,480.34,155.31,480.34,174.55z M428.15,145.62h8.03c2.22,0,4.44-0.15,6.78-0.59c7.96-1.48,11.35-3.32,11.35-11.63
			c0-9.05-5.09-13.35-12.26-14.24c-2.09-0.3-4.7-0.45-6.78-0.45h-7.12V145.62z M465.2,175.29c0-11.13-5.61-15.58-13.31-16.62
			c-2.61-0.45-4.7-0.45-6.78-0.45h-16.96v33.53h17.74c2.09,0,4.44,0,6.13-0.15C459.46,190.87,465.2,185.24,465.2,175.29z"/>
		<path class="st0" d="M506.32,119.06c0,4.86-3.23,8.41-7.51,8.41s-7.39-3.55-7.39-8.41c0-4.73,3.12-8.27,7.39-8.27
			S506.32,114.33,506.32,119.06z M492.46,204.82v-69.74h12.7v69.74H492.46z"/>
		<path class="st0" d="M544.3,183.54c0,2.36,0,4.47,0.11,6.57c0.23,3.94,1.85,5.25,7.28,4.73v10.11c-2.54,0.39-5.43,0.66-8.31,0.66
			c-6.7,0-11.2-2.76-11.66-11.69c-0.11-2.63-0.11-5.78-0.11-9.98v-78.14h12.7V183.54z"/>
		<path class="st0" d="M583.79,183.54c0,2.36,0,4.47,0.12,6.57c0.23,3.94,1.85,5.25,7.28,4.73v10.11c-2.54,0.39-5.43,0.66-8.31,0.66
			c-6.7,0-11.2-2.76-11.66-11.69c-0.12-2.63-0.12-5.78-0.12-9.98v-78.14h12.7V183.54z"/>
		<path class="st0" d="M623.87,119.06c0,4.86-3.23,8.41-7.51,8.41c-4.27,0-7.39-3.55-7.39-8.41c0-4.73,3.12-8.27,7.39-8.27
			C620.64,110.79,623.87,114.33,623.87,119.06z M610.01,204.82v-69.74h12.7v69.74H610.01z"/>
		<path class="st0" d="M700.32,165.55v39.27h-12.7v-37.69c0-3.28,0-6.3-0.23-9.85c-0.58-7.88-4.27-13.4-12.93-13.4
			c-8.78,0-15.94,7.88-15.94,29.68v31.26h-12.7v-69.74h12.7v11.56l4.16-8.01c4.85-4.2,9.35-5.38,15.47-5.38
			c13.16,0,20.67,7.75,21.83,19.96C700.2,156.75,700.32,159.9,700.32,165.55z"/>
		<path class="st0" d="M778.77,187.48c0,4.33,0,9.72-0.12,13.53c-0.69,21.15-8.42,34.19-26.9,34.19c-17.67,0-27.02-4.48-28.29-19.45
			l-0.12-1.31h12.47l0.11,1.18c0.81,7.49,6.47,8.68,15.94,8.68c11.09,0,13.62-9.23,14.08-21.71c0.12-3.02,0.12-5.52,0.12-8.01v-1.44
			c0,0-1.92,5.48-3.33,7.2c-2.98,3.62-10.75,5.67-16.99,5.67c-17.67,0-27.95-14.71-27.95-35.2c0-25.48,13.86-37.56,29.68-37.56
			c5.08,0,11.43,1.58,14.55,4.33l4.04,6.96v-9.46h12.7V187.48z M766.06,170.02V167c0-16.94-9.01-23.25-17.21-23.25
			c-10.05,0-17.67,8.41-17.67,25.74c0,15.1,6.12,26,17.09,26C757.87,195.5,766.06,188.67,766.06,170.02z"/>
		<path class="st0" d="M858.84,127.46h-14.02c-0.98-11.05-7.62-10.49-17.46-10.49c-7.99,0-14.26,4.19-14.26,13.28
			c0,9.37,5.04,13.7,18.2,17.2c18.69,4.89,27.54,13.98,27.54,30.06c0,17.48-13.65,28.1-30.12,28.1c-19.42,0-28.12-4.64-29.84-24.08
			h14.02c2.21,11.88,5.87,12.33,15.83,12.33c8.85,0,15.86-5.45,15.86-14.26c0-10.07-5.16-15.24-18.93-18.88
			c-16.1-4.33-26.8-11.19-26.8-27.96c0-17.06,13.4-27.54,29.26-27.54C846.92,105.23,857.12,110.68,858.84,127.46z"/>
		<path class="st0" d="M935.24,169.02c0,20.26-10.46,36.6-30.92,36.6c-20.57,0-30.92-16.34-30.92-36.6s10.34-36.47,30.92-36.47
			C924.78,132.55,935.24,148.76,935.24,169.02z M921.79,169.02c0-15.69-6.44-26.01-17.47-26.01c-11.15,0-17.59,10.33-17.59,26.01
			s6.44,26.14,17.59,26.14C915.36,195.16,921.79,184.7,921.79,169.02z"/>
		<path class="st0" d="M968.36,129.93v5.28h12.66v10.17h-12.66v59.43H955.7v-59.43h-6.62v-10.17h6.62v-4.49c0-2.51,0-5.94,0.23-8.32
			c1.04-10.83,7.43-17.17,19.04-17.17c2.55,0,4.99,0.26,7.08,0.79v10.83c-7.55-1.58-12.66,0.53-13.35,6.34
			C968.48,125.04,968.36,127.94,968.36,129.93z"/>
	</g>
	<g>
		<g>
			<path class="st1" d="M425.05,247.97h-7.73l-2.07,5.13h-0.37l6.13-15.5h0.37l6.13,15.5h-0.37L425.05,247.97z M417.47,247.64h7.44
				l-3.73-9.58L417.47,247.64z"/>
			<path class="st1" d="M428,253.43h-1.08l-2.09-5.13h-7.28l-2.07,5.13h-1.08l6.4-16.16h0.35l0.05-0.13l0.05,0.13h0.37L428,253.43z
				 M417.96,247.31h6.47l-3.25-8.33L417.96,247.31z"/>
		</g>
		<g>
			<path class="st1" d="M434.93,237.84c10.02,0,10.02,15.26,0,15.26h-5.15c0-5.08,0-10.17,0-15.26H434.93z M434.93,252.77
				c9.58,0,9.58-14.6,0-14.6h-4.82c0,4.74,0,9.86,0,14.6H434.93z"/>
			<path class="st1" d="M434.93,253.43h-5.48v-15.92h5.48c5.39,0,7.84,4.13,7.84,7.96C442.78,249.3,440.32,253.43,434.93,253.43z
				 M430.44,252.44h4.49c4.71,0,6.85-3.61,6.85-6.97c0-3.36-2.14-6.97-6.85-6.97h-4.49V252.44z"/>
		</g>
		<g>
			<path class="st1" d="M445.5,253.1h-0.33v-15.28h0.35l6.33,9.36l6.35-9.36h0.35v15.28h-0.33v-14.78l-6.22,9.25h-0.28l-6.22-9.25
				V253.1z"/>
			<polygon class="st1" points="458.88,253.43 457.89,253.43 457.89,239.41 452.18,247.91 451.54,247.91 445.83,239.41 
				445.83,253.43 444.84,253.43 444.84,237.49 445.17,237.49 445.17,237.23 445.34,237.49 445.7,237.49 451.85,246.59 
				458.02,237.49 458.38,237.49 458.55,237.23 458.55,237.49 458.88,237.49 			"/>
		</g>
		<g>
			<path class="st1" d="M468.09,238.15h-3.25v14.62h3.25v0.33c-2.27,0-4.56,0-6.83,0v-0.33h3.25v-14.62h-3.25v-0.31
				c2.27,0,4.56,0,6.83,0V238.15z"/>
			<polygon class="st1" points="468.42,253.43 460.92,253.43 460.92,252.44 464.17,252.44 464.17,238.48 460.92,238.48 
				460.92,237.51 468.42,237.51 468.42,238.48 465.17,238.48 465.17,252.44 468.42,252.44 			"/>
		</g>
		<g>
			<path class="st1" d="M470.77,253.1v-15.3l0.31,0.02l10.15,14.67v-14.67h0.33v15.28h-0.35l-10.08-14.58v14.58H470.77z"/>
			<polygon class="st1" points="481.56,253.55 481.47,253.43 481.03,253.43 471.45,239.58 471.45,253.43 470.44,253.43 
				470.44,237.44 470.79,237.47 470.79,237.45 470.8,237.47 471.26,237.5 480.89,251.42 480.89,237.49 481.88,237.49 481.88,253.43 
				481.56,253.43 			"/>
		</g>
		<g>
			<path class="st1" d="M491.09,238.15h-3.25v14.62h3.25v0.33c-2.27,0-4.56,0-6.83,0v-0.33h3.25v-14.62h-3.25v-0.31
				c2.27,0,4.56,0,6.83,0V238.15z"/>
			<polygon class="st1" points="491.42,253.43 483.93,253.43 483.93,252.44 487.18,252.44 487.18,238.48 483.93,238.48 
				483.93,237.51 491.42,237.51 491.42,238.48 488.17,238.48 488.17,252.44 491.42,252.44 			"/>
		</g>
		<g>
			<path class="st1" d="M503.14,241.03c-0.13-0.63-0.39-1.18-0.83-1.66c-0.94-1-2.44-1.42-3.82-1.4c-1.44,0.02-3.08,0.55-3.99,1.75
				c-0.55,0.68-0.74,1.48-0.68,2.34c0.39,5.35,8.95,1.16,10,6.05c0.7,3.23-2.36,5.15-5.26,5.15c-2.23,0-4.93-1.27-5.19-3.73
				l-0.02-0.15l0.35-0.04l0.02,0.15c0.24,2.29,2.79,3.45,4.87,3.45c2.66,0,5.54-1.72,4.91-4.76c-0.98-4.54-9.6-0.39-9.99-6.09
				c-0.09-0.92,0.15-1.81,0.72-2.55c2.23-2.88,8.51-2.51,9.25,1.44l0.02,0.17l-0.33,0.07L503.14,241.03z"/>
			<path class="st1" d="M498.55,253.58c-2.47,0-5.25-1.41-5.52-4.03l-0.07-0.48l1.01-0.13l0.07,0.48c0.23,2.18,2.79,3.16,4.54,3.16
				c1.62,0,3.14-0.64,3.98-1.67c0.62-0.76,0.82-1.66,0.61-2.69c-0.41-1.89-2.31-2.08-4.5-2.31c-2.47-0.25-5.27-0.53-5.5-3.83
				c-0.1-1.01,0.17-1.98,0.79-2.78c1.26-1.63,3.9-2.4,6.28-1.83c1.95,0.47,3.25,1.71,3.57,3.41l0.06,0.5l-0.98,0.2l-0.06-0.52
				c-0.12-0.58-0.37-1.07-0.75-1.49c-0.77-0.83-2.12-1.33-3.57-1.29c-1.22,0.02-2.85,0.45-3.74,1.62c-0.47,0.58-0.67,1.29-0.61,2.11
				c0.18,2.46,2.25,2.67,4.63,2.91c2.25,0.22,4.79,0.48,5.36,3.09c0.28,1.3,0.01,2.51-0.78,3.49
				C502.33,252.79,500.49,253.58,498.55,253.58z"/>
		</g>
		<g>
			<path class="st1" d="M508.96,253.1v-14.93h-5.28v-0.35h10.89v0.35h-5.28v14.93H508.96z"/>
			<polygon class="st1" points="509.62,253.43 508.63,253.43 508.63,238.5 503.35,238.5 503.35,237.49 514.9,237.49 514.9,238.5 
				509.62,238.5 			"/>
		</g>
		<g>
			<path class="st1" d="M517.37,253.1h-0.33v-15.1v-0.17h0.17h5.11c6.11,0,6.11,8.93,0,8.93h-2.47l7.03,6.35h-0.5l-7.03-6.35v-0.33
				h2.97c5.67,0,5.67-8.25,0-8.25h-4.95V253.1z"/>
			<path class="st1" d="M527.74,253.43h-1.49l-7.23-6.54v-0.81h3.3c2.7,0,3.92-1.97,3.92-3.79c0-1.83-1.23-3.79-3.92-3.79h-4.62
				v14.93h-0.99v-15.94h5.61c3.23,0,4.92,2.41,4.92,4.79c0,1.25-0.44,2.42-1.23,3.29c-0.9,0.98-2.17,1.5-3.68,1.5h-1.6
				L527.74,253.43z"/>
		</g>
		<g>
			<path class="st1" d="M538.97,247.97h-7.73l-2.07,5.13h-0.37l6.13-15.5h0.37l6.13,15.5h-0.37L538.97,247.97z M531.4,247.64h7.44
				l-3.73-9.58L531.4,247.64z"/>
			<path class="st1" d="M541.93,253.43h-1.08l-2.09-5.13h-7.28l-2.07,5.13h-1.08l6.4-16.16h0.35l0.05-0.13l0.05,0.13h0.37
				L541.93,253.43z M531.88,247.31h6.47l-3.25-8.33L531.88,247.31z"/>
		</g>
		<g>
			<path class="st1" d="M556.56,242.49c-0.35-0.81-0.85-1.53-1.44-2.14c-1.29-1.33-3.08-2.14-5.04-2.14s-3.75,0.81-5.04,2.14
				c-1.29,1.33-2.1,3.14-2.1,5.13c0,2.01,0.81,3.82,2.1,5.13c1.29,1.33,3.08,2.16,5.04,2.16s3.75-0.83,5.04-2.16
				c0.59-0.61,1.09-1.31,1.44-2.12h0.37c-0.37,0.89-0.92,1.7-1.57,2.38c-1.35,1.4-3.21,2.25-5.28,2.25c-2.07,0-3.93-0.85-5.28-2.25
				c-1.33-1.38-2.18-3.27-2.18-5.39c0-2.1,0.85-3.99,2.18-5.37c1.35-1.4,3.21-2.25,5.28-2.25c2.07,0,3.93,0.85,5.28,2.25
				c0.66,0.68,1.2,1.48,1.57,2.38H556.56z"/>
			<path class="st1" d="M550.08,253.45c-2.09,0-4.05-0.83-5.52-2.35c-1.47-1.51-2.27-3.51-2.27-5.62c0-2.1,0.81-4.08,2.27-5.6
				c1.47-1.51,3.43-2.35,5.52-2.35c2.09,0,4.05,0.83,5.52,2.35c0.7,0.72,1.26,1.58,1.64,2.48l0.19,0.46h-1.09l-0.09-0.2
				c-0.32-0.74-0.78-1.42-1.37-2.04c-1.27-1.31-2.98-2.04-4.8-2.04c-1.83,0-3.53,0.72-4.8,2.04c-1.29,1.34-2,3.07-2,4.9
				c0,1.85,0.71,3.58,2,4.9c1.29,1.33,2.99,2.06,4.8,2.06c1.81,0,3.52-0.73,4.8-2.06c0.6-0.63,1.07-1.31,1.37-2.02l0.09-0.2h1.09
				l-0.19,0.46c-0.38,0.91-0.94,1.76-1.64,2.48C554.13,252.62,552.17,253.45,550.08,253.45z"/>
		</g>
		<g>
			<path class="st1" d="M565.38,238.15h-3.25v14.62h3.25v0.33c-2.27,0-4.56,0-6.83,0v-0.33h3.25v-14.62h-3.25v-0.31
				c2.27,0,4.56,0,6.83,0V238.15z"/>
			<polygon class="st1" points="565.71,253.43 558.22,253.43 558.22,252.44 561.47,252.44 561.47,238.48 558.22,238.48 
				558.22,237.51 565.71,237.51 565.71,238.48 562.46,238.48 562.46,252.44 565.71,252.44 			"/>
		</g>
		<g>
			<path class="st1" d="M569.75,239.91c1.4-1.44,3.36-2.31,5.5-2.31c2.16,0,4.1,0.87,5.52,2.31c1.4,1.42,2.29,3.38,2.29,5.54
				c0,2.16-0.89,4.13-2.29,5.54c-1.42,1.44-3.36,2.31-5.52,2.31c-2.14,0-4.1-0.87-5.5-2.31c-1.4-1.42-2.29-3.38-2.29-5.54
				C567.45,243.3,568.35,241.33,569.75,239.91z M580.53,240.18c-1.35-1.37-3.23-2.23-5.28-2.23c-2.05,0-3.91,0.85-5.26,2.23
				c-1.33,1.35-2.18,3.21-2.18,5.28c0,2.07,0.85,3.93,2.18,5.28c1.35,1.38,3.21,2.23,5.26,2.23c2.05,0,3.93-0.85,5.28-2.23
				c1.33-1.35,2.16-3.21,2.16-5.28C582.69,243.38,581.86,241.53,580.53,240.18z M575.27,236.84l1.27-1.64h0.59l-1.44,1.64H575.27z"
				/>
			<path class="st1" d="M575.24,253.65c-2.16,0-4.25-0.88-5.74-2.41c-1.54-1.56-2.39-3.61-2.39-5.77c0-2.16,0.85-4.21,2.39-5.77
				c1.49-1.53,3.58-2.41,5.74-2.41c2.18,0,4.23,0.86,5.76,2.41c1.54,1.56,2.39,3.61,2.39,5.78s-0.85,4.21-2.39,5.78
				C579.47,252.79,577.43,253.65,575.24,253.65z M575.24,238.28c-1.89,0-3.67,0.76-5.02,2.13c-1.35,1.37-2.09,3.16-2.09,5.05
				s0.74,3.68,2.09,5.05c1.35,1.37,3.13,2.13,5.02,2.13c1.9,0,3.7-0.76,5.04-2.13c1.33-1.35,2.07-3.15,2.07-5.05
				c0-1.9-0.73-3.7-2.07-5.05l0,0C578.94,239.04,577.15,238.28,575.24,238.28z M575.83,237.17h-1.24l1.78-2.3h1.49L575.83,237.17z"
				/>
		</g>
		<g>
			<path class="st1" d="M585.63,253.1v-15.3l0.31,0.02l10.15,14.67v-14.67h0.33v15.28h-0.35l-10.08-14.58v14.58H585.63z"/>
			<polygon class="st1" points="596.42,253.55 596.34,253.43 595.89,253.43 586.31,239.58 586.31,253.43 585.3,253.43 585.3,237.44 
				585.65,237.47 585.65,237.45 585.66,237.47 586.12,237.5 595.76,251.42 595.76,237.49 596.75,237.49 596.75,253.43 
				596.42,253.43 			"/>
		</g>
		<g>
			<path class="st1" d="M608.81,252.77h8.12v0.33h-8.42h-0.04v-15.26h8.42v0.33h-8.08v7.11h7.9v0.35h-7.9V252.77z"/>
			<polygon class="st1" points="617.26,253.43 608.17,253.43 608.13,253.1 608.13,237.51 617.22,237.51 617.22,238.5 609.14,238.5 
				609.14,244.95 617.04,244.95 617.04,245.96 609.14,245.96 609.14,252.44 617.26,252.44 			"/>
		</g>
		<g>
			<path class="st1" d="M620.01,253.1h-0.33c0-5.08,0-10.17,0-15.26h8.23v0.33h-7.9v7.11h6.98v0.35h-6.98V253.1z"/>
			<polygon class="st1" points="620.34,253.43 619.35,253.43 619.35,237.51 628.24,237.51 628.24,238.5 620.34,238.5 620.34,244.95 
				627.32,244.95 627.32,245.96 620.34,245.96 			"/>
		</g>
		<g>
			<path class="st1" d="M630.81,252.77h8.12v0.33h-8.42h-0.04v-15.26h8.42v0.33h-8.08v7.11h7.9v0.35h-7.9V252.77z"/>
			<polygon class="st1" points="639.26,253.43 630.17,253.43 630.13,253.1 630.13,237.51 639.22,237.51 639.22,238.5 631.14,238.5 
				631.14,244.95 639.04,244.95 639.04,245.96 631.14,245.96 631.14,252.44 639.26,252.44 			"/>
		</g>
		<g>
			<path class="st1" d="M655.19,242.49c-0.35-0.81-0.85-1.53-1.44-2.14c-1.29-1.33-3.08-2.14-5.04-2.14c-1.96,0-3.75,0.81-5.04,2.14
				c-1.29,1.33-2.1,3.14-2.1,5.13c0,2.01,0.81,3.82,2.1,5.13c1.29,1.33,3.08,2.16,5.04,2.16c1.96,0,3.75-0.83,5.04-2.16
				c0.59-0.61,1.09-1.31,1.44-2.12h0.37c-0.37,0.89-0.92,1.7-1.57,2.38c-1.35,1.4-3.21,2.25-5.28,2.25c-2.07,0-3.93-0.85-5.28-2.25
				c-1.33-1.38-2.18-3.27-2.18-5.39c0-2.1,0.85-3.99,2.18-5.37c1.35-1.4,3.21-2.25,5.28-2.25c2.07,0,3.93,0.85,5.28,2.25
				c0.66,0.68,1.2,1.48,1.57,2.38H655.19z"/>
			<path class="st1" d="M648.71,253.45c-2.09,0-4.05-0.83-5.52-2.35c-1.47-1.52-2.27-3.51-2.27-5.62c0-2.1,0.81-4.08,2.27-5.6
				c1.47-1.51,3.43-2.35,5.52-2.35c2.09,0,4.05,0.83,5.52,2.35c0.7,0.72,1.26,1.58,1.64,2.48l0.19,0.46h-1.09l-0.09-0.2
				c-0.32-0.74-0.78-1.42-1.37-2.04c-1.27-1.31-2.98-2.04-4.8-2.04c-1.83,0-3.53,0.72-4.8,2.04c-1.29,1.34-2,3.07-2,4.9
				c0,1.85,0.71,3.58,2,4.9c1.29,1.33,2.99,2.06,4.8,2.06c1.81,0,3.52-0.73,4.8-2.06c0.6-0.63,1.07-1.31,1.37-2.02l0.09-0.2h1.09
				l-0.19,0.46c-0.38,0.91-0.94,1.76-1.64,2.48C652.76,252.62,650.8,253.45,648.71,253.45z"/>
		</g>
		<g>
			<path class="st1" d="M661.45,253.1v-14.93h-5.28v-0.35h10.89v0.35h-5.28v14.93H661.45z"/>
			<polygon class="st1" points="662.11,253.43 661.12,253.43 661.12,238.5 655.84,238.5 655.84,237.49 667.39,237.49 667.39,238.5 
				662.11,238.5 			"/>
		</g>
		<g>
			<path class="st1" d="M675.86,238.15h-3.25v14.62h3.25v0.33c-2.27,0-4.56,0-6.83,0v-0.33h3.25v-14.62h-3.25v-0.31
				c2.27,0,4.56,0,6.83,0V238.15z"/>
			<polygon class="st1" points="676.19,253.43 668.69,253.43 668.69,252.44 671.94,252.44 671.94,238.48 668.69,238.48 
				668.69,237.51 676.19,237.51 676.19,238.48 672.94,238.48 672.94,252.44 676.19,252.44 			"/>
		</g>
		<g>
			<path class="st1" d="M689.91,237.84h0.37l-6.13,15.5h-0.37l-6.13-15.5h0.37l5.94,15.06L689.91,237.84z"/>
			<polygon class="st1" points="683.95,253.8 683.9,253.67 683.55,253.67 677.16,237.51 678.24,237.51 683.95,252 689.69,237.51 
				690.77,237.51 684.38,253.67 684.01,253.67 			"/>
		</g>
		<g>
			<path class="st1" d="M699.76,247.97h-7.73l-2.07,5.13h-0.37l6.13-15.5h0.37l6.13,15.5h-0.37L699.76,247.97z M692.18,247.64h7.44
				l-3.73-9.58L692.18,247.64z"/>
			<path class="st1" d="M702.71,253.43h-1.08l-2.09-5.13h-7.28l-2.07,5.13h-1.08l6.4-16.16h0.35l0.05-0.13l0.05,0.13h0.37
				L702.71,253.43z M692.67,247.31h6.47l-3.25-8.33L692.67,247.31z"/>
		</g>
	</g>
</g>
</svg>
